G04 EAGLE Gerber RS-274X export*
G75*
%MOMM*%
%FSLAX34Y34*%
%LPD*%
%INBottom Silkscreen*%
%IPPOS*%
%AMOC8*
5,1,8,0,0,1.08239X$1,22.5*%
G01*
%ADD10C,0.203200*%


D10*
X279400Y577850D02*
X279400Y565150D01*
X285750Y558800D01*
X298450Y558800D02*
X304800Y565150D01*
X285750Y558800D02*
X279400Y552450D01*
X279400Y539750D01*
X285750Y533400D01*
X298450Y533400D02*
X304800Y539750D01*
X304800Y552450D01*
X298450Y558800D01*
X279400Y603250D02*
X285750Y609600D01*
X279400Y603250D02*
X279400Y590550D01*
X285750Y584200D01*
X298450Y584200D02*
X304800Y590550D01*
X304800Y603250D01*
X298450Y609600D01*
X285750Y584200D02*
X279400Y577850D01*
X298450Y584200D02*
X304800Y577850D01*
X304800Y565150D01*
X279400Y641350D02*
X279400Y654050D01*
X279400Y641350D02*
X285750Y635000D01*
X298450Y635000D02*
X304800Y641350D01*
X285750Y635000D02*
X279400Y628650D01*
X279400Y615950D01*
X285750Y609600D01*
X298450Y609600D02*
X304800Y615950D01*
X304800Y628650D01*
X298450Y635000D01*
X298450Y660400D02*
X285750Y660400D01*
X279400Y654050D01*
X298450Y660400D02*
X304800Y654050D01*
X304800Y641350D01*
X298450Y533400D02*
X285750Y533400D01*
X158750Y63500D02*
X152400Y57150D01*
X158750Y63500D02*
X152400Y69850D01*
X152400Y82550D02*
X158750Y88900D01*
X152400Y95250D01*
X152400Y107950D02*
X158750Y114300D01*
X203200Y57150D02*
X203200Y44450D01*
X203200Y57150D02*
X196850Y63500D01*
X203200Y69850D01*
X203200Y82550D01*
X196850Y88900D01*
X203200Y95250D01*
X203200Y107950D01*
X196850Y114300D01*
X196850Y63500D02*
X158750Y63500D01*
X158750Y88900D02*
X196850Y88900D01*
X152400Y95250D02*
X152400Y107950D01*
X152400Y82550D02*
X152400Y69850D01*
X152400Y57150D02*
X152400Y44450D01*
X149050Y44450D02*
X149050Y57150D01*
X158750Y114300D02*
X152400Y120650D01*
X152400Y133350D02*
X158750Y139700D01*
X152400Y146050D01*
X152400Y158750D02*
X158750Y165100D01*
X152400Y171450D01*
X152400Y184150D02*
X158750Y190500D01*
X158750Y114300D02*
X196850Y114300D01*
X203200Y120650D01*
X203200Y133350D01*
X196850Y139700D01*
X203200Y146050D01*
X203200Y158750D01*
X196850Y165100D01*
X203200Y171450D01*
X203200Y184150D01*
X196850Y190500D01*
X196850Y139700D02*
X158750Y139700D01*
X158750Y165100D02*
X196850Y165100D01*
X152400Y171450D02*
X152400Y184150D01*
X152400Y158750D02*
X152400Y146050D01*
X152400Y133350D02*
X152400Y120650D01*
X158750Y190500D02*
X152400Y196850D01*
X152400Y209550D02*
X158750Y215900D01*
X152400Y222250D01*
X152400Y234950D02*
X158750Y241300D01*
X152400Y247650D01*
X152400Y260350D02*
X158750Y266700D01*
X158750Y190500D02*
X196850Y190500D01*
X203200Y196850D01*
X203200Y209550D01*
X196850Y215900D01*
X203200Y222250D01*
X203200Y234950D01*
X196850Y241300D01*
X203200Y247650D01*
X203200Y260350D01*
X196850Y266700D01*
X196850Y215900D02*
X158750Y215900D01*
X158750Y241300D02*
X196850Y241300D01*
X152400Y247650D02*
X152400Y260350D01*
X152400Y234950D02*
X152400Y222250D01*
X152400Y209550D02*
X152400Y196850D01*
X158750Y266700D02*
X152400Y273050D01*
X152400Y285750D02*
X158750Y292100D01*
X152400Y298450D01*
X152400Y311150D02*
X158750Y317500D01*
X152400Y323850D01*
X152400Y336550D02*
X158750Y342900D01*
X158750Y266700D02*
X196850Y266700D01*
X203200Y273050D01*
X203200Y285750D01*
X196850Y292100D01*
X203200Y298450D01*
X203200Y311150D01*
X196850Y317500D01*
X203200Y323850D01*
X203200Y336550D01*
X196850Y342900D01*
X196850Y292100D02*
X158750Y292100D01*
X158750Y317500D02*
X196850Y317500D01*
X196850Y342900D02*
X158750Y342900D01*
X152400Y336550D02*
X152400Y323850D01*
X152400Y311150D02*
X152400Y298450D01*
X152400Y285750D02*
X152400Y273050D01*
X152400Y44450D02*
X158750Y38100D01*
X196850Y38100D01*
X203200Y44450D01*
M02*
