G04 EAGLE Gerber RS-274X export*
G75*
%MOMM*%
%FSLAX34Y34*%
%LPD*%
%INTop Copper*%
%IPPOS*%
%AMOC8*
5,1,8,0,0,1.08239X$1,22.5*%
G01*
%ADD10C,0.000000*%
%ADD11C,1.320800*%
%ADD12R,1.350000X0.400000*%
%ADD13C,1.875000*%
%ADD14C,2.250000*%
%ADD15C,1.879600*%
%ADD16C,1.408000*%
%ADD17P,1.429621X8X112.500000*%
%ADD18C,1.508000*%
%ADD19P,1.429621X8X202.500000*%
%ADD20C,1.320800*%
%ADD21P,1.429621X8X22.500000*%
%ADD22P,1.429621X8X292.500000*%
%ADD23R,1.108000X1.108000*%
%ADD24P,2.034460X8X112.500000*%
%ADD25C,0.406400*%
%ADD26C,0.756400*%


D10*
X0Y0D02*
X1000000Y0D01*
X1000000Y1000000D01*
X0Y1000000D01*
X0Y0D01*
X9525Y952500D02*
X9530Y952890D01*
X9544Y953279D01*
X9568Y953668D01*
X9601Y954056D01*
X9644Y954443D01*
X9697Y954829D01*
X9759Y955214D01*
X9830Y955597D01*
X9911Y955978D01*
X10001Y956357D01*
X10100Y956734D01*
X10209Y957108D01*
X10326Y957480D01*
X10453Y957848D01*
X10589Y958213D01*
X10733Y958575D01*
X10887Y958933D01*
X11049Y959287D01*
X11220Y959638D01*
X11399Y959983D01*
X11587Y960325D01*
X11784Y960661D01*
X11988Y960993D01*
X12200Y961320D01*
X12421Y961641D01*
X12649Y961957D01*
X12885Y962267D01*
X13128Y962571D01*
X13379Y962869D01*
X13637Y963161D01*
X13903Y963446D01*
X14175Y963725D01*
X14454Y963997D01*
X14739Y964263D01*
X15031Y964521D01*
X15329Y964772D01*
X15633Y965015D01*
X15943Y965251D01*
X16259Y965479D01*
X16580Y965700D01*
X16907Y965912D01*
X17239Y966116D01*
X17575Y966313D01*
X17917Y966501D01*
X18262Y966680D01*
X18613Y966851D01*
X18967Y967013D01*
X19325Y967167D01*
X19687Y967311D01*
X20052Y967447D01*
X20420Y967574D01*
X20792Y967691D01*
X21166Y967800D01*
X21543Y967899D01*
X21922Y967989D01*
X22303Y968070D01*
X22686Y968141D01*
X23071Y968203D01*
X23457Y968256D01*
X23844Y968299D01*
X24232Y968332D01*
X24621Y968356D01*
X25010Y968370D01*
X25400Y968375D01*
X25790Y968370D01*
X26179Y968356D01*
X26568Y968332D01*
X26956Y968299D01*
X27343Y968256D01*
X27729Y968203D01*
X28114Y968141D01*
X28497Y968070D01*
X28878Y967989D01*
X29257Y967899D01*
X29634Y967800D01*
X30008Y967691D01*
X30380Y967574D01*
X30748Y967447D01*
X31113Y967311D01*
X31475Y967167D01*
X31833Y967013D01*
X32187Y966851D01*
X32538Y966680D01*
X32883Y966501D01*
X33225Y966313D01*
X33561Y966116D01*
X33893Y965912D01*
X34220Y965700D01*
X34541Y965479D01*
X34857Y965251D01*
X35167Y965015D01*
X35471Y964772D01*
X35769Y964521D01*
X36061Y964263D01*
X36346Y963997D01*
X36625Y963725D01*
X36897Y963446D01*
X37163Y963161D01*
X37421Y962869D01*
X37672Y962571D01*
X37915Y962267D01*
X38151Y961957D01*
X38379Y961641D01*
X38600Y961320D01*
X38812Y960993D01*
X39016Y960661D01*
X39213Y960325D01*
X39401Y959983D01*
X39580Y959638D01*
X39751Y959287D01*
X39913Y958933D01*
X40067Y958575D01*
X40211Y958213D01*
X40347Y957848D01*
X40474Y957480D01*
X40591Y957108D01*
X40700Y956734D01*
X40799Y956357D01*
X40889Y955978D01*
X40970Y955597D01*
X41041Y955214D01*
X41103Y954829D01*
X41156Y954443D01*
X41199Y954056D01*
X41232Y953668D01*
X41256Y953279D01*
X41270Y952890D01*
X41275Y952500D01*
X41270Y952110D01*
X41256Y951721D01*
X41232Y951332D01*
X41199Y950944D01*
X41156Y950557D01*
X41103Y950171D01*
X41041Y949786D01*
X40970Y949403D01*
X40889Y949022D01*
X40799Y948643D01*
X40700Y948266D01*
X40591Y947892D01*
X40474Y947520D01*
X40347Y947152D01*
X40211Y946787D01*
X40067Y946425D01*
X39913Y946067D01*
X39751Y945713D01*
X39580Y945362D01*
X39401Y945017D01*
X39213Y944675D01*
X39016Y944339D01*
X38812Y944007D01*
X38600Y943680D01*
X38379Y943359D01*
X38151Y943043D01*
X37915Y942733D01*
X37672Y942429D01*
X37421Y942131D01*
X37163Y941839D01*
X36897Y941554D01*
X36625Y941275D01*
X36346Y941003D01*
X36061Y940737D01*
X35769Y940479D01*
X35471Y940228D01*
X35167Y939985D01*
X34857Y939749D01*
X34541Y939521D01*
X34220Y939300D01*
X33893Y939088D01*
X33561Y938884D01*
X33225Y938687D01*
X32883Y938499D01*
X32538Y938320D01*
X32187Y938149D01*
X31833Y937987D01*
X31475Y937833D01*
X31113Y937689D01*
X30748Y937553D01*
X30380Y937426D01*
X30008Y937309D01*
X29634Y937200D01*
X29257Y937101D01*
X28878Y937011D01*
X28497Y936930D01*
X28114Y936859D01*
X27729Y936797D01*
X27343Y936744D01*
X26956Y936701D01*
X26568Y936668D01*
X26179Y936644D01*
X25790Y936630D01*
X25400Y936625D01*
X25010Y936630D01*
X24621Y936644D01*
X24232Y936668D01*
X23844Y936701D01*
X23457Y936744D01*
X23071Y936797D01*
X22686Y936859D01*
X22303Y936930D01*
X21922Y937011D01*
X21543Y937101D01*
X21166Y937200D01*
X20792Y937309D01*
X20420Y937426D01*
X20052Y937553D01*
X19687Y937689D01*
X19325Y937833D01*
X18967Y937987D01*
X18613Y938149D01*
X18262Y938320D01*
X17917Y938499D01*
X17575Y938687D01*
X17239Y938884D01*
X16907Y939088D01*
X16580Y939300D01*
X16259Y939521D01*
X15943Y939749D01*
X15633Y939985D01*
X15329Y940228D01*
X15031Y940479D01*
X14739Y940737D01*
X14454Y941003D01*
X14175Y941275D01*
X13903Y941554D01*
X13637Y941839D01*
X13379Y942131D01*
X13128Y942429D01*
X12885Y942733D01*
X12649Y943043D01*
X12421Y943359D01*
X12200Y943680D01*
X11988Y944007D01*
X11784Y944339D01*
X11587Y944675D01*
X11399Y945017D01*
X11220Y945362D01*
X11049Y945713D01*
X10887Y946067D01*
X10733Y946425D01*
X10589Y946787D01*
X10453Y947152D01*
X10326Y947520D01*
X10209Y947892D01*
X10100Y948266D01*
X10001Y948643D01*
X9911Y949022D01*
X9830Y949403D01*
X9759Y949786D01*
X9697Y950171D01*
X9644Y950557D01*
X9601Y950944D01*
X9568Y951332D01*
X9544Y951721D01*
X9530Y952110D01*
X9525Y952500D01*
X9525Y787400D02*
X9530Y787790D01*
X9544Y788179D01*
X9568Y788568D01*
X9601Y788956D01*
X9644Y789343D01*
X9697Y789729D01*
X9759Y790114D01*
X9830Y790497D01*
X9911Y790878D01*
X10001Y791257D01*
X10100Y791634D01*
X10209Y792008D01*
X10326Y792380D01*
X10453Y792748D01*
X10589Y793113D01*
X10733Y793475D01*
X10887Y793833D01*
X11049Y794187D01*
X11220Y794538D01*
X11399Y794883D01*
X11587Y795225D01*
X11784Y795561D01*
X11988Y795893D01*
X12200Y796220D01*
X12421Y796541D01*
X12649Y796857D01*
X12885Y797167D01*
X13128Y797471D01*
X13379Y797769D01*
X13637Y798061D01*
X13903Y798346D01*
X14175Y798625D01*
X14454Y798897D01*
X14739Y799163D01*
X15031Y799421D01*
X15329Y799672D01*
X15633Y799915D01*
X15943Y800151D01*
X16259Y800379D01*
X16580Y800600D01*
X16907Y800812D01*
X17239Y801016D01*
X17575Y801213D01*
X17917Y801401D01*
X18262Y801580D01*
X18613Y801751D01*
X18967Y801913D01*
X19325Y802067D01*
X19687Y802211D01*
X20052Y802347D01*
X20420Y802474D01*
X20792Y802591D01*
X21166Y802700D01*
X21543Y802799D01*
X21922Y802889D01*
X22303Y802970D01*
X22686Y803041D01*
X23071Y803103D01*
X23457Y803156D01*
X23844Y803199D01*
X24232Y803232D01*
X24621Y803256D01*
X25010Y803270D01*
X25400Y803275D01*
X25790Y803270D01*
X26179Y803256D01*
X26568Y803232D01*
X26956Y803199D01*
X27343Y803156D01*
X27729Y803103D01*
X28114Y803041D01*
X28497Y802970D01*
X28878Y802889D01*
X29257Y802799D01*
X29634Y802700D01*
X30008Y802591D01*
X30380Y802474D01*
X30748Y802347D01*
X31113Y802211D01*
X31475Y802067D01*
X31833Y801913D01*
X32187Y801751D01*
X32538Y801580D01*
X32883Y801401D01*
X33225Y801213D01*
X33561Y801016D01*
X33893Y800812D01*
X34220Y800600D01*
X34541Y800379D01*
X34857Y800151D01*
X35167Y799915D01*
X35471Y799672D01*
X35769Y799421D01*
X36061Y799163D01*
X36346Y798897D01*
X36625Y798625D01*
X36897Y798346D01*
X37163Y798061D01*
X37421Y797769D01*
X37672Y797471D01*
X37915Y797167D01*
X38151Y796857D01*
X38379Y796541D01*
X38600Y796220D01*
X38812Y795893D01*
X39016Y795561D01*
X39213Y795225D01*
X39401Y794883D01*
X39580Y794538D01*
X39751Y794187D01*
X39913Y793833D01*
X40067Y793475D01*
X40211Y793113D01*
X40347Y792748D01*
X40474Y792380D01*
X40591Y792008D01*
X40700Y791634D01*
X40799Y791257D01*
X40889Y790878D01*
X40970Y790497D01*
X41041Y790114D01*
X41103Y789729D01*
X41156Y789343D01*
X41199Y788956D01*
X41232Y788568D01*
X41256Y788179D01*
X41270Y787790D01*
X41275Y787400D01*
X41270Y787010D01*
X41256Y786621D01*
X41232Y786232D01*
X41199Y785844D01*
X41156Y785457D01*
X41103Y785071D01*
X41041Y784686D01*
X40970Y784303D01*
X40889Y783922D01*
X40799Y783543D01*
X40700Y783166D01*
X40591Y782792D01*
X40474Y782420D01*
X40347Y782052D01*
X40211Y781687D01*
X40067Y781325D01*
X39913Y780967D01*
X39751Y780613D01*
X39580Y780262D01*
X39401Y779917D01*
X39213Y779575D01*
X39016Y779239D01*
X38812Y778907D01*
X38600Y778580D01*
X38379Y778259D01*
X38151Y777943D01*
X37915Y777633D01*
X37672Y777329D01*
X37421Y777031D01*
X37163Y776739D01*
X36897Y776454D01*
X36625Y776175D01*
X36346Y775903D01*
X36061Y775637D01*
X35769Y775379D01*
X35471Y775128D01*
X35167Y774885D01*
X34857Y774649D01*
X34541Y774421D01*
X34220Y774200D01*
X33893Y773988D01*
X33561Y773784D01*
X33225Y773587D01*
X32883Y773399D01*
X32538Y773220D01*
X32187Y773049D01*
X31833Y772887D01*
X31475Y772733D01*
X31113Y772589D01*
X30748Y772453D01*
X30380Y772326D01*
X30008Y772209D01*
X29634Y772100D01*
X29257Y772001D01*
X28878Y771911D01*
X28497Y771830D01*
X28114Y771759D01*
X27729Y771697D01*
X27343Y771644D01*
X26956Y771601D01*
X26568Y771568D01*
X26179Y771544D01*
X25790Y771530D01*
X25400Y771525D01*
X25010Y771530D01*
X24621Y771544D01*
X24232Y771568D01*
X23844Y771601D01*
X23457Y771644D01*
X23071Y771697D01*
X22686Y771759D01*
X22303Y771830D01*
X21922Y771911D01*
X21543Y772001D01*
X21166Y772100D01*
X20792Y772209D01*
X20420Y772326D01*
X20052Y772453D01*
X19687Y772589D01*
X19325Y772733D01*
X18967Y772887D01*
X18613Y773049D01*
X18262Y773220D01*
X17917Y773399D01*
X17575Y773587D01*
X17239Y773784D01*
X16907Y773988D01*
X16580Y774200D01*
X16259Y774421D01*
X15943Y774649D01*
X15633Y774885D01*
X15329Y775128D01*
X15031Y775379D01*
X14739Y775637D01*
X14454Y775903D01*
X14175Y776175D01*
X13903Y776454D01*
X13637Y776739D01*
X13379Y777031D01*
X13128Y777329D01*
X12885Y777633D01*
X12649Y777943D01*
X12421Y778259D01*
X12200Y778580D01*
X11988Y778907D01*
X11784Y779239D01*
X11587Y779575D01*
X11399Y779917D01*
X11220Y780262D01*
X11049Y780613D01*
X10887Y780967D01*
X10733Y781325D01*
X10589Y781687D01*
X10453Y782052D01*
X10326Y782420D01*
X10209Y782792D01*
X10100Y783166D01*
X10001Y783543D01*
X9911Y783922D01*
X9830Y784303D01*
X9759Y784686D01*
X9697Y785071D01*
X9644Y785457D01*
X9601Y785844D01*
X9568Y786232D01*
X9544Y786621D01*
X9530Y787010D01*
X9525Y787400D01*
X949325Y952500D02*
X949330Y952890D01*
X949344Y953279D01*
X949368Y953668D01*
X949401Y954056D01*
X949444Y954443D01*
X949497Y954829D01*
X949559Y955214D01*
X949630Y955597D01*
X949711Y955978D01*
X949801Y956357D01*
X949900Y956734D01*
X950009Y957108D01*
X950126Y957480D01*
X950253Y957848D01*
X950389Y958213D01*
X950533Y958575D01*
X950687Y958933D01*
X950849Y959287D01*
X951020Y959638D01*
X951199Y959983D01*
X951387Y960325D01*
X951584Y960661D01*
X951788Y960993D01*
X952000Y961320D01*
X952221Y961641D01*
X952449Y961957D01*
X952685Y962267D01*
X952928Y962571D01*
X953179Y962869D01*
X953437Y963161D01*
X953703Y963446D01*
X953975Y963725D01*
X954254Y963997D01*
X954539Y964263D01*
X954831Y964521D01*
X955129Y964772D01*
X955433Y965015D01*
X955743Y965251D01*
X956059Y965479D01*
X956380Y965700D01*
X956707Y965912D01*
X957039Y966116D01*
X957375Y966313D01*
X957717Y966501D01*
X958062Y966680D01*
X958413Y966851D01*
X958767Y967013D01*
X959125Y967167D01*
X959487Y967311D01*
X959852Y967447D01*
X960220Y967574D01*
X960592Y967691D01*
X960966Y967800D01*
X961343Y967899D01*
X961722Y967989D01*
X962103Y968070D01*
X962486Y968141D01*
X962871Y968203D01*
X963257Y968256D01*
X963644Y968299D01*
X964032Y968332D01*
X964421Y968356D01*
X964810Y968370D01*
X965200Y968375D01*
X965590Y968370D01*
X965979Y968356D01*
X966368Y968332D01*
X966756Y968299D01*
X967143Y968256D01*
X967529Y968203D01*
X967914Y968141D01*
X968297Y968070D01*
X968678Y967989D01*
X969057Y967899D01*
X969434Y967800D01*
X969808Y967691D01*
X970180Y967574D01*
X970548Y967447D01*
X970913Y967311D01*
X971275Y967167D01*
X971633Y967013D01*
X971987Y966851D01*
X972338Y966680D01*
X972683Y966501D01*
X973025Y966313D01*
X973361Y966116D01*
X973693Y965912D01*
X974020Y965700D01*
X974341Y965479D01*
X974657Y965251D01*
X974967Y965015D01*
X975271Y964772D01*
X975569Y964521D01*
X975861Y964263D01*
X976146Y963997D01*
X976425Y963725D01*
X976697Y963446D01*
X976963Y963161D01*
X977221Y962869D01*
X977472Y962571D01*
X977715Y962267D01*
X977951Y961957D01*
X978179Y961641D01*
X978400Y961320D01*
X978612Y960993D01*
X978816Y960661D01*
X979013Y960325D01*
X979201Y959983D01*
X979380Y959638D01*
X979551Y959287D01*
X979713Y958933D01*
X979867Y958575D01*
X980011Y958213D01*
X980147Y957848D01*
X980274Y957480D01*
X980391Y957108D01*
X980500Y956734D01*
X980599Y956357D01*
X980689Y955978D01*
X980770Y955597D01*
X980841Y955214D01*
X980903Y954829D01*
X980956Y954443D01*
X980999Y954056D01*
X981032Y953668D01*
X981056Y953279D01*
X981070Y952890D01*
X981075Y952500D01*
X981070Y952110D01*
X981056Y951721D01*
X981032Y951332D01*
X980999Y950944D01*
X980956Y950557D01*
X980903Y950171D01*
X980841Y949786D01*
X980770Y949403D01*
X980689Y949022D01*
X980599Y948643D01*
X980500Y948266D01*
X980391Y947892D01*
X980274Y947520D01*
X980147Y947152D01*
X980011Y946787D01*
X979867Y946425D01*
X979713Y946067D01*
X979551Y945713D01*
X979380Y945362D01*
X979201Y945017D01*
X979013Y944675D01*
X978816Y944339D01*
X978612Y944007D01*
X978400Y943680D01*
X978179Y943359D01*
X977951Y943043D01*
X977715Y942733D01*
X977472Y942429D01*
X977221Y942131D01*
X976963Y941839D01*
X976697Y941554D01*
X976425Y941275D01*
X976146Y941003D01*
X975861Y940737D01*
X975569Y940479D01*
X975271Y940228D01*
X974967Y939985D01*
X974657Y939749D01*
X974341Y939521D01*
X974020Y939300D01*
X973693Y939088D01*
X973361Y938884D01*
X973025Y938687D01*
X972683Y938499D01*
X972338Y938320D01*
X971987Y938149D01*
X971633Y937987D01*
X971275Y937833D01*
X970913Y937689D01*
X970548Y937553D01*
X970180Y937426D01*
X969808Y937309D01*
X969434Y937200D01*
X969057Y937101D01*
X968678Y937011D01*
X968297Y936930D01*
X967914Y936859D01*
X967529Y936797D01*
X967143Y936744D01*
X966756Y936701D01*
X966368Y936668D01*
X965979Y936644D01*
X965590Y936630D01*
X965200Y936625D01*
X964810Y936630D01*
X964421Y936644D01*
X964032Y936668D01*
X963644Y936701D01*
X963257Y936744D01*
X962871Y936797D01*
X962486Y936859D01*
X962103Y936930D01*
X961722Y937011D01*
X961343Y937101D01*
X960966Y937200D01*
X960592Y937309D01*
X960220Y937426D01*
X959852Y937553D01*
X959487Y937689D01*
X959125Y937833D01*
X958767Y937987D01*
X958413Y938149D01*
X958062Y938320D01*
X957717Y938499D01*
X957375Y938687D01*
X957039Y938884D01*
X956707Y939088D01*
X956380Y939300D01*
X956059Y939521D01*
X955743Y939749D01*
X955433Y939985D01*
X955129Y940228D01*
X954831Y940479D01*
X954539Y940737D01*
X954254Y941003D01*
X953975Y941275D01*
X953703Y941554D01*
X953437Y941839D01*
X953179Y942131D01*
X952928Y942429D01*
X952685Y942733D01*
X952449Y943043D01*
X952221Y943359D01*
X952000Y943680D01*
X951788Y944007D01*
X951584Y944339D01*
X951387Y944675D01*
X951199Y945017D01*
X951020Y945362D01*
X950849Y945713D01*
X950687Y946067D01*
X950533Y946425D01*
X950389Y946787D01*
X950253Y947152D01*
X950126Y947520D01*
X950009Y947892D01*
X949900Y948266D01*
X949801Y948643D01*
X949711Y949022D01*
X949630Y949403D01*
X949559Y949786D01*
X949497Y950171D01*
X949444Y950557D01*
X949401Y950944D01*
X949368Y951332D01*
X949344Y951721D01*
X949330Y952110D01*
X949325Y952500D01*
X949325Y787400D02*
X949330Y787790D01*
X949344Y788179D01*
X949368Y788568D01*
X949401Y788956D01*
X949444Y789343D01*
X949497Y789729D01*
X949559Y790114D01*
X949630Y790497D01*
X949711Y790878D01*
X949801Y791257D01*
X949900Y791634D01*
X950009Y792008D01*
X950126Y792380D01*
X950253Y792748D01*
X950389Y793113D01*
X950533Y793475D01*
X950687Y793833D01*
X950849Y794187D01*
X951020Y794538D01*
X951199Y794883D01*
X951387Y795225D01*
X951584Y795561D01*
X951788Y795893D01*
X952000Y796220D01*
X952221Y796541D01*
X952449Y796857D01*
X952685Y797167D01*
X952928Y797471D01*
X953179Y797769D01*
X953437Y798061D01*
X953703Y798346D01*
X953975Y798625D01*
X954254Y798897D01*
X954539Y799163D01*
X954831Y799421D01*
X955129Y799672D01*
X955433Y799915D01*
X955743Y800151D01*
X956059Y800379D01*
X956380Y800600D01*
X956707Y800812D01*
X957039Y801016D01*
X957375Y801213D01*
X957717Y801401D01*
X958062Y801580D01*
X958413Y801751D01*
X958767Y801913D01*
X959125Y802067D01*
X959487Y802211D01*
X959852Y802347D01*
X960220Y802474D01*
X960592Y802591D01*
X960966Y802700D01*
X961343Y802799D01*
X961722Y802889D01*
X962103Y802970D01*
X962486Y803041D01*
X962871Y803103D01*
X963257Y803156D01*
X963644Y803199D01*
X964032Y803232D01*
X964421Y803256D01*
X964810Y803270D01*
X965200Y803275D01*
X965590Y803270D01*
X965979Y803256D01*
X966368Y803232D01*
X966756Y803199D01*
X967143Y803156D01*
X967529Y803103D01*
X967914Y803041D01*
X968297Y802970D01*
X968678Y802889D01*
X969057Y802799D01*
X969434Y802700D01*
X969808Y802591D01*
X970180Y802474D01*
X970548Y802347D01*
X970913Y802211D01*
X971275Y802067D01*
X971633Y801913D01*
X971987Y801751D01*
X972338Y801580D01*
X972683Y801401D01*
X973025Y801213D01*
X973361Y801016D01*
X973693Y800812D01*
X974020Y800600D01*
X974341Y800379D01*
X974657Y800151D01*
X974967Y799915D01*
X975271Y799672D01*
X975569Y799421D01*
X975861Y799163D01*
X976146Y798897D01*
X976425Y798625D01*
X976697Y798346D01*
X976963Y798061D01*
X977221Y797769D01*
X977472Y797471D01*
X977715Y797167D01*
X977951Y796857D01*
X978179Y796541D01*
X978400Y796220D01*
X978612Y795893D01*
X978816Y795561D01*
X979013Y795225D01*
X979201Y794883D01*
X979380Y794538D01*
X979551Y794187D01*
X979713Y793833D01*
X979867Y793475D01*
X980011Y793113D01*
X980147Y792748D01*
X980274Y792380D01*
X980391Y792008D01*
X980500Y791634D01*
X980599Y791257D01*
X980689Y790878D01*
X980770Y790497D01*
X980841Y790114D01*
X980903Y789729D01*
X980956Y789343D01*
X980999Y788956D01*
X981032Y788568D01*
X981056Y788179D01*
X981070Y787790D01*
X981075Y787400D01*
X981070Y787010D01*
X981056Y786621D01*
X981032Y786232D01*
X980999Y785844D01*
X980956Y785457D01*
X980903Y785071D01*
X980841Y784686D01*
X980770Y784303D01*
X980689Y783922D01*
X980599Y783543D01*
X980500Y783166D01*
X980391Y782792D01*
X980274Y782420D01*
X980147Y782052D01*
X980011Y781687D01*
X979867Y781325D01*
X979713Y780967D01*
X979551Y780613D01*
X979380Y780262D01*
X979201Y779917D01*
X979013Y779575D01*
X978816Y779239D01*
X978612Y778907D01*
X978400Y778580D01*
X978179Y778259D01*
X977951Y777943D01*
X977715Y777633D01*
X977472Y777329D01*
X977221Y777031D01*
X976963Y776739D01*
X976697Y776454D01*
X976425Y776175D01*
X976146Y775903D01*
X975861Y775637D01*
X975569Y775379D01*
X975271Y775128D01*
X974967Y774885D01*
X974657Y774649D01*
X974341Y774421D01*
X974020Y774200D01*
X973693Y773988D01*
X973361Y773784D01*
X973025Y773587D01*
X972683Y773399D01*
X972338Y773220D01*
X971987Y773049D01*
X971633Y772887D01*
X971275Y772733D01*
X970913Y772589D01*
X970548Y772453D01*
X970180Y772326D01*
X969808Y772209D01*
X969434Y772100D01*
X969057Y772001D01*
X968678Y771911D01*
X968297Y771830D01*
X967914Y771759D01*
X967529Y771697D01*
X967143Y771644D01*
X966756Y771601D01*
X966368Y771568D01*
X965979Y771544D01*
X965590Y771530D01*
X965200Y771525D01*
X964810Y771530D01*
X964421Y771544D01*
X964032Y771568D01*
X963644Y771601D01*
X963257Y771644D01*
X962871Y771697D01*
X962486Y771759D01*
X962103Y771830D01*
X961722Y771911D01*
X961343Y772001D01*
X960966Y772100D01*
X960592Y772209D01*
X960220Y772326D01*
X959852Y772453D01*
X959487Y772589D01*
X959125Y772733D01*
X958767Y772887D01*
X958413Y773049D01*
X958062Y773220D01*
X957717Y773399D01*
X957375Y773587D01*
X957039Y773784D01*
X956707Y773988D01*
X956380Y774200D01*
X956059Y774421D01*
X955743Y774649D01*
X955433Y774885D01*
X955129Y775128D01*
X954831Y775379D01*
X954539Y775637D01*
X954254Y775903D01*
X953975Y776175D01*
X953703Y776454D01*
X953437Y776739D01*
X953179Y777031D01*
X952928Y777329D01*
X952685Y777633D01*
X952449Y777943D01*
X952221Y778259D01*
X952000Y778580D01*
X951788Y778907D01*
X951584Y779239D01*
X951387Y779575D01*
X951199Y779917D01*
X951020Y780262D01*
X950849Y780613D01*
X950687Y780967D01*
X950533Y781325D01*
X950389Y781687D01*
X950253Y782052D01*
X950126Y782420D01*
X950009Y782792D01*
X949900Y783166D01*
X949801Y783543D01*
X949711Y783922D01*
X949630Y784303D01*
X949559Y784686D01*
X949497Y785071D01*
X949444Y785457D01*
X949401Y785844D01*
X949368Y786232D01*
X949344Y786621D01*
X949330Y787010D01*
X949325Y787400D01*
D11*
X425704Y647700D02*
X412496Y647700D01*
X412496Y622300D02*
X425704Y622300D01*
X425704Y596900D02*
X412496Y596900D01*
X412496Y571500D02*
X425704Y571500D01*
X425704Y546100D02*
X412496Y546100D01*
X412496Y520700D02*
X425704Y520700D01*
X425704Y495300D02*
X412496Y495300D01*
X412496Y469900D02*
X425704Y469900D01*
X425704Y444500D02*
X412496Y444500D01*
X412496Y419100D02*
X425704Y419100D01*
X425704Y393700D02*
X412496Y393700D01*
X412496Y368300D02*
X425704Y368300D01*
X425704Y342900D02*
X412496Y342900D01*
X412496Y317500D02*
X425704Y317500D01*
X488696Y317500D02*
X501904Y317500D01*
X501904Y342900D02*
X488696Y342900D01*
X488696Y368300D02*
X501904Y368300D01*
X501904Y393700D02*
X488696Y393700D01*
X488696Y419100D02*
X501904Y419100D01*
X501904Y444500D02*
X488696Y444500D01*
X488696Y469900D02*
X501904Y469900D01*
X501904Y495300D02*
X488696Y495300D01*
X488696Y520700D02*
X501904Y520700D01*
X501904Y546100D02*
X488696Y546100D01*
X488696Y571500D02*
X501904Y571500D01*
X501904Y596900D02*
X488696Y596900D01*
X488696Y622300D02*
X501904Y622300D01*
X501904Y647700D02*
X488696Y647700D01*
D12*
X53670Y666750D03*
X53670Y660250D03*
X53670Y653750D03*
X53670Y673250D03*
X53670Y679750D03*
D13*
X53670Y691750D03*
X53670Y641750D03*
D14*
X26670Y701750D03*
X26670Y631750D03*
D15*
X38100Y406400D03*
X38100Y431800D03*
X127000Y622300D03*
X152400Y622300D03*
X177800Y622300D03*
X203200Y622300D03*
D16*
X38100Y533400D03*
X38100Y508400D03*
X38100Y558400D03*
D17*
X114300Y736600D03*
X114300Y762000D03*
X177800Y685800D03*
X177800Y787400D03*
D15*
X292100Y647700D03*
X292100Y622300D03*
X292100Y596900D03*
X292100Y571500D03*
X292100Y546100D03*
D18*
X406400Y736200D03*
X406400Y686200D03*
D19*
X304800Y711200D03*
X203200Y711200D03*
X558800Y635000D03*
X533400Y635000D03*
X368300Y317500D03*
X342900Y317500D03*
D20*
X558800Y482600D03*
D21*
X609600Y482600D03*
D15*
X25400Y304800D03*
X25400Y279400D03*
X25400Y254000D03*
X25400Y228600D03*
X25400Y203200D03*
X25400Y177800D03*
X50800Y355600D03*
X50800Y330200D03*
X50800Y304800D03*
X50800Y279400D03*
X50800Y254000D03*
X50800Y228600D03*
X50800Y203200D03*
D11*
X717296Y596900D02*
X730504Y596900D01*
X730504Y571500D02*
X717296Y571500D01*
X717296Y546100D02*
X730504Y546100D01*
X730504Y520700D02*
X717296Y520700D01*
X717296Y495300D02*
X730504Y495300D01*
X730504Y469900D02*
X717296Y469900D01*
X717296Y444500D02*
X730504Y444500D01*
X730504Y419100D02*
X717296Y419100D01*
X717296Y393700D02*
X730504Y393700D01*
X730504Y368300D02*
X717296Y368300D01*
X717296Y342900D02*
X730504Y342900D01*
X730504Y317500D02*
X717296Y317500D01*
X717296Y292100D02*
X730504Y292100D01*
X730504Y266700D02*
X717296Y266700D01*
X793496Y266700D02*
X806704Y266700D01*
X806704Y292100D02*
X793496Y292100D01*
X793496Y317500D02*
X806704Y317500D01*
X806704Y342900D02*
X793496Y342900D01*
X793496Y368300D02*
X806704Y368300D01*
X806704Y393700D02*
X793496Y393700D01*
X793496Y419100D02*
X806704Y419100D01*
X806704Y444500D02*
X793496Y444500D01*
X793496Y469900D02*
X806704Y469900D01*
X806704Y495300D02*
X793496Y495300D01*
X793496Y520700D02*
X806704Y520700D01*
X806704Y546100D02*
X793496Y546100D01*
X793496Y571500D02*
X806704Y571500D01*
X806704Y596900D02*
X793496Y596900D01*
D22*
X660400Y393700D03*
X660400Y368300D03*
X622300Y342900D03*
X622300Y241300D03*
X660400Y342900D03*
X660400Y241300D03*
D19*
X838200Y241300D03*
X812800Y241300D03*
D21*
X698500Y241300D03*
X800100Y241300D03*
D19*
X711200Y838200D03*
X609600Y838200D03*
D18*
X635400Y774700D03*
X685400Y774700D03*
D23*
X469900Y952500D03*
X469900Y927100D03*
X469900Y901700D03*
X469900Y876300D03*
X469900Y850900D03*
X469900Y825500D03*
X469900Y800100D03*
X546100Y800100D03*
X546100Y825500D03*
X546100Y850900D03*
X546100Y876300D03*
X546100Y901700D03*
X546100Y927100D03*
X546100Y952500D03*
D15*
X419100Y889000D03*
X419100Y914400D03*
X419100Y825500D03*
X419100Y850900D03*
D24*
X165100Y50800D03*
X190500Y50800D03*
X165100Y76200D03*
X190500Y76200D03*
X165100Y101600D03*
X190500Y101600D03*
X165100Y127000D03*
X190500Y127000D03*
X165100Y152400D03*
X190500Y152400D03*
X165100Y177800D03*
X190500Y177800D03*
X165100Y203200D03*
X190500Y203200D03*
X165100Y228600D03*
X190500Y228600D03*
X165100Y254000D03*
X190500Y254000D03*
X165100Y279400D03*
X190500Y279400D03*
X165100Y304800D03*
X190500Y304800D03*
X165100Y330200D03*
X190500Y330200D03*
D22*
X584200Y342900D03*
X584200Y241300D03*
X546100Y342900D03*
X546100Y241300D03*
D15*
X127000Y241300D03*
X317500Y215900D03*
X241300Y88900D03*
X660400Y571500D03*
X660400Y546100D03*
X660400Y520700D03*
X660400Y495300D03*
X660400Y469900D03*
X660400Y444500D03*
X660400Y419100D03*
X838200Y596900D03*
X838200Y571500D03*
X838200Y546100D03*
X508000Y25400D03*
X508000Y50800D03*
X508000Y76200D03*
X508000Y101600D03*
X508000Y127000D03*
X508000Y152400D03*
X508000Y177800D03*
X508000Y203200D03*
X533400Y25400D03*
X533400Y50800D03*
X533400Y76200D03*
X533400Y101600D03*
X533400Y127000D03*
X533400Y152400D03*
X533400Y177800D03*
X533400Y203200D03*
X558800Y25400D03*
X558800Y50800D03*
X558800Y76200D03*
X558800Y101600D03*
X558800Y127000D03*
X558800Y152400D03*
X558800Y177800D03*
X558800Y203200D03*
X584200Y25400D03*
X584200Y50800D03*
X584200Y76200D03*
X584200Y101600D03*
X584200Y127000D03*
X584200Y152400D03*
X584200Y177800D03*
X584200Y203200D03*
X609600Y25400D03*
X609600Y50800D03*
X609600Y76200D03*
X609600Y101600D03*
X609600Y127000D03*
X609600Y152400D03*
X609600Y177800D03*
X609600Y203200D03*
X635000Y25400D03*
X635000Y50800D03*
X635000Y76200D03*
X635000Y101600D03*
X635000Y127000D03*
X635000Y152400D03*
X635000Y177800D03*
X635000Y203200D03*
X660400Y25400D03*
X660400Y50800D03*
X660400Y76200D03*
X660400Y101600D03*
X660400Y127000D03*
X660400Y152400D03*
X660400Y177800D03*
X660400Y203200D03*
X685800Y25400D03*
X685800Y50800D03*
X685800Y76200D03*
X685800Y101600D03*
X685800Y127000D03*
X685800Y152400D03*
X685800Y177800D03*
X685800Y203200D03*
X711200Y25400D03*
X711200Y50800D03*
X711200Y76200D03*
X711200Y101600D03*
X711200Y127000D03*
X711200Y152400D03*
X711200Y177800D03*
X711200Y203200D03*
X736600Y25400D03*
X736600Y50800D03*
X736600Y76200D03*
X736600Y101600D03*
X736600Y127000D03*
X736600Y152400D03*
X736600Y177800D03*
X736600Y203200D03*
X812800Y25400D03*
X812800Y50800D03*
X812800Y76200D03*
X812800Y101600D03*
X812800Y127000D03*
X812800Y152400D03*
X812800Y177800D03*
X812800Y203200D03*
X457200Y25400D03*
X457200Y50800D03*
X457200Y76200D03*
X457200Y101600D03*
X457200Y127000D03*
X457200Y152400D03*
X457200Y177800D03*
X457200Y203200D03*
X787400Y25400D03*
X787400Y50800D03*
X787400Y76200D03*
X787400Y101600D03*
X787400Y127000D03*
X787400Y152400D03*
X787400Y177800D03*
X787400Y203200D03*
X431800Y25400D03*
X431800Y50800D03*
X431800Y76200D03*
X431800Y101600D03*
X431800Y127000D03*
X431800Y152400D03*
X431800Y177800D03*
X431800Y203200D03*
D25*
X70150Y653750D02*
X53670Y653750D01*
X70150Y653750D02*
X76200Y647700D01*
D26*
X76200Y647700D03*
D25*
X38100Y406400D02*
X50800Y393700D01*
X50800Y355600D01*
X53670Y679750D02*
X82250Y679750D01*
X88900Y673100D01*
X88900Y625405D01*
X38100Y574605D02*
X38100Y558400D01*
X38100Y574605D02*
X88900Y625405D01*
X38100Y508400D02*
X38100Y431800D01*
X38100Y533400D02*
X83312Y578612D01*
X83312Y611915D01*
X106962Y635565D01*
X106962Y638040D02*
X111261Y642338D01*
X106962Y638040D02*
X106962Y635565D01*
X38100Y146780D02*
X38100Y12192D01*
X38100Y146780D02*
X12446Y172434D01*
X111261Y642338D02*
X150682Y642338D01*
X12446Y362426D02*
X12446Y172434D01*
X83312Y433292D02*
X83312Y578612D01*
X170720Y622300D02*
X177800Y622300D01*
X170720Y622300D02*
X150682Y642338D01*
X38100Y12192D02*
X418592Y12192D01*
X431800Y25400D01*
D26*
X83312Y433292D03*
X12446Y362426D03*
D25*
X127000Y622300D02*
X114300Y635000D01*
X114300Y736600D02*
X177800Y736600D01*
X203200Y711200D01*
X292100Y622300D01*
X398128Y622300D01*
X408288Y632460D01*
X454660Y632460D01*
X469900Y647700D02*
X495300Y647700D01*
X469900Y647700D02*
X454660Y632460D01*
X495300Y647700D02*
X495300Y723900D01*
X609600Y838200D02*
X609600Y927100D01*
X546100Y927100D01*
X368300Y317500D02*
X368300Y292100D01*
X546100Y241300D02*
X660400Y241300D01*
X685800Y266700D01*
X685800Y368300D02*
X660400Y393700D01*
X723900Y393700D01*
X749300Y393700D01*
X800100Y342900D01*
D26*
X685800Y368300D03*
X685800Y266700D03*
X228600Y292100D03*
X368300Y292100D03*
X114300Y635000D03*
D25*
X660400Y241300D02*
X698500Y203200D01*
X812800Y203200D01*
X812800Y177800D01*
X812800Y152400D01*
X812800Y127000D01*
X812800Y101600D01*
X812800Y76200D01*
X812800Y50800D01*
X812800Y25400D01*
D26*
X495300Y723900D03*
D25*
X88900Y292100D02*
X50800Y330200D01*
X88900Y292100D02*
X88900Y228600D01*
X101600Y215900D01*
D26*
X101600Y215900D03*
D25*
X114300Y609600D02*
X127000Y622300D01*
X114300Y609600D02*
X88900Y609600D01*
X88900Y438082D02*
X90650Y436332D01*
X90650Y430253D01*
X88900Y438082D02*
X88900Y609600D01*
X50800Y337280D02*
X50800Y330200D01*
X50800Y337280D02*
X63754Y350234D01*
X63754Y403357D01*
X90650Y430253D01*
X114300Y762000D02*
X139700Y787400D01*
X177800Y787400D01*
X406400Y660400D02*
X419100Y647700D01*
X406400Y660400D02*
X406400Y686200D01*
X329800Y686200D01*
X304800Y711200D01*
X304800Y660400D01*
X292100Y647700D01*
X482600Y406400D02*
X419100Y342900D01*
X482600Y406400D02*
X622300Y406400D01*
X622300Y635000D01*
X558800Y635000D01*
X558800Y482600D02*
X520700Y444500D01*
X495300Y444500D01*
X50800Y254000D02*
X25400Y254000D01*
D26*
X215900Y444500D03*
D25*
X127000Y444500D01*
D26*
X127000Y444500D03*
X76200Y393700D03*
D25*
X76200Y355600D01*
D26*
X76200Y355600D03*
D25*
X50800Y279400D02*
X25400Y279400D01*
X495300Y546100D02*
X546100Y596900D01*
X596900Y596900D01*
D26*
X596900Y596900D03*
X660400Y647700D03*
D25*
X698500Y647700D01*
X711200Y635000D01*
D26*
X711200Y635000D03*
X76200Y63500D03*
D25*
X76200Y254000D01*
X50800Y279400D01*
X495300Y368300D02*
X596900Y368300D01*
X622300Y342900D01*
X734712Y281940D02*
X740664Y287892D01*
X740664Y296308D01*
X654812Y289785D02*
X654812Y310388D01*
X654812Y289785D02*
X662657Y281940D01*
X734712Y281940D01*
X740664Y296308D02*
X723900Y313072D01*
X723900Y317500D01*
X654812Y310388D02*
X622300Y342900D01*
X609600Y393700D02*
X495300Y393700D01*
X609600Y393700D02*
X660400Y342900D01*
X660400Y292100D01*
X723900Y292100D01*
X838200Y241300D02*
X838200Y381000D01*
X800100Y419100D01*
X800100Y241300D02*
X812800Y241300D01*
X711200Y800500D02*
X711200Y838200D01*
X711200Y800500D02*
X685400Y774700D01*
X774700Y546100D02*
X800100Y520700D01*
X774700Y546100D02*
X774700Y660400D01*
X599440Y848360D02*
X546100Y901700D01*
X762254Y672846D02*
X774700Y660400D01*
X762254Y672846D02*
X756634Y672846D01*
X599440Y830040D01*
X599440Y848360D01*
X593852Y828548D02*
X546100Y876300D01*
X800100Y499728D02*
X800100Y495300D01*
X593852Y800556D02*
X593852Y828548D01*
X769112Y530716D02*
X800100Y499728D01*
X769112Y530716D02*
X769112Y625296D01*
X593852Y800556D01*
X762000Y508000D02*
X800100Y469900D01*
X762000Y624505D02*
X588264Y798241D01*
X588264Y808736D02*
X546100Y850900D01*
X588264Y808736D02*
X588264Y798241D01*
X762000Y624505D02*
X762000Y508000D01*
X749300Y495300D02*
X800100Y444500D01*
X749300Y495300D02*
X749300Y622300D01*
X546100Y825500D01*
X546100Y342900D02*
X495300Y342900D01*
X292100Y139700D01*
X292100Y63500D01*
X246920Y63500D01*
X246666Y63246D01*
X235934Y63246D01*
X222980Y76200D01*
X190500Y76200D01*
X495300Y317500D02*
X558800Y317500D01*
X584200Y342900D01*
X495300Y317500D02*
X304800Y127000D01*
X304800Y50800D01*
X271780Y17780D01*
X139700Y17780D01*
X114300Y43180D01*
X114300Y76200D01*
X165100Y76200D01*
X254000Y190500D02*
X254000Y457200D01*
D26*
X254000Y190500D03*
D25*
X254000Y457200D02*
X419100Y622300D01*
X402336Y575708D02*
X402336Y567436D01*
X292100Y457200D01*
X419100Y592472D02*
X419100Y596900D01*
X419100Y592472D02*
X402336Y575708D01*
X292100Y457200D02*
X292100Y177800D01*
D26*
X292100Y177800D03*
X342900Y114300D03*
D25*
X342900Y19530D01*
X342900Y17780D01*
D26*
X342900Y19530D03*
X101600Y63500D03*
X139700Y139700D03*
D25*
X114300Y139700D01*
D26*
X114300Y139700D03*
X114300Y101600D03*
D25*
X108712Y70612D02*
X101600Y63500D01*
X108712Y70612D02*
X108712Y78515D01*
X114300Y84103D02*
X114300Y101600D01*
X114300Y84103D02*
X108712Y78515D01*
X159480Y177800D02*
X165100Y177800D01*
X159480Y177800D02*
X152146Y185134D01*
X152146Y322866D01*
X152400Y323120D01*
X152400Y393700D01*
X177800Y419100D01*
D26*
X177800Y419100D03*
X139700Y88900D03*
D25*
X88900Y139700D01*
D26*
X88900Y139700D03*
X279400Y114300D03*
D25*
X279400Y469900D01*
X330200Y520700D01*
D26*
X330200Y520700D03*
X266700Y165100D03*
D25*
X266700Y444500D01*
D26*
X266700Y444500D03*
X228600Y139700D03*
D25*
X221262Y289061D02*
X221262Y295140D01*
X228600Y281723D02*
X228600Y139700D01*
X228600Y302478D02*
X228600Y571500D01*
X221262Y289061D02*
X228600Y281723D01*
X221262Y295140D02*
X228600Y302478D01*
X228600Y571500D02*
X292100Y571500D01*
X139700Y234220D02*
X139954Y233966D01*
X139954Y164846D02*
X165100Y152400D01*
X139954Y164846D02*
X139954Y233966D01*
X139700Y234220D02*
X139700Y393700D01*
D26*
X139700Y393700D03*
D25*
X393700Y342900D02*
X419100Y368300D01*
X393700Y342900D02*
X393700Y292100D01*
X342900Y241300D01*
D26*
X342900Y241300D03*
D25*
X127000Y266700D02*
X127000Y342900D01*
D26*
X127000Y342900D03*
X127000Y266700D03*
X114300Y457200D03*
D25*
X121638Y384040D02*
X121638Y377961D01*
X114300Y391378D02*
X114300Y457200D01*
X114300Y391378D02*
X121638Y384040D01*
X114300Y370623D02*
X114300Y304800D01*
X114300Y370623D02*
X121638Y377961D01*
D26*
X114300Y304800D03*
X419100Y279400D03*
D25*
X406400Y266700D01*
X381000Y266700D01*
D26*
X381000Y266700D03*
X215900Y266700D03*
D25*
X215900Y279400D01*
X190500Y304800D01*
X165100Y101600D02*
X139700Y101600D01*
X101600Y139700D01*
X108938Y212861D02*
X108938Y218940D01*
X101600Y205523D02*
X101600Y139700D01*
X101600Y205523D02*
X108938Y212861D01*
X108938Y218940D02*
X101600Y226278D01*
X101600Y304800D02*
X88900Y317500D01*
X88900Y355600D01*
X114300Y381000D01*
X101600Y304800D02*
X101600Y226278D01*
D26*
X114300Y381000D03*
D25*
X228600Y101600D02*
X241300Y88900D01*
X228600Y101600D02*
X190500Y101600D01*
X660400Y571500D02*
X723900Y571500D01*
X723900Y546100D02*
X660400Y546100D01*
X660400Y520700D02*
X723900Y520700D01*
X723900Y495300D02*
X660400Y495300D01*
X660400Y469900D02*
X723900Y469900D01*
X723900Y444500D02*
X660400Y444500D01*
X660400Y419100D02*
X723900Y419100D01*
M02*
