G04 EAGLE Gerber RS-274X export*
G75*
%MOMM*%
%FSLAX34Y34*%
%LPD*%
%INBottom Soldermask*%
%IPPOS*%
%AMOC8*
5,1,8,0,0,1.08239X$1,22.5*%
G01*
%ADD10C,3.378200*%
%ADD11C,1.524000*%
%ADD12C,2.078200*%
%ADD13C,2.453200*%
%ADD14C,2.082800*%
%ADD15C,1.611200*%
%ADD16P,1.649562X8X112.500000*%
%ADD17C,1.711200*%
%ADD18P,1.649562X8X202.500000*%
%ADD19C,1.524000*%
%ADD20P,1.649562X8X22.500000*%
%ADD21P,1.649562X8X292.500000*%
%ADD22R,1.311200X1.311200*%
%ADD23P,2.254402X8X112.500000*%
%ADD24C,0.959600*%


D10*
X25400Y952500D03*
X25400Y787400D03*
X965200Y952500D03*
X965200Y787400D03*
D11*
X425704Y647700D02*
X412496Y647700D01*
X412496Y622300D02*
X425704Y622300D01*
X425704Y596900D02*
X412496Y596900D01*
X412496Y571500D02*
X425704Y571500D01*
X425704Y546100D02*
X412496Y546100D01*
X412496Y520700D02*
X425704Y520700D01*
X425704Y495300D02*
X412496Y495300D01*
X412496Y469900D02*
X425704Y469900D01*
X425704Y444500D02*
X412496Y444500D01*
X412496Y419100D02*
X425704Y419100D01*
X425704Y393700D02*
X412496Y393700D01*
X412496Y368300D02*
X425704Y368300D01*
X425704Y342900D02*
X412496Y342900D01*
X412496Y317500D02*
X425704Y317500D01*
X488696Y317500D02*
X501904Y317500D01*
X501904Y342900D02*
X488696Y342900D01*
X488696Y368300D02*
X501904Y368300D01*
X501904Y393700D02*
X488696Y393700D01*
X488696Y419100D02*
X501904Y419100D01*
X501904Y444500D02*
X488696Y444500D01*
X488696Y469900D02*
X501904Y469900D01*
X501904Y495300D02*
X488696Y495300D01*
X488696Y520700D02*
X501904Y520700D01*
X501904Y546100D02*
X488696Y546100D01*
X488696Y571500D02*
X501904Y571500D01*
X501904Y596900D02*
X488696Y596900D01*
X488696Y622300D02*
X501904Y622300D01*
X501904Y647700D02*
X488696Y647700D01*
D12*
X53670Y691750D03*
X53670Y641750D03*
D13*
X26670Y701750D03*
X26670Y631750D03*
D14*
X38100Y406400D03*
X38100Y431800D03*
X127000Y622300D03*
X152400Y622300D03*
X177800Y622300D03*
X203200Y622300D03*
D15*
X38100Y533400D03*
X38100Y508400D03*
X38100Y558400D03*
D16*
X114300Y736600D03*
X114300Y762000D03*
X177800Y685800D03*
X177800Y787400D03*
D14*
X292100Y647700D03*
X292100Y622300D03*
X292100Y596900D03*
X292100Y571500D03*
X292100Y546100D03*
D17*
X406400Y736200D03*
X406400Y686200D03*
D18*
X304800Y711200D03*
X203200Y711200D03*
X558800Y635000D03*
X533400Y635000D03*
X368300Y317500D03*
X342900Y317500D03*
D19*
X558800Y482600D03*
D20*
X609600Y482600D03*
D14*
X25400Y304800D03*
X25400Y279400D03*
X25400Y254000D03*
X25400Y228600D03*
X25400Y203200D03*
X25400Y177800D03*
X50800Y355600D03*
X50800Y330200D03*
X50800Y304800D03*
X50800Y279400D03*
X50800Y254000D03*
X50800Y228600D03*
X50800Y203200D03*
D11*
X717296Y596900D02*
X730504Y596900D01*
X730504Y571500D02*
X717296Y571500D01*
X717296Y546100D02*
X730504Y546100D01*
X730504Y520700D02*
X717296Y520700D01*
X717296Y495300D02*
X730504Y495300D01*
X730504Y469900D02*
X717296Y469900D01*
X717296Y444500D02*
X730504Y444500D01*
X730504Y419100D02*
X717296Y419100D01*
X717296Y393700D02*
X730504Y393700D01*
X730504Y368300D02*
X717296Y368300D01*
X717296Y342900D02*
X730504Y342900D01*
X730504Y317500D02*
X717296Y317500D01*
X717296Y292100D02*
X730504Y292100D01*
X730504Y266700D02*
X717296Y266700D01*
X793496Y266700D02*
X806704Y266700D01*
X806704Y292100D02*
X793496Y292100D01*
X793496Y317500D02*
X806704Y317500D01*
X806704Y342900D02*
X793496Y342900D01*
X793496Y368300D02*
X806704Y368300D01*
X806704Y393700D02*
X793496Y393700D01*
X793496Y419100D02*
X806704Y419100D01*
X806704Y444500D02*
X793496Y444500D01*
X793496Y469900D02*
X806704Y469900D01*
X806704Y495300D02*
X793496Y495300D01*
X793496Y520700D02*
X806704Y520700D01*
X806704Y546100D02*
X793496Y546100D01*
X793496Y571500D02*
X806704Y571500D01*
X806704Y596900D02*
X793496Y596900D01*
D21*
X660400Y393700D03*
X660400Y368300D03*
X622300Y342900D03*
X622300Y241300D03*
X660400Y342900D03*
X660400Y241300D03*
D18*
X838200Y241300D03*
X812800Y241300D03*
D20*
X698500Y241300D03*
X800100Y241300D03*
D18*
X711200Y838200D03*
X609600Y838200D03*
D17*
X635400Y774700D03*
X685400Y774700D03*
D22*
X469900Y952500D03*
X469900Y927100D03*
X469900Y901700D03*
X469900Y876300D03*
X469900Y850900D03*
X469900Y825500D03*
X469900Y800100D03*
X546100Y800100D03*
X546100Y825500D03*
X546100Y850900D03*
X546100Y876300D03*
X546100Y901700D03*
X546100Y927100D03*
X546100Y952500D03*
D14*
X419100Y889000D03*
X419100Y914400D03*
X419100Y825500D03*
X419100Y850900D03*
D23*
X165100Y50800D03*
X190500Y50800D03*
X165100Y76200D03*
X190500Y76200D03*
X165100Y101600D03*
X190500Y101600D03*
X165100Y127000D03*
X190500Y127000D03*
X165100Y152400D03*
X190500Y152400D03*
X165100Y177800D03*
X190500Y177800D03*
X165100Y203200D03*
X190500Y203200D03*
X165100Y228600D03*
X190500Y228600D03*
X165100Y254000D03*
X190500Y254000D03*
X165100Y279400D03*
X190500Y279400D03*
X165100Y304800D03*
X190500Y304800D03*
X165100Y330200D03*
X190500Y330200D03*
D21*
X584200Y342900D03*
X584200Y241300D03*
X546100Y342900D03*
X546100Y241300D03*
D14*
X127000Y241300D03*
X317500Y215900D03*
X241300Y88900D03*
X660400Y571500D03*
X660400Y546100D03*
X660400Y520700D03*
X660400Y495300D03*
X660400Y469900D03*
X660400Y444500D03*
X660400Y419100D03*
X838200Y596900D03*
X838200Y571500D03*
X838200Y546100D03*
X508000Y25400D03*
X508000Y50800D03*
X508000Y76200D03*
X508000Y101600D03*
X508000Y127000D03*
X508000Y152400D03*
X508000Y177800D03*
X508000Y203200D03*
X533400Y25400D03*
X533400Y50800D03*
X533400Y76200D03*
X533400Y101600D03*
X533400Y127000D03*
X533400Y152400D03*
X533400Y177800D03*
X533400Y203200D03*
X558800Y25400D03*
X558800Y50800D03*
X558800Y76200D03*
X558800Y101600D03*
X558800Y127000D03*
X558800Y152400D03*
X558800Y177800D03*
X558800Y203200D03*
X584200Y25400D03*
X584200Y50800D03*
X584200Y76200D03*
X584200Y101600D03*
X584200Y127000D03*
X584200Y152400D03*
X584200Y177800D03*
X584200Y203200D03*
X609600Y25400D03*
X609600Y50800D03*
X609600Y76200D03*
X609600Y101600D03*
X609600Y127000D03*
X609600Y152400D03*
X609600Y177800D03*
X609600Y203200D03*
X635000Y25400D03*
X635000Y50800D03*
X635000Y76200D03*
X635000Y101600D03*
X635000Y127000D03*
X635000Y152400D03*
X635000Y177800D03*
X635000Y203200D03*
X660400Y25400D03*
X660400Y50800D03*
X660400Y76200D03*
X660400Y101600D03*
X660400Y127000D03*
X660400Y152400D03*
X660400Y177800D03*
X660400Y203200D03*
X685800Y25400D03*
X685800Y50800D03*
X685800Y76200D03*
X685800Y101600D03*
X685800Y127000D03*
X685800Y152400D03*
X685800Y177800D03*
X685800Y203200D03*
X711200Y25400D03*
X711200Y50800D03*
X711200Y76200D03*
X711200Y101600D03*
X711200Y127000D03*
X711200Y152400D03*
X711200Y177800D03*
X711200Y203200D03*
X736600Y25400D03*
X736600Y50800D03*
X736600Y76200D03*
X736600Y101600D03*
X736600Y127000D03*
X736600Y152400D03*
X736600Y177800D03*
X736600Y203200D03*
X812800Y25400D03*
X812800Y50800D03*
X812800Y76200D03*
X812800Y101600D03*
X812800Y127000D03*
X812800Y152400D03*
X812800Y177800D03*
X812800Y203200D03*
X457200Y25400D03*
X457200Y50800D03*
X457200Y76200D03*
X457200Y101600D03*
X457200Y127000D03*
X457200Y152400D03*
X457200Y177800D03*
X457200Y203200D03*
X787400Y25400D03*
X787400Y50800D03*
X787400Y76200D03*
X787400Y101600D03*
X787400Y127000D03*
X787400Y152400D03*
X787400Y177800D03*
X787400Y203200D03*
X431800Y25400D03*
X431800Y50800D03*
X431800Y76200D03*
X431800Y101600D03*
X431800Y127000D03*
X431800Y152400D03*
X431800Y177800D03*
X431800Y203200D03*
D24*
X76200Y647700D03*
X83312Y433292D03*
X12446Y362426D03*
X685800Y368300D03*
X685800Y266700D03*
X228600Y292100D03*
X368300Y292100D03*
X114300Y635000D03*
X495300Y723900D03*
X101600Y215900D03*
X215900Y444500D03*
X127000Y444500D03*
X76200Y393700D03*
X76200Y355600D03*
X596900Y596900D03*
X660400Y647700D03*
X711200Y635000D03*
X76200Y63500D03*
X254000Y190500D03*
X292100Y177800D03*
X342900Y114300D03*
X342900Y19530D03*
X101600Y63500D03*
X139700Y139700D03*
X114300Y139700D03*
X114300Y101600D03*
X177800Y419100D03*
X139700Y88900D03*
X88900Y139700D03*
X279400Y114300D03*
X330200Y520700D03*
X266700Y165100D03*
X266700Y444500D03*
X228600Y139700D03*
X139700Y393700D03*
X342900Y241300D03*
X127000Y342900D03*
X127000Y266700D03*
X114300Y457200D03*
X114300Y304800D03*
X419100Y279400D03*
X381000Y266700D03*
X215900Y266700D03*
X114300Y381000D03*
M02*
