G75*
%MOIN*%
%OFA0B0*%
%FSLAX25Y25*%
%IPPOS*%
%LPD*%
%AMOC8*
5,1,8,0,0,1.08239X$1,22.5*
%
%ADD10C,0.00800*%
D10*
X0061681Y0019300D02*
X0061681Y0024300D01*
X0063000Y0024300D02*
X0063000Y0019300D01*
X0065500Y0016800D01*
X0080500Y0016800D01*
X0083000Y0019300D01*
X0083000Y0024300D01*
X0080500Y0026800D01*
X0065500Y0026800D01*
X0063000Y0029300D01*
X0063000Y0034300D01*
X0065500Y0036800D01*
X0080500Y0036800D01*
X0083000Y0039300D01*
X0083000Y0044300D01*
X0080500Y0046800D01*
X0083000Y0049300D01*
X0083000Y0054300D01*
X0080500Y0056800D01*
X0065500Y0056800D01*
X0063000Y0059300D01*
X0063000Y0064300D01*
X0065500Y0066800D01*
X0080500Y0066800D01*
X0083000Y0069300D01*
X0083000Y0074300D01*
X0080500Y0076800D01*
X0083000Y0079300D01*
X0083000Y0084300D01*
X0080500Y0086800D01*
X0065500Y0086800D01*
X0063000Y0089300D01*
X0063000Y0094300D01*
X0065500Y0096800D01*
X0080500Y0096800D01*
X0083000Y0099300D01*
X0083000Y0104300D01*
X0080500Y0106800D01*
X0083000Y0109300D01*
X0083000Y0114300D01*
X0080500Y0116800D01*
X0065500Y0116800D01*
X0063000Y0119300D01*
X0063000Y0124300D01*
X0065500Y0126800D01*
X0080500Y0126800D01*
X0083000Y0129300D01*
X0083000Y0134300D01*
X0080500Y0136800D01*
X0065500Y0136800D01*
X0063000Y0134300D01*
X0063000Y0129300D01*
X0065500Y0126800D01*
X0065500Y0116800D02*
X0063000Y0114300D01*
X0063000Y0109300D01*
X0065500Y0106800D01*
X0080500Y0106800D01*
X0080500Y0096800D02*
X0083000Y0094300D01*
X0083000Y0089300D01*
X0080500Y0086800D01*
X0080500Y0076800D02*
X0065500Y0076800D01*
X0063000Y0079300D01*
X0063000Y0084300D01*
X0065500Y0086800D01*
X0065500Y0076800D02*
X0063000Y0074300D01*
X0063000Y0069300D01*
X0065500Y0066800D01*
X0065500Y0056800D02*
X0063000Y0054300D01*
X0063000Y0049300D01*
X0065500Y0046800D01*
X0080500Y0046800D01*
X0080500Y0036800D02*
X0083000Y0034300D01*
X0083000Y0029300D01*
X0080500Y0026800D01*
X0065500Y0026800D02*
X0063000Y0024300D01*
X0065500Y0036800D02*
X0063000Y0039300D01*
X0063000Y0044300D01*
X0065500Y0046800D01*
X0080500Y0056800D02*
X0083000Y0059300D01*
X0083000Y0064300D01*
X0080500Y0066800D01*
X0065500Y0096800D02*
X0063000Y0099300D01*
X0063000Y0104300D01*
X0065500Y0106800D01*
X0080500Y0116800D02*
X0083000Y0119300D01*
X0083000Y0124300D01*
X0080500Y0126800D01*
X0115500Y0211800D02*
X0120500Y0211800D01*
X0123000Y0214300D01*
X0123000Y0219300D01*
X0120500Y0221800D01*
X0123000Y0224300D01*
X0123000Y0229300D01*
X0120500Y0231800D01*
X0123000Y0234300D01*
X0123000Y0239300D01*
X0120500Y0241800D01*
X0123000Y0244300D01*
X0123000Y0249300D01*
X0120500Y0251800D01*
X0123000Y0254300D01*
X0123000Y0259300D01*
X0120500Y0261800D01*
X0115500Y0261800D01*
X0113000Y0259300D01*
X0113000Y0254300D01*
X0115500Y0251800D01*
X0113000Y0249300D01*
X0113000Y0244300D01*
X0115500Y0241800D01*
X0113000Y0239300D01*
X0113000Y0234300D01*
X0115500Y0231800D01*
X0113000Y0229300D01*
X0113000Y0224300D01*
X0115500Y0221800D01*
X0113000Y0219300D01*
X0113000Y0214300D01*
X0115500Y0211800D01*
M02*
