G75*
%MOIN*%
%OFA0B0*%
%FSLAX25Y25*%
%IPPOS*%
%LPD*%
%AMOC8*
5,1,8,0,0,1.08239X$1,22.5*
%
%ADD10C,0.13300*%
%ADD11C,0.06000*%
%ADD12C,0.08182*%
%ADD13C,0.09658*%
%ADD14C,0.08200*%
%ADD15C,0.06343*%
%ADD16OC8,0.06000*%
%ADD17C,0.06737*%
%ADD18C,0.06000*%
%ADD19R,0.05162X0.05162*%
%ADD20OC8,0.08200*%
%ADD21C,0.03778*%
D10*
X0013000Y0311800D03*
X0013000Y0376800D03*
X0383000Y0376800D03*
X0383000Y0311800D03*
D11*
X0320600Y0236800D02*
X0315400Y0236800D01*
X0315400Y0226800D02*
X0320600Y0226800D01*
X0320600Y0216800D02*
X0315400Y0216800D01*
X0315400Y0206800D02*
X0320600Y0206800D01*
X0320600Y0196800D02*
X0315400Y0196800D01*
X0315400Y0186800D02*
X0320600Y0186800D01*
X0320600Y0176800D02*
X0315400Y0176800D01*
X0315400Y0166800D02*
X0320600Y0166800D01*
X0320600Y0156800D02*
X0315400Y0156800D01*
X0315400Y0146800D02*
X0320600Y0146800D01*
X0320600Y0136800D02*
X0315400Y0136800D01*
X0315400Y0126800D02*
X0320600Y0126800D01*
X0320600Y0116800D02*
X0315400Y0116800D01*
X0315400Y0106800D02*
X0320600Y0106800D01*
X0290600Y0106800D02*
X0285400Y0106800D01*
X0285400Y0116800D02*
X0290600Y0116800D01*
X0290600Y0126800D02*
X0285400Y0126800D01*
X0285400Y0136800D02*
X0290600Y0136800D01*
X0290600Y0146800D02*
X0285400Y0146800D01*
X0285400Y0156800D02*
X0290600Y0156800D01*
X0290600Y0166800D02*
X0285400Y0166800D01*
X0285400Y0176800D02*
X0290600Y0176800D01*
X0290600Y0186800D02*
X0285400Y0186800D01*
X0285400Y0196800D02*
X0290600Y0196800D01*
X0290600Y0206800D02*
X0285400Y0206800D01*
X0285400Y0216800D02*
X0290600Y0216800D01*
X0290600Y0226800D02*
X0285400Y0226800D01*
X0285400Y0236800D02*
X0290600Y0236800D01*
X0200600Y0236800D02*
X0195400Y0236800D01*
X0195400Y0246800D02*
X0200600Y0246800D01*
X0200600Y0256800D02*
X0195400Y0256800D01*
X0170600Y0256800D02*
X0165400Y0256800D01*
X0165400Y0246800D02*
X0170600Y0246800D01*
X0170600Y0236800D02*
X0165400Y0236800D01*
X0165400Y0226800D02*
X0170600Y0226800D01*
X0170600Y0216800D02*
X0165400Y0216800D01*
X0165400Y0206800D02*
X0170600Y0206800D01*
X0170600Y0196800D02*
X0165400Y0196800D01*
X0165400Y0186800D02*
X0170600Y0186800D01*
X0170600Y0176800D02*
X0165400Y0176800D01*
X0165400Y0166800D02*
X0170600Y0166800D01*
X0170600Y0156800D02*
X0165400Y0156800D01*
X0165400Y0146800D02*
X0170600Y0146800D01*
X0170600Y0136800D02*
X0165400Y0136800D01*
X0165400Y0126800D02*
X0170600Y0126800D01*
X0195400Y0126800D02*
X0200600Y0126800D01*
X0200600Y0136800D02*
X0195400Y0136800D01*
X0195400Y0146800D02*
X0200600Y0146800D01*
X0200600Y0156800D02*
X0195400Y0156800D01*
X0195400Y0166800D02*
X0200600Y0166800D01*
X0200600Y0176800D02*
X0195400Y0176800D01*
X0195400Y0186800D02*
X0200600Y0186800D01*
X0200600Y0196800D02*
X0195400Y0196800D01*
X0195400Y0206800D02*
X0200600Y0206800D01*
X0200600Y0216800D02*
X0195400Y0216800D01*
X0195400Y0226800D02*
X0200600Y0226800D01*
D12*
X0024130Y0254457D03*
X0024130Y0274143D03*
D13*
X0013500Y0278080D03*
X0013500Y0250520D03*
D14*
X0053000Y0246800D03*
X0063000Y0246800D03*
X0073000Y0246800D03*
X0083000Y0246800D03*
X0118000Y0246800D03*
X0118000Y0236800D03*
X0118000Y0226800D03*
X0118000Y0216800D03*
X0118000Y0256800D03*
X0168000Y0326800D03*
X0168000Y0336800D03*
X0168000Y0351800D03*
X0168000Y0361800D03*
X0263000Y0226800D03*
X0263000Y0216800D03*
X0263000Y0206800D03*
X0263000Y0196800D03*
X0263000Y0186800D03*
X0263000Y0176800D03*
X0263000Y0166800D03*
X0333000Y0216800D03*
X0333000Y0226800D03*
X0333000Y0236800D03*
X0323000Y0081800D03*
X0323000Y0071800D03*
X0313000Y0071800D03*
X0313000Y0081800D03*
X0313000Y0061800D03*
X0323000Y0061800D03*
X0323000Y0051800D03*
X0323000Y0041800D03*
X0313000Y0041800D03*
X0313000Y0051800D03*
X0313000Y0031800D03*
X0313000Y0021800D03*
X0323000Y0021800D03*
X0323000Y0031800D03*
X0323000Y0011800D03*
X0313000Y0011800D03*
X0293000Y0011800D03*
X0293000Y0021800D03*
X0293000Y0031800D03*
X0293000Y0041800D03*
X0293000Y0051800D03*
X0293000Y0061800D03*
X0293000Y0071800D03*
X0293000Y0081800D03*
X0283000Y0081800D03*
X0283000Y0071800D03*
X0273000Y0071800D03*
X0273000Y0081800D03*
X0263000Y0081800D03*
X0263000Y0071800D03*
X0253000Y0071800D03*
X0253000Y0081800D03*
X0243000Y0081800D03*
X0243000Y0071800D03*
X0233000Y0071800D03*
X0233000Y0081800D03*
X0223000Y0081800D03*
X0223000Y0071800D03*
X0213000Y0071800D03*
X0213000Y0081800D03*
X0203000Y0081800D03*
X0203000Y0071800D03*
X0203000Y0061800D03*
X0203000Y0051800D03*
X0203000Y0041800D03*
X0203000Y0031800D03*
X0203000Y0021800D03*
X0203000Y0011800D03*
X0213000Y0011800D03*
X0223000Y0011800D03*
X0223000Y0021800D03*
X0223000Y0031800D03*
X0213000Y0031800D03*
X0213000Y0021800D03*
X0213000Y0041800D03*
X0213000Y0051800D03*
X0223000Y0051800D03*
X0223000Y0041800D03*
X0233000Y0041800D03*
X0233000Y0051800D03*
X0243000Y0051800D03*
X0243000Y0041800D03*
X0243000Y0031800D03*
X0243000Y0021800D03*
X0233000Y0021800D03*
X0233000Y0031800D03*
X0233000Y0011800D03*
X0243000Y0011800D03*
X0253000Y0011800D03*
X0263000Y0011800D03*
X0263000Y0021800D03*
X0263000Y0031800D03*
X0253000Y0031800D03*
X0253000Y0021800D03*
X0253000Y0041800D03*
X0253000Y0051800D03*
X0263000Y0051800D03*
X0263000Y0041800D03*
X0273000Y0041800D03*
X0273000Y0051800D03*
X0283000Y0051800D03*
X0283000Y0041800D03*
X0283000Y0031800D03*
X0283000Y0021800D03*
X0273000Y0021800D03*
X0273000Y0031800D03*
X0273000Y0011800D03*
X0283000Y0011800D03*
X0283000Y0061800D03*
X0273000Y0061800D03*
X0263000Y0061800D03*
X0253000Y0061800D03*
X0243000Y0061800D03*
X0233000Y0061800D03*
X0223000Y0061800D03*
X0213000Y0061800D03*
X0183000Y0061800D03*
X0173000Y0061800D03*
X0173000Y0051800D03*
X0173000Y0041800D03*
X0183000Y0041800D03*
X0183000Y0051800D03*
X0183000Y0031800D03*
X0183000Y0021800D03*
X0173000Y0021800D03*
X0173000Y0031800D03*
X0173000Y0011800D03*
X0183000Y0011800D03*
X0183000Y0071800D03*
X0183000Y0081800D03*
X0173000Y0081800D03*
X0173000Y0071800D03*
X0128000Y0086800D03*
X0098000Y0036800D03*
X0053000Y0096800D03*
X0023000Y0091800D03*
X0023000Y0101800D03*
X0013000Y0101800D03*
X0013000Y0091800D03*
X0013000Y0081800D03*
X0013000Y0071800D03*
X0023000Y0081800D03*
X0023000Y0111800D03*
X0023000Y0121800D03*
X0013000Y0121800D03*
X0013000Y0111800D03*
X0023000Y0131800D03*
X0023000Y0141800D03*
X0018000Y0161800D03*
X0018000Y0171800D03*
D15*
X0018000Y0201957D03*
X0018000Y0211800D03*
X0018000Y0221643D03*
D16*
X0073000Y0271800D03*
X0083000Y0281800D03*
X0073000Y0311800D03*
X0048000Y0301800D03*
X0048000Y0291800D03*
X0123000Y0281800D03*
X0213000Y0251800D03*
X0223000Y0251800D03*
X0243000Y0191800D03*
X0263000Y0156800D03*
X0263000Y0146800D03*
X0263000Y0136800D03*
X0248000Y0136800D03*
X0233000Y0136800D03*
X0218000Y0136800D03*
X0218000Y0096800D03*
X0233000Y0096800D03*
X0248000Y0096800D03*
X0263000Y0096800D03*
X0278000Y0096800D03*
X0318000Y0096800D03*
X0323000Y0096800D03*
X0333000Y0096800D03*
X0148000Y0126800D03*
X0138000Y0126800D03*
X0243000Y0331800D03*
X0283000Y0331800D03*
D17*
X0272843Y0306800D03*
X0253157Y0306800D03*
X0163000Y0291643D03*
X0163000Y0271957D03*
D18*
X0223000Y0191800D03*
D19*
X0218000Y0316800D03*
X0218000Y0326800D03*
X0218000Y0336800D03*
X0218000Y0346800D03*
X0218000Y0356800D03*
X0218000Y0366800D03*
X0218000Y0376800D03*
X0188000Y0376800D03*
X0188000Y0366800D03*
X0188000Y0356800D03*
X0188000Y0346800D03*
X0188000Y0336800D03*
X0188000Y0326800D03*
X0188000Y0316800D03*
D20*
X0078000Y0131800D03*
X0068000Y0131800D03*
X0068000Y0121800D03*
X0068000Y0111800D03*
X0078000Y0111800D03*
X0078000Y0121800D03*
X0078000Y0101800D03*
X0078000Y0091800D03*
X0068000Y0091800D03*
X0068000Y0101800D03*
X0068000Y0081800D03*
X0068000Y0071800D03*
X0078000Y0071800D03*
X0078000Y0081800D03*
X0078000Y0061800D03*
X0068000Y0061800D03*
X0068000Y0051800D03*
X0068000Y0041800D03*
X0078000Y0041800D03*
X0078000Y0051800D03*
X0078000Y0031800D03*
X0078000Y0021800D03*
X0068000Y0021800D03*
X0068000Y0031800D03*
D21*
X0033000Y0026800D03*
X0043000Y0026800D03*
X0048000Y0041800D03*
X0058000Y0036800D03*
X0058000Y0056800D03*
X0048000Y0056800D03*
X0038000Y0056800D03*
X0043000Y0086800D03*
X0053000Y0106800D03*
X0048000Y0121800D03*
X0053000Y0136800D03*
X0048000Y0151800D03*
X0058000Y0156800D03*
X0073000Y0166800D03*
X0088000Y0176800D03*
X0108000Y0176800D03*
X0133000Y0206800D03*
X0053000Y0176800D03*
X0048000Y0181800D03*
X0035800Y0172388D03*
X0033000Y0156800D03*
X0033000Y0141800D03*
X0007900Y0144488D03*
X0088000Y0106800D03*
X0093000Y0116800D03*
X0103000Y0076800D03*
X0108000Y0066800D03*
X0118000Y0071800D03*
X0093000Y0056800D03*
X0113000Y0046800D03*
X0138000Y0046800D03*
X0138000Y0009489D03*
X0138000Y0096800D03*
X0153000Y0106800D03*
X0148000Y0116800D03*
X0168000Y0111800D03*
X0273000Y0106800D03*
X0273000Y0146800D03*
X0238000Y0236800D03*
X0263000Y0256800D03*
X0283000Y0251800D03*
X0198000Y0286800D03*
X0048000Y0251800D03*
X0033000Y0256800D03*
M02*
