G75*
%MOIN*%
%OFA0B0*%
%FSLAX25Y25*%
%IPPOS*%
%LPD*%
%AMOC8*
5,1,8,0,0,1.08239X$1,22.5*
%
%ADD10C,0.05200*%
%ADD11C,0.07382*%
%ADD12C,0.08858*%
%ADD13C,0.07400*%
%ADD14C,0.05543*%
%ADD15OC8,0.05200*%
%ADD16C,0.05937*%
%ADD17C,0.05200*%
%ADD18R,0.04362X0.04362*%
%ADD19OC8,0.07400*%
%ADD20C,0.01600*%
%ADD21C,0.02978*%
D10*
X0165400Y0126800D02*
X0170600Y0126800D01*
X0170600Y0136800D02*
X0165400Y0136800D01*
X0165400Y0146800D02*
X0170600Y0146800D01*
X0170600Y0156800D02*
X0165400Y0156800D01*
X0165400Y0166800D02*
X0170600Y0166800D01*
X0170600Y0176800D02*
X0165400Y0176800D01*
X0165400Y0186800D02*
X0170600Y0186800D01*
X0170600Y0196800D02*
X0165400Y0196800D01*
X0165400Y0206800D02*
X0170600Y0206800D01*
X0170600Y0216800D02*
X0165400Y0216800D01*
X0165400Y0226800D02*
X0170600Y0226800D01*
X0170600Y0236800D02*
X0165400Y0236800D01*
X0165400Y0246800D02*
X0170600Y0246800D01*
X0170600Y0256800D02*
X0165400Y0256800D01*
X0195400Y0256800D02*
X0200600Y0256800D01*
X0200600Y0246800D02*
X0195400Y0246800D01*
X0195400Y0236800D02*
X0200600Y0236800D01*
X0200600Y0226800D02*
X0195400Y0226800D01*
X0195400Y0216800D02*
X0200600Y0216800D01*
X0200600Y0206800D02*
X0195400Y0206800D01*
X0195400Y0196800D02*
X0200600Y0196800D01*
X0200600Y0186800D02*
X0195400Y0186800D01*
X0195400Y0176800D02*
X0200600Y0176800D01*
X0200600Y0166800D02*
X0195400Y0166800D01*
X0195400Y0156800D02*
X0200600Y0156800D01*
X0200600Y0146800D02*
X0195400Y0146800D01*
X0195400Y0136800D02*
X0200600Y0136800D01*
X0200600Y0126800D02*
X0195400Y0126800D01*
X0285400Y0126800D02*
X0290600Y0126800D01*
X0290600Y0116800D02*
X0285400Y0116800D01*
X0285400Y0106800D02*
X0290600Y0106800D01*
X0315400Y0106800D02*
X0320600Y0106800D01*
X0320600Y0116800D02*
X0315400Y0116800D01*
X0315400Y0126800D02*
X0320600Y0126800D01*
X0320600Y0136800D02*
X0315400Y0136800D01*
X0315400Y0146800D02*
X0320600Y0146800D01*
X0320600Y0156800D02*
X0315400Y0156800D01*
X0315400Y0166800D02*
X0320600Y0166800D01*
X0320600Y0176800D02*
X0315400Y0176800D01*
X0315400Y0186800D02*
X0320600Y0186800D01*
X0320600Y0196800D02*
X0315400Y0196800D01*
X0315400Y0206800D02*
X0320600Y0206800D01*
X0320600Y0216800D02*
X0315400Y0216800D01*
X0315400Y0226800D02*
X0320600Y0226800D01*
X0320600Y0236800D02*
X0315400Y0236800D01*
X0290600Y0236800D02*
X0285400Y0236800D01*
X0285400Y0226800D02*
X0290600Y0226800D01*
X0290600Y0216800D02*
X0285400Y0216800D01*
X0285400Y0206800D02*
X0290600Y0206800D01*
X0290600Y0196800D02*
X0285400Y0196800D01*
X0285400Y0186800D02*
X0290600Y0186800D01*
X0290600Y0176800D02*
X0285400Y0176800D01*
X0285400Y0166800D02*
X0290600Y0166800D01*
X0290600Y0156800D02*
X0285400Y0156800D01*
X0285400Y0146800D02*
X0290600Y0146800D01*
X0290600Y0136800D02*
X0285400Y0136800D01*
D11*
X0024130Y0254457D03*
X0024130Y0274143D03*
D12*
X0013500Y0278080D03*
X0013500Y0250520D03*
D13*
X0053000Y0246800D03*
X0063000Y0246800D03*
X0073000Y0246800D03*
X0083000Y0246800D03*
X0118000Y0246800D03*
X0118000Y0236800D03*
X0118000Y0226800D03*
X0118000Y0216800D03*
X0118000Y0256800D03*
X0168000Y0326800D03*
X0168000Y0336800D03*
X0168000Y0351800D03*
X0168000Y0361800D03*
X0263000Y0226800D03*
X0263000Y0216800D03*
X0263000Y0206800D03*
X0263000Y0196800D03*
X0263000Y0186800D03*
X0263000Y0176800D03*
X0263000Y0166800D03*
X0333000Y0216800D03*
X0333000Y0226800D03*
X0333000Y0236800D03*
X0323000Y0081800D03*
X0323000Y0071800D03*
X0313000Y0071800D03*
X0313000Y0081800D03*
X0313000Y0061800D03*
X0323000Y0061800D03*
X0323000Y0051800D03*
X0323000Y0041800D03*
X0313000Y0041800D03*
X0313000Y0051800D03*
X0313000Y0031800D03*
X0313000Y0021800D03*
X0323000Y0021800D03*
X0323000Y0031800D03*
X0323000Y0011800D03*
X0313000Y0011800D03*
X0293000Y0011800D03*
X0293000Y0021800D03*
X0293000Y0031800D03*
X0293000Y0041800D03*
X0293000Y0051800D03*
X0293000Y0061800D03*
X0293000Y0071800D03*
X0293000Y0081800D03*
X0283000Y0081800D03*
X0283000Y0071800D03*
X0273000Y0071800D03*
X0273000Y0081800D03*
X0263000Y0081800D03*
X0263000Y0071800D03*
X0253000Y0071800D03*
X0253000Y0081800D03*
X0243000Y0081800D03*
X0243000Y0071800D03*
X0233000Y0071800D03*
X0233000Y0081800D03*
X0223000Y0081800D03*
X0223000Y0071800D03*
X0213000Y0071800D03*
X0213000Y0081800D03*
X0203000Y0081800D03*
X0203000Y0071800D03*
X0203000Y0061800D03*
X0203000Y0051800D03*
X0203000Y0041800D03*
X0203000Y0031800D03*
X0203000Y0021800D03*
X0203000Y0011800D03*
X0213000Y0011800D03*
X0223000Y0011800D03*
X0223000Y0021800D03*
X0223000Y0031800D03*
X0213000Y0031800D03*
X0213000Y0021800D03*
X0213000Y0041800D03*
X0213000Y0051800D03*
X0223000Y0051800D03*
X0223000Y0041800D03*
X0233000Y0041800D03*
X0233000Y0051800D03*
X0243000Y0051800D03*
X0243000Y0041800D03*
X0243000Y0031800D03*
X0243000Y0021800D03*
X0233000Y0021800D03*
X0233000Y0031800D03*
X0233000Y0011800D03*
X0243000Y0011800D03*
X0253000Y0011800D03*
X0263000Y0011800D03*
X0263000Y0021800D03*
X0263000Y0031800D03*
X0253000Y0031800D03*
X0253000Y0021800D03*
X0253000Y0041800D03*
X0253000Y0051800D03*
X0263000Y0051800D03*
X0263000Y0041800D03*
X0273000Y0041800D03*
X0273000Y0051800D03*
X0283000Y0051800D03*
X0283000Y0041800D03*
X0283000Y0031800D03*
X0283000Y0021800D03*
X0273000Y0021800D03*
X0273000Y0031800D03*
X0273000Y0011800D03*
X0283000Y0011800D03*
X0283000Y0061800D03*
X0273000Y0061800D03*
X0263000Y0061800D03*
X0253000Y0061800D03*
X0243000Y0061800D03*
X0233000Y0061800D03*
X0223000Y0061800D03*
X0213000Y0061800D03*
X0183000Y0061800D03*
X0173000Y0061800D03*
X0173000Y0051800D03*
X0173000Y0041800D03*
X0183000Y0041800D03*
X0183000Y0051800D03*
X0183000Y0031800D03*
X0183000Y0021800D03*
X0173000Y0021800D03*
X0173000Y0031800D03*
X0173000Y0011800D03*
X0183000Y0011800D03*
X0183000Y0071800D03*
X0183000Y0081800D03*
X0173000Y0081800D03*
X0173000Y0071800D03*
X0128000Y0086800D03*
X0098000Y0036800D03*
X0053000Y0096800D03*
X0023000Y0091800D03*
X0023000Y0101800D03*
X0013000Y0101800D03*
X0013000Y0091800D03*
X0013000Y0081800D03*
X0013000Y0071800D03*
X0023000Y0081800D03*
X0023000Y0111800D03*
X0023000Y0121800D03*
X0013000Y0121800D03*
X0013000Y0111800D03*
X0023000Y0131800D03*
X0023000Y0141800D03*
X0018000Y0161800D03*
X0018000Y0171800D03*
D14*
X0018000Y0201957D03*
X0018000Y0211800D03*
X0018000Y0221643D03*
D15*
X0073000Y0271800D03*
X0083000Y0281800D03*
X0073000Y0311800D03*
X0048000Y0301800D03*
X0048000Y0291800D03*
X0123000Y0281800D03*
X0213000Y0251800D03*
X0223000Y0251800D03*
X0243000Y0191800D03*
X0263000Y0156800D03*
X0263000Y0146800D03*
X0263000Y0136800D03*
X0248000Y0136800D03*
X0233000Y0136800D03*
X0218000Y0136800D03*
X0218000Y0096800D03*
X0233000Y0096800D03*
X0248000Y0096800D03*
X0263000Y0096800D03*
X0278000Y0096800D03*
X0318000Y0096800D03*
X0323000Y0096800D03*
X0333000Y0096800D03*
X0148000Y0126800D03*
X0138000Y0126800D03*
X0243000Y0331800D03*
X0283000Y0331800D03*
D16*
X0272843Y0306800D03*
X0253157Y0306800D03*
X0163000Y0291643D03*
X0163000Y0271957D03*
D17*
X0223000Y0191800D03*
D18*
X0218000Y0316800D03*
X0218000Y0326800D03*
X0218000Y0336800D03*
X0218000Y0346800D03*
X0218000Y0356800D03*
X0218000Y0366800D03*
X0218000Y0376800D03*
X0188000Y0376800D03*
X0188000Y0366800D03*
X0188000Y0356800D03*
X0188000Y0346800D03*
X0188000Y0336800D03*
X0188000Y0326800D03*
X0188000Y0316800D03*
D19*
X0078000Y0131800D03*
X0068000Y0131800D03*
X0068000Y0121800D03*
X0068000Y0111800D03*
X0078000Y0111800D03*
X0078000Y0121800D03*
X0078000Y0101800D03*
X0078000Y0091800D03*
X0068000Y0091800D03*
X0068000Y0101800D03*
X0068000Y0081800D03*
X0068000Y0071800D03*
X0078000Y0071800D03*
X0078000Y0081800D03*
X0078000Y0061800D03*
X0068000Y0061800D03*
X0068000Y0051800D03*
X0068000Y0041800D03*
X0078000Y0041800D03*
X0078000Y0051800D03*
X0078000Y0031800D03*
X0078000Y0021800D03*
X0068000Y0021800D03*
X0068000Y0031800D03*
D20*
X0007800Y0006600D02*
X0007800Y0070006D01*
X0007903Y0069689D01*
X0008296Y0068917D01*
X0008805Y0068217D01*
X0009417Y0067605D01*
X0010117Y0067096D01*
X0010889Y0066703D01*
X0011712Y0066435D01*
X0012567Y0066300D01*
X0012800Y0066300D01*
X0012800Y0071600D01*
X0013200Y0071600D01*
X0013200Y0072000D01*
X0018500Y0072000D01*
X0018500Y0072233D01*
X0018365Y0073088D01*
X0018097Y0073911D01*
X0017704Y0074683D01*
X0017195Y0075383D01*
X0016710Y0075868D01*
X0016909Y0075950D01*
X0018000Y0077042D01*
X0019091Y0075950D01*
X0021627Y0074900D01*
X0024372Y0074900D01*
X0026800Y0075906D01*
X0026800Y0046330D01*
X0027409Y0044860D01*
X0028534Y0043735D01*
X0041157Y0031112D01*
X0040344Y0030775D01*
X0039025Y0029456D01*
X0038311Y0027733D01*
X0038311Y0027146D01*
X0037664Y0027793D01*
X0036975Y0029456D01*
X0035656Y0030775D01*
X0033933Y0031489D01*
X0032067Y0031489D01*
X0030344Y0030775D01*
X0029025Y0029456D01*
X0028311Y0027733D01*
X0028311Y0025867D01*
X0029025Y0024144D01*
X0030344Y0022825D01*
X0032007Y0022136D01*
X0047543Y0006600D01*
X0007800Y0006600D01*
X0007800Y0008194D02*
X0045949Y0008194D01*
X0044351Y0009793D02*
X0007800Y0009793D01*
X0007800Y0011391D02*
X0042752Y0011391D01*
X0041154Y0012990D02*
X0007800Y0012990D01*
X0007800Y0014588D02*
X0039555Y0014588D01*
X0037957Y0016187D02*
X0007800Y0016187D01*
X0007800Y0017785D02*
X0036358Y0017785D01*
X0034760Y0019384D02*
X0007800Y0019384D01*
X0007800Y0020982D02*
X0033161Y0020982D01*
X0030934Y0022581D02*
X0007800Y0022581D01*
X0007800Y0024179D02*
X0029010Y0024179D01*
X0028348Y0025778D02*
X0007800Y0025778D01*
X0007800Y0027376D02*
X0028311Y0027376D01*
X0028825Y0028975D02*
X0007800Y0028975D01*
X0007800Y0030573D02*
X0030142Y0030573D01*
X0033000Y0026800D02*
X0053200Y0006600D01*
X0325013Y0006600D01*
X0343000Y0024587D01*
X0343000Y0241800D01*
X0333000Y0251800D01*
X0283000Y0251800D01*
X0278311Y0252146D02*
X0276843Y0253614D01*
X0276843Y0302076D01*
X0278072Y0303306D01*
X0279011Y0305573D01*
X0279011Y0308027D01*
X0278072Y0310294D01*
X0276337Y0312029D01*
X0274070Y0312968D01*
X0271616Y0312968D01*
X0269348Y0312029D01*
X0267613Y0310294D01*
X0266674Y0308027D01*
X0266674Y0305573D01*
X0267613Y0303306D01*
X0268843Y0302076D01*
X0268843Y0251162D01*
X0269451Y0249692D01*
X0280066Y0239078D01*
X0279600Y0237954D01*
X0279600Y0235646D01*
X0280483Y0233515D01*
X0282115Y0231883D01*
X0282315Y0231800D01*
X0282115Y0231717D01*
X0280483Y0230085D01*
X0279600Y0227954D01*
X0279600Y0225646D01*
X0280483Y0223515D01*
X0282115Y0221883D01*
X0282315Y0221800D01*
X0282115Y0221717D01*
X0280483Y0220085D01*
X0279600Y0217954D01*
X0279600Y0215646D01*
X0280483Y0213515D01*
X0282115Y0211883D01*
X0282315Y0211800D01*
X0282115Y0211717D01*
X0280483Y0210085D01*
X0279600Y0207954D01*
X0279600Y0205646D01*
X0280483Y0203515D01*
X0282115Y0201883D01*
X0282315Y0201800D01*
X0282115Y0201717D01*
X0280483Y0200085D01*
X0279600Y0197954D01*
X0279600Y0195646D01*
X0280483Y0193515D01*
X0282115Y0191883D01*
X0282315Y0191800D01*
X0282115Y0191717D01*
X0280483Y0190085D01*
X0279600Y0187954D01*
X0279600Y0185646D01*
X0280483Y0183515D01*
X0282115Y0181883D01*
X0282315Y0181800D01*
X0282115Y0181717D01*
X0280483Y0180085D01*
X0279600Y0177954D01*
X0279600Y0175646D01*
X0280483Y0173515D01*
X0282115Y0171883D01*
X0282315Y0171800D01*
X0282115Y0171717D01*
X0280483Y0170085D01*
X0279600Y0167954D01*
X0279600Y0165646D01*
X0280483Y0163515D01*
X0282115Y0161883D01*
X0282315Y0161800D01*
X0282115Y0161717D01*
X0280483Y0160085D01*
X0279600Y0157954D01*
X0279600Y0155646D01*
X0280483Y0153515D01*
X0282115Y0151883D01*
X0284177Y0151029D01*
X0283711Y0150878D01*
X0283094Y0150563D01*
X0282534Y0150156D01*
X0282044Y0149666D01*
X0281637Y0149106D01*
X0281322Y0148489D01*
X0281108Y0147830D01*
X0281000Y0147146D01*
X0281000Y0146800D01*
X0288000Y0146800D01*
X0295000Y0146800D01*
X0295000Y0147146D01*
X0294892Y0147830D01*
X0294678Y0148489D01*
X0294363Y0149106D01*
X0293956Y0149666D01*
X0293466Y0150156D01*
X0292906Y0150563D01*
X0292289Y0150878D01*
X0291823Y0151029D01*
X0293885Y0151883D01*
X0295517Y0153515D01*
X0296400Y0155646D01*
X0296400Y0157954D01*
X0295517Y0160085D01*
X0293885Y0161717D01*
X0293685Y0161800D01*
X0293885Y0161883D01*
X0295517Y0163515D01*
X0296400Y0165646D01*
X0296400Y0167954D01*
X0295517Y0170085D01*
X0293885Y0171717D01*
X0293685Y0171800D01*
X0293885Y0171883D01*
X0295517Y0173515D01*
X0296400Y0175646D01*
X0296400Y0177954D01*
X0295517Y0180085D01*
X0293885Y0181717D01*
X0293685Y0181800D01*
X0293885Y0181883D01*
X0295517Y0183515D01*
X0296400Y0185646D01*
X0296400Y0187954D01*
X0295517Y0190085D01*
X0293885Y0191717D01*
X0293685Y0191800D01*
X0293885Y0191883D01*
X0295517Y0193515D01*
X0296400Y0195646D01*
X0296400Y0197954D01*
X0295517Y0200085D01*
X0293885Y0201717D01*
X0293685Y0201800D01*
X0293885Y0201883D01*
X0295517Y0203515D01*
X0296400Y0205646D01*
X0296400Y0207954D01*
X0295517Y0210085D01*
X0293885Y0211717D01*
X0293685Y0211800D01*
X0293885Y0211883D01*
X0295517Y0213515D01*
X0296400Y0215646D01*
X0296400Y0217954D01*
X0295517Y0220085D01*
X0293885Y0221717D01*
X0293685Y0221800D01*
X0293885Y0221883D01*
X0295517Y0223515D01*
X0296400Y0225646D01*
X0296400Y0227954D01*
X0295517Y0230085D01*
X0293885Y0231717D01*
X0293685Y0231800D01*
X0293885Y0231883D01*
X0295517Y0233515D01*
X0296400Y0235646D01*
X0296400Y0237954D01*
X0295517Y0240085D01*
X0293885Y0241717D01*
X0291754Y0242600D01*
X0287857Y0242600D01*
X0283346Y0247111D01*
X0283933Y0247111D01*
X0285596Y0247800D01*
X0331343Y0247800D01*
X0336200Y0242943D01*
X0334372Y0243700D01*
X0331627Y0243700D01*
X0329091Y0242650D01*
X0327242Y0240800D01*
X0324802Y0240800D01*
X0323885Y0241717D01*
X0321754Y0242600D01*
X0314246Y0242600D01*
X0312115Y0241717D01*
X0310483Y0240085D01*
X0309600Y0237954D01*
X0309600Y0235646D01*
X0310483Y0233515D01*
X0312115Y0231883D01*
X0312315Y0231800D01*
X0312115Y0231717D01*
X0310483Y0230085D01*
X0309600Y0227954D01*
X0309600Y0225646D01*
X0310483Y0223515D01*
X0312115Y0221883D01*
X0312315Y0221800D01*
X0312115Y0221717D01*
X0310483Y0220085D01*
X0309600Y0217954D01*
X0309600Y0215646D01*
X0310483Y0213515D01*
X0312115Y0211883D01*
X0312315Y0211800D01*
X0312115Y0211717D01*
X0310483Y0210085D01*
X0309600Y0207954D01*
X0309600Y0205646D01*
X0310483Y0203515D01*
X0312115Y0201883D01*
X0312315Y0201800D01*
X0312115Y0201717D01*
X0310483Y0200085D01*
X0309600Y0197954D01*
X0309600Y0195646D01*
X0310483Y0193515D01*
X0312115Y0191883D01*
X0312315Y0191800D01*
X0312115Y0191717D01*
X0310483Y0190085D01*
X0309600Y0187954D01*
X0309600Y0185646D01*
X0310483Y0183515D01*
X0312115Y0181883D01*
X0312315Y0181800D01*
X0312115Y0181717D01*
X0310483Y0180085D01*
X0309600Y0177954D01*
X0309600Y0175646D01*
X0310483Y0173515D01*
X0312115Y0171883D01*
X0312315Y0171800D01*
X0312115Y0171717D01*
X0310483Y0170085D01*
X0309600Y0167954D01*
X0309600Y0165646D01*
X0310483Y0163515D01*
X0312115Y0161883D01*
X0312315Y0161800D01*
X0312115Y0161717D01*
X0310483Y0160085D01*
X0309600Y0157954D01*
X0309600Y0155646D01*
X0310483Y0153515D01*
X0312115Y0151883D01*
X0312315Y0151800D01*
X0312115Y0151717D01*
X0310483Y0150085D01*
X0309600Y0147954D01*
X0309600Y0145646D01*
X0310483Y0143515D01*
X0312115Y0141883D01*
X0312315Y0141800D01*
X0312115Y0141717D01*
X0310483Y0140085D01*
X0309600Y0137954D01*
X0309600Y0135646D01*
X0310483Y0133515D01*
X0312115Y0131883D01*
X0314177Y0131029D01*
X0313711Y0130878D01*
X0313094Y0130563D01*
X0312534Y0130156D01*
X0312044Y0129666D01*
X0311637Y0129106D01*
X0311322Y0128489D01*
X0311108Y0127830D01*
X0311000Y0127146D01*
X0311000Y0126800D01*
X0318000Y0126800D01*
X0325000Y0126800D01*
X0325000Y0127146D01*
X0324892Y0127830D01*
X0324678Y0128489D01*
X0324363Y0129106D01*
X0323956Y0129666D01*
X0323466Y0130156D01*
X0322906Y0130563D01*
X0322289Y0130878D01*
X0321823Y0131029D01*
X0323885Y0131883D01*
X0325517Y0133515D01*
X0326400Y0135646D01*
X0326400Y0137954D01*
X0325517Y0140085D01*
X0323885Y0141717D01*
X0323685Y0141800D01*
X0323885Y0141883D01*
X0325517Y0143515D01*
X0326400Y0145646D01*
X0326400Y0147954D01*
X0325517Y0150085D01*
X0323885Y0151717D01*
X0323685Y0151800D01*
X0323885Y0151883D01*
X0325517Y0153515D01*
X0326400Y0155646D01*
X0326400Y0157954D01*
X0325517Y0160085D01*
X0323885Y0161717D01*
X0323685Y0161800D01*
X0323885Y0161883D01*
X0325517Y0163515D01*
X0326400Y0165646D01*
X0326400Y0167954D01*
X0325517Y0170085D01*
X0323885Y0171717D01*
X0323685Y0171800D01*
X0323885Y0171883D01*
X0325517Y0173515D01*
X0326400Y0175646D01*
X0326400Y0177954D01*
X0325517Y0180085D01*
X0323885Y0181717D01*
X0323685Y0181800D01*
X0323885Y0181883D01*
X0325517Y0183515D01*
X0326400Y0185646D01*
X0326400Y0187954D01*
X0325517Y0190085D01*
X0323885Y0191717D01*
X0323685Y0191800D01*
X0323885Y0191883D01*
X0325517Y0193515D01*
X0326400Y0195646D01*
X0326400Y0197954D01*
X0325517Y0200085D01*
X0323885Y0201717D01*
X0323685Y0201800D01*
X0323885Y0201883D01*
X0325517Y0203515D01*
X0326400Y0205646D01*
X0326400Y0207954D01*
X0325517Y0210085D01*
X0323885Y0211717D01*
X0323685Y0211800D01*
X0323885Y0211883D01*
X0324802Y0212800D01*
X0327242Y0212800D01*
X0329091Y0210950D01*
X0331627Y0209900D01*
X0334372Y0209900D01*
X0336909Y0210950D01*
X0338850Y0212891D01*
X0339000Y0213255D01*
X0339000Y0026244D01*
X0328657Y0015901D01*
X0327758Y0016800D01*
X0328850Y0017891D01*
X0329900Y0020427D01*
X0329900Y0023172D01*
X0328850Y0025709D01*
X0327758Y0026800D01*
X0328850Y0027891D01*
X0329900Y0030427D01*
X0329900Y0033172D01*
X0328850Y0035709D01*
X0327758Y0036800D01*
X0328850Y0037891D01*
X0329900Y0040427D01*
X0329900Y0043172D01*
X0328850Y0045709D01*
X0327758Y0046800D01*
X0328850Y0047891D01*
X0329900Y0050427D01*
X0329900Y0053172D01*
X0328850Y0055709D01*
X0327758Y0056800D01*
X0328850Y0057891D01*
X0329900Y0060427D01*
X0329900Y0063172D01*
X0328850Y0065709D01*
X0327758Y0066800D01*
X0328850Y0067891D01*
X0329900Y0070427D01*
X0329900Y0073172D01*
X0328850Y0075709D01*
X0327758Y0076800D01*
X0328850Y0077891D01*
X0329900Y0080427D01*
X0329900Y0083172D01*
X0328850Y0085709D01*
X0326909Y0087650D01*
X0324372Y0088700D01*
X0321627Y0088700D01*
X0319091Y0087650D01*
X0317150Y0085709D01*
X0317068Y0085510D01*
X0316583Y0085995D01*
X0315883Y0086504D01*
X0315111Y0086897D01*
X0314288Y0087165D01*
X0313433Y0087300D01*
X0313200Y0087300D01*
X0313200Y0082000D01*
X0312800Y0082000D01*
X0312800Y0087300D01*
X0312567Y0087300D01*
X0311712Y0087165D01*
X0310889Y0086897D01*
X0310117Y0086504D01*
X0309417Y0085995D01*
X0308805Y0085383D01*
X0308296Y0084683D01*
X0307903Y0083911D01*
X0307635Y0083088D01*
X0307500Y0082233D01*
X0307500Y0082000D01*
X0312800Y0082000D01*
X0312800Y0081600D01*
X0307500Y0081600D01*
X0307500Y0081367D01*
X0307635Y0080512D01*
X0307903Y0079689D01*
X0308296Y0078917D01*
X0308805Y0078217D01*
X0309417Y0077605D01*
X0310117Y0077096D01*
X0310698Y0076800D01*
X0310117Y0076504D01*
X0309417Y0075995D01*
X0308805Y0075383D01*
X0308296Y0074683D01*
X0307903Y0073911D01*
X0307635Y0073088D01*
X0307500Y0072233D01*
X0307500Y0072000D01*
X0312800Y0072000D01*
X0312800Y0081600D01*
X0313200Y0081600D01*
X0313200Y0076300D01*
X0313200Y0072000D01*
X0312800Y0072000D01*
X0312800Y0071600D01*
X0307500Y0071600D01*
X0307500Y0071367D01*
X0307635Y0070512D01*
X0307903Y0069689D01*
X0308296Y0068917D01*
X0308805Y0068217D01*
X0309417Y0067605D01*
X0310117Y0067096D01*
X0310698Y0066800D01*
X0310117Y0066504D01*
X0309417Y0065995D01*
X0308805Y0065383D01*
X0308296Y0064683D01*
X0307903Y0063911D01*
X0307635Y0063088D01*
X0307500Y0062233D01*
X0307500Y0062000D01*
X0312800Y0062000D01*
X0312800Y0071600D01*
X0313200Y0071600D01*
X0313200Y0067300D01*
X0313200Y0062000D01*
X0312800Y0062000D01*
X0312800Y0061600D01*
X0307500Y0061600D01*
X0307500Y0061367D01*
X0307635Y0060512D01*
X0307903Y0059689D01*
X0308296Y0058917D01*
X0308805Y0058217D01*
X0309417Y0057605D01*
X0310117Y0057096D01*
X0310698Y0056800D01*
X0310117Y0056504D01*
X0309417Y0055995D01*
X0308805Y0055383D01*
X0308296Y0054683D01*
X0307903Y0053911D01*
X0307635Y0053088D01*
X0307500Y0052233D01*
X0307500Y0052000D01*
X0312800Y0052000D01*
X0312800Y0061600D01*
X0313200Y0061600D01*
X0313200Y0056300D01*
X0313200Y0052000D01*
X0312800Y0052000D01*
X0312800Y0051600D01*
X0307500Y0051600D01*
X0307500Y0051367D01*
X0307635Y0050512D01*
X0307903Y0049689D01*
X0308296Y0048917D01*
X0308805Y0048217D01*
X0309417Y0047605D01*
X0310117Y0047096D01*
X0310698Y0046800D01*
X0310117Y0046504D01*
X0309417Y0045995D01*
X0308805Y0045383D01*
X0308296Y0044683D01*
X0307903Y0043911D01*
X0307635Y0043088D01*
X0307500Y0042233D01*
X0307500Y0042000D01*
X0312800Y0042000D01*
X0312800Y0051600D01*
X0313200Y0051600D01*
X0313200Y0046300D01*
X0313200Y0042000D01*
X0312800Y0042000D01*
X0312800Y0041600D01*
X0307500Y0041600D01*
X0307500Y0041367D01*
X0307635Y0040512D01*
X0307903Y0039689D01*
X0308296Y0038917D01*
X0308805Y0038217D01*
X0309417Y0037605D01*
X0310117Y0037096D01*
X0310698Y0036800D01*
X0310117Y0036504D01*
X0309417Y0035995D01*
X0308805Y0035383D01*
X0308296Y0034683D01*
X0307903Y0033911D01*
X0307635Y0033088D01*
X0307500Y0032233D01*
X0307500Y0032000D01*
X0312800Y0032000D01*
X0312800Y0041600D01*
X0313200Y0041600D01*
X0313200Y0036300D01*
X0313200Y0032000D01*
X0312800Y0032000D01*
X0312800Y0031600D01*
X0307500Y0031600D01*
X0307500Y0031367D01*
X0307635Y0030512D01*
X0307903Y0029689D01*
X0308296Y0028917D01*
X0308805Y0028217D01*
X0309417Y0027605D01*
X0310117Y0027096D01*
X0310698Y0026800D01*
X0310117Y0026504D01*
X0309417Y0025995D01*
X0308805Y0025383D01*
X0308296Y0024683D01*
X0307903Y0023911D01*
X0307635Y0023088D01*
X0307500Y0022233D01*
X0307500Y0022000D01*
X0312800Y0022000D01*
X0312800Y0031600D01*
X0313200Y0031600D01*
X0313200Y0026300D01*
X0313200Y0022000D01*
X0312800Y0022000D01*
X0312800Y0021600D01*
X0307500Y0021600D01*
X0307500Y0021367D01*
X0307635Y0020512D01*
X0307903Y0019689D01*
X0308296Y0018917D01*
X0308805Y0018217D01*
X0309417Y0017605D01*
X0310117Y0017096D01*
X0310698Y0016800D01*
X0310117Y0016504D01*
X0309417Y0015995D01*
X0308805Y0015383D01*
X0308296Y0014683D01*
X0307903Y0013911D01*
X0307635Y0013088D01*
X0307500Y0012233D01*
X0307500Y0012000D01*
X0312800Y0012000D01*
X0312800Y0021600D01*
X0313200Y0021600D01*
X0313200Y0016300D01*
X0313200Y0012000D01*
X0312800Y0012000D01*
X0312800Y0011600D01*
X0307500Y0011600D01*
X0307500Y0011367D01*
X0307622Y0010600D01*
X0299900Y0010600D01*
X0299900Y0013172D01*
X0298850Y0015709D01*
X0297758Y0016800D01*
X0298850Y0017891D01*
X0299900Y0020427D01*
X0299900Y0023172D01*
X0298850Y0025709D01*
X0297758Y0026800D01*
X0298850Y0027891D01*
X0299900Y0030427D01*
X0299900Y0033172D01*
X0298850Y0035709D01*
X0297758Y0036800D01*
X0298850Y0037891D01*
X0299900Y0040427D01*
X0299900Y0043172D01*
X0298850Y0045709D01*
X0297758Y0046800D01*
X0298850Y0047891D01*
X0299900Y0050427D01*
X0299900Y0053172D01*
X0298850Y0055709D01*
X0297758Y0056800D01*
X0298850Y0057891D01*
X0299900Y0060427D01*
X0299900Y0063172D01*
X0298850Y0065709D01*
X0297758Y0066800D01*
X0298850Y0067891D01*
X0299900Y0070427D01*
X0299900Y0073172D01*
X0298850Y0075709D01*
X0297758Y0076800D01*
X0298850Y0077891D01*
X0299900Y0080427D01*
X0299900Y0083172D01*
X0298850Y0085709D01*
X0296909Y0087650D01*
X0294372Y0088700D01*
X0291627Y0088700D01*
X0289091Y0087650D01*
X0288000Y0086558D01*
X0286909Y0087650D01*
X0284372Y0088700D01*
X0281627Y0088700D01*
X0279091Y0087650D01*
X0278000Y0086558D01*
X0276909Y0087650D01*
X0274372Y0088700D01*
X0271627Y0088700D01*
X0269091Y0087650D01*
X0268000Y0086558D01*
X0266909Y0087650D01*
X0264372Y0088700D01*
X0261627Y0088700D01*
X0259091Y0087650D01*
X0258000Y0086558D01*
X0256909Y0087650D01*
X0254372Y0088700D01*
X0251627Y0088700D01*
X0249091Y0087650D01*
X0248000Y0086558D01*
X0246909Y0087650D01*
X0244372Y0088700D01*
X0241627Y0088700D01*
X0239091Y0087650D01*
X0238000Y0086558D01*
X0236909Y0087650D01*
X0234372Y0088700D01*
X0231627Y0088700D01*
X0229091Y0087650D01*
X0228000Y0086558D01*
X0226909Y0087650D01*
X0224372Y0088700D01*
X0221627Y0088700D01*
X0219091Y0087650D01*
X0218000Y0086558D01*
X0216909Y0087650D01*
X0214372Y0088700D01*
X0211627Y0088700D01*
X0209091Y0087650D01*
X0208000Y0086558D01*
X0206909Y0087650D01*
X0204372Y0088700D01*
X0201627Y0088700D01*
X0199091Y0087650D01*
X0197150Y0085709D01*
X0196100Y0083172D01*
X0196100Y0080427D01*
X0197150Y0077891D01*
X0198242Y0076800D01*
X0197150Y0075709D01*
X0196100Y0073172D01*
X0196100Y0070427D01*
X0197150Y0067891D01*
X0198242Y0066800D01*
X0197150Y0065709D01*
X0196100Y0063172D01*
X0196100Y0060427D01*
X0197150Y0057891D01*
X0198242Y0056800D01*
X0197150Y0055709D01*
X0196100Y0053172D01*
X0196100Y0050427D01*
X0197150Y0047891D01*
X0198242Y0046800D01*
X0197150Y0045709D01*
X0196100Y0043172D01*
X0196100Y0040427D01*
X0197150Y0037891D01*
X0198242Y0036800D01*
X0197150Y0035709D01*
X0196100Y0033172D01*
X0196100Y0030427D01*
X0197150Y0027891D01*
X0198242Y0026800D01*
X0197150Y0025709D01*
X0196100Y0023172D01*
X0196100Y0020427D01*
X0197150Y0017891D01*
X0198242Y0016800D01*
X0197150Y0015709D01*
X0196100Y0013172D01*
X0196100Y0010600D01*
X0188378Y0010600D01*
X0188500Y0011367D01*
X0188500Y0011600D01*
X0183200Y0011600D01*
X0183200Y0012000D01*
X0188500Y0012000D01*
X0188500Y0012233D01*
X0188365Y0013088D01*
X0188097Y0013911D01*
X0187704Y0014683D01*
X0187195Y0015383D01*
X0186583Y0015995D01*
X0185883Y0016504D01*
X0185302Y0016800D01*
X0185883Y0017096D01*
X0186583Y0017605D01*
X0187195Y0018217D01*
X0187704Y0018917D01*
X0188097Y0019689D01*
X0188365Y0020512D01*
X0188500Y0021367D01*
X0188500Y0021600D01*
X0183200Y0021600D01*
X0183200Y0022000D01*
X0182800Y0022000D01*
X0182800Y0031600D01*
X0183200Y0031600D01*
X0183200Y0032000D01*
X0188500Y0032000D01*
X0188500Y0032233D01*
X0188365Y0033088D01*
X0188097Y0033911D01*
X0187704Y0034683D01*
X0187195Y0035383D01*
X0186583Y0035995D01*
X0185883Y0036504D01*
X0185302Y0036800D01*
X0185883Y0037096D01*
X0186583Y0037605D01*
X0187195Y0038217D01*
X0187704Y0038917D01*
X0188097Y0039689D01*
X0188365Y0040512D01*
X0188500Y0041367D01*
X0188500Y0041600D01*
X0183200Y0041600D01*
X0183200Y0042000D01*
X0182800Y0042000D01*
X0182800Y0051600D01*
X0183200Y0051600D01*
X0183200Y0052000D01*
X0188500Y0052000D01*
X0188500Y0052233D01*
X0188365Y0053088D01*
X0188097Y0053911D01*
X0187704Y0054683D01*
X0187195Y0055383D01*
X0186583Y0055995D01*
X0185883Y0056504D01*
X0185302Y0056800D01*
X0185883Y0057096D01*
X0186583Y0057605D01*
X0187195Y0058217D01*
X0187704Y0058917D01*
X0188097Y0059689D01*
X0188365Y0060512D01*
X0188500Y0061367D01*
X0188500Y0061600D01*
X0183200Y0061600D01*
X0183200Y0062000D01*
X0182800Y0062000D01*
X0182800Y0071600D01*
X0183200Y0071600D01*
X0183200Y0072000D01*
X0188500Y0072000D01*
X0188500Y0072233D01*
X0188365Y0073088D01*
X0188097Y0073911D01*
X0187704Y0074683D01*
X0187195Y0075383D01*
X0186583Y0075995D01*
X0185883Y0076504D01*
X0185302Y0076800D01*
X0185883Y0077096D01*
X0186583Y0077605D01*
X0187195Y0078217D01*
X0187704Y0078917D01*
X0188097Y0079689D01*
X0188365Y0080512D01*
X0188500Y0081367D01*
X0188500Y0081600D01*
X0183200Y0081600D01*
X0183200Y0082000D01*
X0182800Y0082000D01*
X0182800Y0087300D01*
X0182567Y0087300D01*
X0181712Y0087165D01*
X0180889Y0086897D01*
X0180117Y0086504D01*
X0179417Y0085995D01*
X0178932Y0085510D01*
X0178850Y0085709D01*
X0176909Y0087650D01*
X0174372Y0088700D01*
X0171627Y0088700D01*
X0169091Y0087650D01*
X0167150Y0085709D01*
X0166100Y0083172D01*
X0166100Y0080427D01*
X0167150Y0077891D01*
X0168242Y0076800D01*
X0167150Y0075709D01*
X0166100Y0073172D01*
X0166100Y0070427D01*
X0167150Y0067891D01*
X0168242Y0066800D01*
X0167150Y0065709D01*
X0166100Y0063172D01*
X0166100Y0060427D01*
X0167150Y0057891D01*
X0168242Y0056800D01*
X0167150Y0055709D01*
X0166100Y0053172D01*
X0166100Y0050427D01*
X0167150Y0047891D01*
X0168242Y0046800D01*
X0167150Y0045709D01*
X0166100Y0043172D01*
X0166100Y0040427D01*
X0167150Y0037891D01*
X0168242Y0036800D01*
X0167150Y0035709D01*
X0166100Y0033172D01*
X0166100Y0030427D01*
X0167150Y0027891D01*
X0168242Y0026800D01*
X0167150Y0025709D01*
X0166100Y0023172D01*
X0166100Y0020427D01*
X0167150Y0017891D01*
X0168242Y0016800D01*
X0167150Y0015709D01*
X0166100Y0013172D01*
X0166100Y0010600D01*
X0142615Y0010600D01*
X0141975Y0012145D01*
X0140656Y0013464D01*
X0138933Y0014178D01*
X0137067Y0014178D01*
X0135404Y0013489D01*
X0128457Y0013489D01*
X0162466Y0047498D01*
X0163591Y0048623D01*
X0164200Y0050093D01*
X0164200Y0104943D01*
X0175734Y0093409D01*
X0177204Y0092800D01*
X0213798Y0092800D01*
X0215598Y0091000D01*
X0220402Y0091000D01*
X0222202Y0092800D01*
X0228798Y0092800D01*
X0230598Y0091000D01*
X0235402Y0091000D01*
X0237202Y0092800D01*
X0243798Y0092800D01*
X0245598Y0091000D01*
X0250402Y0091000D01*
X0252202Y0092800D01*
X0258798Y0092800D01*
X0260598Y0091000D01*
X0265402Y0091000D01*
X0268800Y0094398D01*
X0268800Y0099202D01*
X0265402Y0102600D01*
X0260598Y0102600D01*
X0258798Y0100800D01*
X0252202Y0100800D01*
X0250402Y0102600D01*
X0245598Y0102600D01*
X0243798Y0100800D01*
X0237202Y0100800D01*
X0235402Y0102600D01*
X0230598Y0102600D01*
X0228798Y0100800D01*
X0222202Y0100800D01*
X0220402Y0102600D01*
X0215598Y0102600D01*
X0213798Y0100800D01*
X0179657Y0100800D01*
X0172657Y0107800D01*
X0203796Y0107800D01*
X0205266Y0108409D01*
X0206391Y0109534D01*
X0207000Y0111004D01*
X0207000Y0121886D01*
X0207991Y0122877D01*
X0208600Y0124347D01*
X0208600Y0179253D01*
X0207991Y0180723D01*
X0206866Y0181848D01*
X0205358Y0183356D01*
X0205517Y0183515D01*
X0206400Y0185646D01*
X0206400Y0187954D01*
X0205517Y0190085D01*
X0203885Y0191717D01*
X0203685Y0191800D01*
X0203885Y0191883D01*
X0205517Y0193515D01*
X0206400Y0195646D01*
X0206400Y0197954D01*
X0205517Y0200085D01*
X0205358Y0200244D01*
X0209066Y0203952D01*
X0210191Y0205077D01*
X0210800Y0206547D01*
X0210800Y0237053D01*
X0210191Y0238523D01*
X0205648Y0243066D01*
X0204523Y0244191D01*
X0204231Y0244312D01*
X0204363Y0244494D01*
X0204678Y0245111D01*
X0204892Y0245770D01*
X0205000Y0246454D01*
X0205000Y0246800D01*
X0205000Y0247146D01*
X0204892Y0247830D01*
X0204678Y0248489D01*
X0204363Y0249106D01*
X0203956Y0249666D01*
X0203466Y0250156D01*
X0202906Y0250563D01*
X0202289Y0250878D01*
X0201823Y0251029D01*
X0203885Y0251883D01*
X0205517Y0253515D01*
X0206400Y0255646D01*
X0206400Y0257954D01*
X0205517Y0260085D01*
X0203885Y0261717D01*
X0201754Y0262600D01*
X0194246Y0262600D01*
X0192115Y0261717D01*
X0190483Y0260085D01*
X0189600Y0257954D01*
X0189600Y0255646D01*
X0190483Y0253515D01*
X0192115Y0251883D01*
X0194177Y0251029D01*
X0193711Y0250878D01*
X0193094Y0250563D01*
X0192534Y0250156D01*
X0192044Y0249666D01*
X0191637Y0249106D01*
X0191322Y0248489D01*
X0191108Y0247830D01*
X0191000Y0247146D01*
X0191000Y0246800D01*
X0198000Y0246800D01*
X0205000Y0246800D01*
X0198000Y0246800D01*
X0198000Y0246800D01*
X0198000Y0246800D01*
X0191000Y0246800D01*
X0191000Y0246454D01*
X0191108Y0245770D01*
X0191322Y0245111D01*
X0191481Y0244800D01*
X0176049Y0244800D01*
X0176400Y0245646D01*
X0176400Y0247954D01*
X0175517Y0250085D01*
X0173885Y0251717D01*
X0173685Y0251800D01*
X0173885Y0251883D01*
X0175517Y0253515D01*
X0176400Y0255646D01*
X0176400Y0257954D01*
X0175517Y0260085D01*
X0173885Y0261717D01*
X0171754Y0262600D01*
X0164246Y0262600D01*
X0162115Y0261717D01*
X0160483Y0260085D01*
X0159600Y0257954D01*
X0159600Y0255646D01*
X0160483Y0253515D01*
X0162115Y0251883D01*
X0162315Y0251800D01*
X0162115Y0251717D01*
X0160483Y0250085D01*
X0159600Y0247954D01*
X0159600Y0245646D01*
X0159951Y0244800D01*
X0142869Y0244800D01*
X0122378Y0265291D01*
X0120908Y0265900D01*
X0115092Y0265900D01*
X0113622Y0265291D01*
X0110634Y0262304D01*
X0109509Y0261178D01*
X0108900Y0259708D01*
X0108900Y0233357D01*
X0061343Y0185800D01*
X0050596Y0185800D01*
X0048933Y0186489D01*
X0047067Y0186489D01*
X0045344Y0185775D01*
X0044025Y0184456D01*
X0043311Y0182733D01*
X0043311Y0180867D01*
X0044025Y0179144D01*
X0045344Y0177825D01*
X0047067Y0177111D01*
X0047654Y0177111D01*
X0032007Y0161464D01*
X0030344Y0160775D01*
X0029025Y0159456D01*
X0028311Y0157733D01*
X0028311Y0155867D01*
X0029025Y0154144D01*
X0030344Y0152825D01*
X0032067Y0152111D01*
X0032654Y0152111D01*
X0031443Y0150900D01*
X0025092Y0150900D01*
X0023622Y0150291D01*
X0022496Y0149166D01*
X0022496Y0149166D01*
X0020634Y0147304D01*
X0019509Y0146178D01*
X0019440Y0146012D01*
X0019417Y0145995D01*
X0018805Y0145383D01*
X0018296Y0144683D01*
X0017903Y0143911D01*
X0017635Y0143088D01*
X0017500Y0142233D01*
X0017500Y0142000D01*
X0018900Y0142000D01*
X0018900Y0141600D01*
X0017500Y0141600D01*
X0017500Y0141367D01*
X0017635Y0140512D01*
X0017903Y0139689D01*
X0018296Y0138917D01*
X0018805Y0138217D01*
X0018900Y0138122D01*
X0018900Y0137458D01*
X0017150Y0135709D01*
X0016100Y0133172D01*
X0016100Y0130427D01*
X0017150Y0127891D01*
X0018242Y0126800D01*
X0018000Y0126558D01*
X0016909Y0127650D01*
X0014372Y0128700D01*
X0011627Y0128700D01*
X0009091Y0127650D01*
X0007800Y0126358D01*
X0007800Y0139799D01*
X0008833Y0139799D01*
X0010556Y0140512D01*
X0011875Y0141831D01*
X0012564Y0143495D01*
X0036793Y0167723D01*
X0038456Y0168412D01*
X0039775Y0169731D01*
X0040489Y0171455D01*
X0040489Y0173320D01*
X0039775Y0175044D01*
X0038456Y0176363D01*
X0036733Y0177076D01*
X0034867Y0177076D01*
X0033144Y0176363D01*
X0031825Y0175044D01*
X0031136Y0173380D01*
X0022592Y0164837D01*
X0022195Y0165383D01*
X0021710Y0165868D01*
X0021909Y0165950D01*
X0023850Y0167891D01*
X0024900Y0170427D01*
X0024900Y0173172D01*
X0023850Y0175709D01*
X0021909Y0177650D01*
X0019372Y0178700D01*
X0016627Y0178700D01*
X0014091Y0177650D01*
X0012150Y0175709D01*
X0011100Y0173172D01*
X0011100Y0170427D01*
X0012150Y0167891D01*
X0014091Y0165950D01*
X0014290Y0165868D01*
X0013805Y0165383D01*
X0013296Y0164683D01*
X0012903Y0163911D01*
X0012635Y0163088D01*
X0012500Y0162233D01*
X0012500Y0162000D01*
X0017800Y0162000D01*
X0017800Y0161600D01*
X0012500Y0161600D01*
X0012500Y0161367D01*
X0012635Y0160512D01*
X0012903Y0159689D01*
X0013296Y0158917D01*
X0013805Y0158217D01*
X0014417Y0157605D01*
X0014963Y0157208D01*
X0007800Y0150044D01*
X0007800Y0245431D01*
X0009178Y0244053D01*
X0011982Y0242891D01*
X0015018Y0242891D01*
X0017822Y0244053D01*
X0019968Y0246199D01*
X0020860Y0248353D01*
X0022759Y0247567D01*
X0025501Y0247567D01*
X0028033Y0248616D01*
X0029972Y0250554D01*
X0031021Y0253087D01*
X0031021Y0255828D01*
X0029972Y0258361D01*
X0028033Y0260299D01*
X0025501Y0261348D01*
X0022759Y0261348D01*
X0020227Y0260299D01*
X0018288Y0258361D01*
X0017734Y0257024D01*
X0015018Y0258150D01*
X0011982Y0258150D01*
X0009178Y0256988D01*
X0007800Y0255610D01*
X0007800Y0272990D01*
X0009178Y0271612D01*
X0011982Y0270450D01*
X0015018Y0270450D01*
X0017734Y0271576D01*
X0018288Y0270239D01*
X0020227Y0268301D01*
X0022759Y0267252D01*
X0025501Y0267252D01*
X0028033Y0268301D01*
X0029972Y0270239D01*
X0031021Y0272772D01*
X0031021Y0275513D01*
X0029972Y0278046D01*
X0028033Y0279984D01*
X0025501Y0281033D01*
X0022759Y0281033D01*
X0020860Y0280247D01*
X0019968Y0282401D01*
X0017822Y0284547D01*
X0015018Y0285709D01*
X0011982Y0285709D01*
X0009178Y0284547D01*
X0007800Y0283169D01*
X0007800Y0302043D01*
X0008735Y0301503D01*
X0011545Y0300750D01*
X0014455Y0300750D01*
X0017265Y0301503D01*
X0019785Y0302958D01*
X0021842Y0305015D01*
X0023297Y0307535D01*
X0024050Y0310345D01*
X0024050Y0313255D01*
X0023297Y0316065D01*
X0021842Y0318585D01*
X0019785Y0320642D01*
X0017265Y0322097D01*
X0014455Y0322850D01*
X0011545Y0322850D01*
X0008735Y0322097D01*
X0007800Y0321557D01*
X0007800Y0367043D01*
X0008735Y0366503D01*
X0011545Y0365750D01*
X0014455Y0365750D01*
X0017265Y0366503D01*
X0019785Y0367958D01*
X0021842Y0370015D01*
X0023297Y0372535D01*
X0024050Y0375345D01*
X0024050Y0378255D01*
X0023297Y0381065D01*
X0021842Y0383585D01*
X0019785Y0385642D01*
X0017265Y0387097D01*
X0014455Y0387850D01*
X0011545Y0387850D01*
X0008735Y0387097D01*
X0007800Y0386557D01*
X0007800Y0390701D01*
X0391901Y0390701D01*
X0391901Y0383483D01*
X0391842Y0383585D01*
X0389785Y0385642D01*
X0387265Y0387097D01*
X0384455Y0387850D01*
X0381545Y0387850D01*
X0378735Y0387097D01*
X0376215Y0385642D01*
X0374158Y0383585D01*
X0372703Y0381065D01*
X0371950Y0378255D01*
X0371950Y0375345D01*
X0372703Y0372535D01*
X0374158Y0370015D01*
X0376215Y0367958D01*
X0378735Y0366503D01*
X0381545Y0365750D01*
X0384455Y0365750D01*
X0387265Y0366503D01*
X0389785Y0367958D01*
X0391842Y0370015D01*
X0391901Y0370117D01*
X0391901Y0318483D01*
X0391842Y0318585D01*
X0389785Y0320642D01*
X0387265Y0322097D01*
X0384455Y0322850D01*
X0381545Y0322850D01*
X0378735Y0322097D01*
X0376215Y0320642D01*
X0374158Y0318585D01*
X0372703Y0316065D01*
X0371950Y0313255D01*
X0371950Y0310345D01*
X0372703Y0307535D01*
X0374158Y0305015D01*
X0376215Y0302958D01*
X0378735Y0301503D01*
X0381545Y0300750D01*
X0384455Y0300750D01*
X0387265Y0301503D01*
X0389785Y0302958D01*
X0391842Y0305015D01*
X0391901Y0305117D01*
X0391901Y0006600D01*
X0330669Y0006600D01*
X0346391Y0022322D01*
X0347000Y0023792D01*
X0347000Y0242596D01*
X0346391Y0244066D01*
X0345266Y0245191D01*
X0335266Y0255191D01*
X0333796Y0255800D01*
X0285596Y0255800D01*
X0283933Y0256489D01*
X0282067Y0256489D01*
X0280344Y0255775D01*
X0279025Y0254456D01*
X0278311Y0252733D01*
X0278311Y0252146D01*
X0278325Y0252766D02*
X0277691Y0252766D01*
X0276843Y0254365D02*
X0278987Y0254365D01*
X0280798Y0255963D02*
X0276843Y0255963D01*
X0276843Y0257562D02*
X0391901Y0257562D01*
X0391901Y0259160D02*
X0276843Y0259160D01*
X0276843Y0260759D02*
X0391901Y0260759D01*
X0391901Y0262357D02*
X0276843Y0262357D01*
X0276843Y0263956D02*
X0391901Y0263956D01*
X0391901Y0265554D02*
X0276843Y0265554D01*
X0276843Y0267153D02*
X0391901Y0267153D01*
X0391901Y0268751D02*
X0276843Y0268751D01*
X0276843Y0270350D02*
X0391901Y0270350D01*
X0391901Y0271948D02*
X0276843Y0271948D01*
X0276843Y0273547D02*
X0391901Y0273547D01*
X0391901Y0275145D02*
X0276843Y0275145D01*
X0276843Y0276744D02*
X0391901Y0276744D01*
X0391901Y0278342D02*
X0276843Y0278342D01*
X0276843Y0279941D02*
X0391901Y0279941D01*
X0391901Y0281539D02*
X0276843Y0281539D01*
X0276843Y0283138D02*
X0391901Y0283138D01*
X0391901Y0284737D02*
X0276843Y0284737D01*
X0276843Y0286335D02*
X0391901Y0286335D01*
X0391901Y0287934D02*
X0276843Y0287934D01*
X0276843Y0289532D02*
X0391901Y0289532D01*
X0391901Y0291131D02*
X0276843Y0291131D01*
X0276843Y0292729D02*
X0391901Y0292729D01*
X0391901Y0294328D02*
X0276843Y0294328D01*
X0276843Y0295926D02*
X0391901Y0295926D01*
X0391901Y0297525D02*
X0276843Y0297525D01*
X0276843Y0299123D02*
X0391901Y0299123D01*
X0391901Y0300722D02*
X0276843Y0300722D01*
X0277086Y0302320D02*
X0377320Y0302320D01*
X0375254Y0303919D02*
X0278326Y0303919D01*
X0278988Y0305517D02*
X0373868Y0305517D01*
X0372945Y0307116D02*
X0279011Y0307116D01*
X0278726Y0308714D02*
X0372387Y0308714D01*
X0371959Y0310313D02*
X0278053Y0310313D01*
X0276455Y0311911D02*
X0371950Y0311911D01*
X0372018Y0313510D02*
X0230367Y0313510D01*
X0231965Y0315108D02*
X0372447Y0315108D01*
X0373073Y0316707D02*
X0233564Y0316707D01*
X0235162Y0318305D02*
X0373996Y0318305D01*
X0375477Y0319904D02*
X0236761Y0319904D01*
X0238359Y0321502D02*
X0377705Y0321502D01*
X0388295Y0321502D02*
X0391901Y0321502D01*
X0391901Y0319904D02*
X0390523Y0319904D01*
X0391901Y0323101D02*
X0239958Y0323101D01*
X0241556Y0324699D02*
X0391901Y0324699D01*
X0391901Y0326298D02*
X0285700Y0326298D01*
X0285402Y0326000D02*
X0288800Y0329398D01*
X0288800Y0334202D01*
X0285402Y0337600D01*
X0280598Y0337600D01*
X0277200Y0334202D01*
X0277200Y0329398D01*
X0280598Y0326000D01*
X0285402Y0326000D01*
X0287299Y0327896D02*
X0391901Y0327896D01*
X0391901Y0329495D02*
X0288800Y0329495D01*
X0288800Y0331093D02*
X0391901Y0331093D01*
X0391901Y0332692D02*
X0288800Y0332692D01*
X0288712Y0334290D02*
X0391901Y0334290D01*
X0391901Y0335889D02*
X0287114Y0335889D01*
X0285515Y0337487D02*
X0391901Y0337487D01*
X0391901Y0339086D02*
X0223381Y0339086D01*
X0223381Y0339618D02*
X0222894Y0340794D01*
X0221994Y0341694D01*
X0221738Y0341800D01*
X0221994Y0341906D01*
X0222894Y0342806D01*
X0223381Y0343982D01*
X0223381Y0349618D01*
X0222894Y0350794D01*
X0221994Y0351694D01*
X0221738Y0351800D01*
X0221994Y0351906D01*
X0222894Y0352806D01*
X0223381Y0353982D01*
X0223381Y0359618D01*
X0222894Y0360794D01*
X0221994Y0361694D01*
X0221738Y0361800D01*
X0221994Y0361906D01*
X0222894Y0362806D01*
X0223381Y0363982D01*
X0223381Y0369618D01*
X0222894Y0370794D01*
X0221994Y0371694D01*
X0220818Y0372181D01*
X0215182Y0372181D01*
X0214006Y0371694D01*
X0213106Y0370794D01*
X0212619Y0369618D01*
X0212619Y0363982D01*
X0213106Y0362806D01*
X0214006Y0361906D01*
X0214262Y0361800D01*
X0214006Y0361694D01*
X0213106Y0360794D01*
X0212619Y0359618D01*
X0212619Y0353982D01*
X0213106Y0352806D01*
X0214006Y0351906D01*
X0214262Y0351800D01*
X0214006Y0351694D01*
X0213106Y0350794D01*
X0212619Y0349618D01*
X0212619Y0343982D01*
X0213106Y0342806D01*
X0214006Y0341906D01*
X0214262Y0341800D01*
X0214006Y0341694D01*
X0213106Y0340794D01*
X0212619Y0339618D01*
X0212619Y0333982D01*
X0213106Y0332806D01*
X0214006Y0331906D01*
X0214262Y0331800D01*
X0214006Y0331694D01*
X0213106Y0330794D01*
X0212619Y0329618D01*
X0212619Y0323982D01*
X0213106Y0322806D01*
X0214006Y0321906D01*
X0214262Y0321800D01*
X0214006Y0321694D01*
X0213106Y0320794D01*
X0212619Y0319618D01*
X0212619Y0313982D01*
X0213106Y0312806D01*
X0214006Y0311906D01*
X0215182Y0311419D01*
X0216962Y0311419D01*
X0197007Y0291464D01*
X0195344Y0290775D01*
X0194025Y0289456D01*
X0193311Y0287733D01*
X0193311Y0285867D01*
X0194025Y0284144D01*
X0195344Y0282825D01*
X0197067Y0282111D01*
X0198933Y0282111D01*
X0200656Y0282825D01*
X0201975Y0284144D01*
X0202664Y0285807D01*
X0242857Y0326000D01*
X0245402Y0326000D01*
X0248800Y0329398D01*
X0248800Y0334202D01*
X0245402Y0337600D01*
X0240598Y0337600D01*
X0237200Y0334202D01*
X0237200Y0331657D01*
X0223381Y0317838D01*
X0223381Y0319618D01*
X0222894Y0320794D01*
X0221994Y0321694D01*
X0221738Y0321800D01*
X0221994Y0321906D01*
X0222894Y0322806D01*
X0223381Y0323982D01*
X0223381Y0329618D01*
X0222894Y0330794D01*
X0221994Y0331694D01*
X0221738Y0331800D01*
X0221994Y0331906D01*
X0222894Y0332806D01*
X0223381Y0333982D01*
X0223381Y0339618D01*
X0222939Y0340684D02*
X0391901Y0340684D01*
X0391901Y0342283D02*
X0222371Y0342283D01*
X0223339Y0343881D02*
X0391901Y0343881D01*
X0391901Y0345480D02*
X0223381Y0345480D01*
X0223381Y0347078D02*
X0391901Y0347078D01*
X0391901Y0348677D02*
X0223381Y0348677D01*
X0223109Y0350275D02*
X0391901Y0350275D01*
X0391901Y0351874D02*
X0221916Y0351874D01*
X0223170Y0353472D02*
X0391901Y0353472D01*
X0391901Y0355071D02*
X0223381Y0355071D01*
X0223381Y0356670D02*
X0391901Y0356670D01*
X0391901Y0358268D02*
X0223381Y0358268D01*
X0223278Y0359867D02*
X0391901Y0359867D01*
X0391901Y0361465D02*
X0222223Y0361465D01*
X0223001Y0363064D02*
X0391901Y0363064D01*
X0391901Y0364662D02*
X0223381Y0364662D01*
X0223381Y0366261D02*
X0379640Y0366261D01*
X0376386Y0367859D02*
X0223381Y0367859D01*
X0223381Y0369458D02*
X0374715Y0369458D01*
X0373557Y0371056D02*
X0222632Y0371056D01*
X0221286Y0373179D02*
X0221621Y0373514D01*
X0221858Y0373924D01*
X0221981Y0374382D01*
X0221981Y0376800D01*
X0221981Y0379218D01*
X0221858Y0379676D01*
X0221621Y0380086D01*
X0221286Y0380421D01*
X0220876Y0380658D01*
X0220418Y0380781D01*
X0218000Y0380781D01*
X0218000Y0376800D01*
X0221981Y0376800D01*
X0218000Y0376800D01*
X0218000Y0376800D01*
X0218000Y0376800D01*
X0218000Y0372819D01*
X0220418Y0372819D01*
X0220876Y0372942D01*
X0221286Y0373179D01*
X0221947Y0374253D02*
X0372243Y0374253D01*
X0371950Y0375852D02*
X0221981Y0375852D01*
X0221981Y0377450D02*
X0371950Y0377450D01*
X0372163Y0379049D02*
X0221981Y0379049D01*
X0220895Y0380647D02*
X0372591Y0380647D01*
X0373385Y0382246D02*
X0022615Y0382246D01*
X0023409Y0380647D02*
X0185105Y0380647D01*
X0185124Y0380658D02*
X0184714Y0380421D01*
X0184379Y0380086D01*
X0184142Y0379676D01*
X0184019Y0379218D01*
X0184019Y0376800D01*
X0188000Y0376800D01*
X0191981Y0376800D01*
X0191981Y0379218D01*
X0191858Y0379676D01*
X0191621Y0380086D01*
X0191286Y0380421D01*
X0190876Y0380658D01*
X0190418Y0380781D01*
X0188000Y0380781D01*
X0188000Y0376800D01*
X0188000Y0376800D01*
X0188000Y0376800D01*
X0191981Y0376800D01*
X0191981Y0374382D01*
X0191858Y0373924D01*
X0191621Y0373514D01*
X0191286Y0373179D01*
X0190876Y0372942D01*
X0190418Y0372819D01*
X0188000Y0372819D01*
X0188000Y0376800D01*
X0188000Y0376800D01*
X0188000Y0376800D01*
X0188000Y0380781D01*
X0185582Y0380781D01*
X0185124Y0380658D01*
X0184019Y0379049D02*
X0023837Y0379049D01*
X0024050Y0377450D02*
X0184019Y0377450D01*
X0184019Y0376800D02*
X0184019Y0374382D01*
X0184142Y0373924D01*
X0184379Y0373514D01*
X0184714Y0373179D01*
X0185124Y0372942D01*
X0185582Y0372819D01*
X0188000Y0372819D01*
X0188000Y0376800D01*
X0184019Y0376800D01*
X0184019Y0375852D02*
X0024050Y0375852D01*
X0023757Y0374253D02*
X0154796Y0374253D01*
X0155734Y0375191D02*
X0090734Y0310191D01*
X0089609Y0309066D01*
X0089000Y0307596D01*
X0089000Y0268457D01*
X0074243Y0253700D01*
X0071627Y0253700D01*
X0069091Y0252650D01*
X0067150Y0250709D01*
X0067068Y0250510D01*
X0066583Y0250995D01*
X0065883Y0251504D01*
X0065111Y0251897D01*
X0064288Y0252165D01*
X0063433Y0252300D01*
X0063200Y0252300D01*
X0063200Y0247000D01*
X0062800Y0247000D01*
X0062800Y0252300D01*
X0062567Y0252300D01*
X0061712Y0252165D01*
X0060889Y0251897D01*
X0060117Y0251504D01*
X0059417Y0250995D01*
X0058932Y0250510D01*
X0058850Y0250709D01*
X0056909Y0252650D01*
X0054372Y0253700D01*
X0052288Y0253700D01*
X0052000Y0254396D01*
X0052000Y0287598D01*
X0053800Y0289398D01*
X0053800Y0294202D01*
X0051202Y0296800D01*
X0053800Y0299398D01*
X0053800Y0304202D01*
X0050402Y0307600D01*
X0045598Y0307600D01*
X0042200Y0304202D01*
X0042200Y0299398D01*
X0044798Y0296800D01*
X0042200Y0294202D01*
X0042200Y0289398D01*
X0044000Y0287598D01*
X0044000Y0254396D01*
X0043311Y0252733D01*
X0043311Y0250867D01*
X0044025Y0249144D01*
X0045344Y0247825D01*
X0046100Y0247512D01*
X0046100Y0245427D01*
X0047150Y0242891D01*
X0049091Y0240950D01*
X0051627Y0239900D01*
X0054372Y0239900D01*
X0056909Y0240950D01*
X0058850Y0242891D01*
X0058932Y0243090D01*
X0059417Y0242605D01*
X0060117Y0242096D01*
X0060889Y0241703D01*
X0061712Y0241435D01*
X0062567Y0241300D01*
X0062800Y0241300D01*
X0062800Y0246600D01*
X0063200Y0246600D01*
X0063200Y0241300D01*
X0063433Y0241300D01*
X0064288Y0241435D01*
X0065111Y0241703D01*
X0065883Y0242096D01*
X0066583Y0242605D01*
X0067068Y0243090D01*
X0067150Y0242891D01*
X0069091Y0240950D01*
X0071627Y0239900D01*
X0074372Y0239900D01*
X0076909Y0240950D01*
X0078000Y0242042D01*
X0079091Y0240950D01*
X0081627Y0239900D01*
X0084372Y0239900D01*
X0086909Y0240950D01*
X0088850Y0242891D01*
X0089900Y0245427D01*
X0089900Y0248172D01*
X0088850Y0250709D01*
X0086909Y0252650D01*
X0085210Y0253353D01*
X0096391Y0264534D01*
X0097000Y0266004D01*
X0097000Y0305143D01*
X0159657Y0367800D01*
X0164455Y0367800D01*
X0164091Y0367650D01*
X0162150Y0365709D01*
X0161100Y0363172D01*
X0161100Y0360427D01*
X0162150Y0357891D01*
X0163242Y0356800D01*
X0162150Y0355709D01*
X0161100Y0353172D01*
X0161100Y0350427D01*
X0162150Y0347891D01*
X0164091Y0345950D01*
X0166627Y0344900D01*
X0169372Y0344900D01*
X0171909Y0345950D01*
X0173758Y0347800D01*
X0181343Y0347800D01*
X0182619Y0346524D01*
X0182619Y0343982D01*
X0183106Y0342806D01*
X0184006Y0341906D01*
X0184262Y0341800D01*
X0184006Y0341694D01*
X0183112Y0340800D01*
X0173758Y0340800D01*
X0171909Y0342650D01*
X0169372Y0343700D01*
X0166627Y0343700D01*
X0164091Y0342650D01*
X0162150Y0340709D01*
X0161100Y0338172D01*
X0161100Y0335427D01*
X0162150Y0332891D01*
X0163242Y0331800D01*
X0162150Y0330709D01*
X0161100Y0328172D01*
X0161100Y0325427D01*
X0162150Y0322891D01*
X0164091Y0320950D01*
X0166627Y0319900D01*
X0169372Y0319900D01*
X0171909Y0320950D01*
X0173758Y0322800D01*
X0183112Y0322800D01*
X0184006Y0321906D01*
X0184262Y0321800D01*
X0184006Y0321694D01*
X0183106Y0320794D01*
X0182619Y0319618D01*
X0182619Y0313982D01*
X0183106Y0312806D01*
X0184006Y0311906D01*
X0185182Y0311419D01*
X0190818Y0311419D01*
X0191994Y0311906D01*
X0192894Y0312806D01*
X0193381Y0313982D01*
X0193381Y0319618D01*
X0192894Y0320794D01*
X0191994Y0321694D01*
X0191738Y0321800D01*
X0191994Y0321906D01*
X0192894Y0322806D01*
X0193381Y0323982D01*
X0193381Y0329618D01*
X0192894Y0330794D01*
X0191994Y0331694D01*
X0191738Y0331800D01*
X0191994Y0331906D01*
X0192894Y0332806D01*
X0193381Y0333982D01*
X0193381Y0339618D01*
X0192894Y0340794D01*
X0191994Y0341694D01*
X0191738Y0341800D01*
X0191994Y0341906D01*
X0192894Y0342806D01*
X0193381Y0343982D01*
X0193381Y0349618D01*
X0192894Y0350794D01*
X0191994Y0351694D01*
X0191738Y0351800D01*
X0191994Y0351906D01*
X0192894Y0352806D01*
X0193381Y0353982D01*
X0193381Y0359618D01*
X0192894Y0360794D01*
X0191994Y0361694D01*
X0191738Y0361800D01*
X0191994Y0361906D01*
X0192894Y0362806D01*
X0193381Y0363982D01*
X0193381Y0369618D01*
X0192894Y0370794D01*
X0191994Y0371694D01*
X0190818Y0372181D01*
X0185182Y0372181D01*
X0184006Y0371694D01*
X0183112Y0370800D01*
X0179657Y0370800D01*
X0176391Y0374066D01*
X0175266Y0375191D01*
X0173796Y0375800D01*
X0157204Y0375800D01*
X0155734Y0375191D01*
X0153198Y0372655D02*
X0023329Y0372655D01*
X0022443Y0371056D02*
X0151599Y0371056D01*
X0150001Y0369458D02*
X0021285Y0369458D01*
X0019614Y0367859D02*
X0148402Y0367859D01*
X0146804Y0366261D02*
X0016360Y0366261D01*
X0009640Y0366261D02*
X0007800Y0366261D01*
X0007800Y0364662D02*
X0145205Y0364662D01*
X0143607Y0363064D02*
X0007800Y0363064D01*
X0007800Y0361465D02*
X0142008Y0361465D01*
X0140410Y0359867D02*
X0007800Y0359867D01*
X0007800Y0358268D02*
X0138811Y0358268D01*
X0137213Y0356670D02*
X0007800Y0356670D01*
X0007800Y0355071D02*
X0135614Y0355071D01*
X0134016Y0353472D02*
X0007800Y0353472D01*
X0007800Y0351874D02*
X0132417Y0351874D01*
X0130819Y0350275D02*
X0007800Y0350275D01*
X0007800Y0348677D02*
X0129220Y0348677D01*
X0127622Y0347078D02*
X0007800Y0347078D01*
X0007800Y0345480D02*
X0126023Y0345480D01*
X0124425Y0343881D02*
X0007800Y0343881D01*
X0007800Y0342283D02*
X0122826Y0342283D01*
X0121228Y0340684D02*
X0007800Y0340684D01*
X0007800Y0339086D02*
X0119629Y0339086D01*
X0118031Y0337487D02*
X0007800Y0337487D01*
X0007800Y0335889D02*
X0116432Y0335889D01*
X0114834Y0334290D02*
X0007800Y0334290D01*
X0007800Y0332692D02*
X0113235Y0332692D01*
X0111636Y0331093D02*
X0007800Y0331093D01*
X0007800Y0329495D02*
X0110038Y0329495D01*
X0108439Y0327896D02*
X0007800Y0327896D01*
X0007800Y0326298D02*
X0106841Y0326298D01*
X0105242Y0324699D02*
X0007800Y0324699D01*
X0007800Y0323101D02*
X0103644Y0323101D01*
X0102045Y0321502D02*
X0018295Y0321502D01*
X0020523Y0319904D02*
X0100447Y0319904D01*
X0098848Y0318305D02*
X0022004Y0318305D01*
X0022927Y0316707D02*
X0069704Y0316707D01*
X0070598Y0317600D02*
X0067200Y0314202D01*
X0067200Y0309398D01*
X0070598Y0306000D01*
X0075402Y0306000D01*
X0078800Y0309398D01*
X0078800Y0314202D01*
X0075402Y0317600D01*
X0070598Y0317600D01*
X0068106Y0315108D02*
X0023553Y0315108D01*
X0023982Y0313510D02*
X0067200Y0313510D01*
X0067200Y0311911D02*
X0024050Y0311911D01*
X0024041Y0310313D02*
X0067200Y0310313D01*
X0067883Y0308714D02*
X0023613Y0308714D01*
X0023055Y0307116D02*
X0045113Y0307116D01*
X0043515Y0305517D02*
X0022132Y0305517D01*
X0020746Y0303919D02*
X0042200Y0303919D01*
X0042200Y0302320D02*
X0018680Y0302320D01*
X0007800Y0300722D02*
X0042200Y0300722D01*
X0042474Y0299123D02*
X0007800Y0299123D01*
X0007800Y0297525D02*
X0044073Y0297525D01*
X0043924Y0295926D02*
X0007800Y0295926D01*
X0007800Y0294328D02*
X0042325Y0294328D01*
X0042200Y0292729D02*
X0007800Y0292729D01*
X0007800Y0291131D02*
X0042200Y0291131D01*
X0042200Y0289532D02*
X0007800Y0289532D01*
X0007800Y0287934D02*
X0043664Y0287934D01*
X0044000Y0286335D02*
X0007800Y0286335D01*
X0007800Y0284737D02*
X0009635Y0284737D01*
X0017365Y0284737D02*
X0044000Y0284737D01*
X0044000Y0283138D02*
X0019231Y0283138D01*
X0020325Y0281539D02*
X0044000Y0281539D01*
X0044000Y0279941D02*
X0028077Y0279941D01*
X0029675Y0278342D02*
X0044000Y0278342D01*
X0044000Y0276744D02*
X0030511Y0276744D01*
X0031021Y0275145D02*
X0044000Y0275145D01*
X0044000Y0273547D02*
X0031021Y0273547D01*
X0030680Y0271948D02*
X0044000Y0271948D01*
X0044000Y0270350D02*
X0030018Y0270350D01*
X0028484Y0268751D02*
X0044000Y0268751D01*
X0044000Y0267153D02*
X0007800Y0267153D01*
X0007800Y0268751D02*
X0019776Y0268751D01*
X0018242Y0270350D02*
X0007800Y0270350D01*
X0007800Y0271948D02*
X0008842Y0271948D01*
X0007800Y0265554D02*
X0044000Y0265554D01*
X0044000Y0263956D02*
X0007800Y0263956D01*
X0007800Y0262357D02*
X0044000Y0262357D01*
X0044000Y0260759D02*
X0026924Y0260759D01*
X0029172Y0259160D02*
X0044000Y0259160D01*
X0044000Y0257562D02*
X0030303Y0257562D01*
X0030965Y0255963D02*
X0044000Y0255963D01*
X0043987Y0254365D02*
X0031021Y0254365D01*
X0030888Y0252766D02*
X0043325Y0252766D01*
X0043311Y0251168D02*
X0030226Y0251168D01*
X0028987Y0249569D02*
X0043849Y0249569D01*
X0045198Y0247971D02*
X0026476Y0247971D01*
X0021783Y0247971D02*
X0020702Y0247971D01*
X0020039Y0246372D02*
X0046100Y0246372D01*
X0046371Y0244774D02*
X0018542Y0244774D01*
X0015703Y0243175D02*
X0047033Y0243175D01*
X0048465Y0241577D02*
X0007800Y0241577D01*
X0007800Y0243175D02*
X0011297Y0243175D01*
X0008458Y0244774D02*
X0007800Y0244774D01*
X0007800Y0239978D02*
X0051439Y0239978D01*
X0054561Y0239978D02*
X0071439Y0239978D01*
X0074561Y0239978D02*
X0081439Y0239978D01*
X0084561Y0239978D02*
X0108900Y0239978D01*
X0108900Y0238380D02*
X0007800Y0238380D01*
X0007800Y0236781D02*
X0108900Y0236781D01*
X0108900Y0235183D02*
X0007800Y0235183D01*
X0007800Y0233584D02*
X0108900Y0233584D01*
X0107529Y0231986D02*
X0007800Y0231986D01*
X0007800Y0230387D02*
X0105930Y0230387D01*
X0104332Y0228789D02*
X0007800Y0228789D01*
X0007800Y0227190D02*
X0015788Y0227190D01*
X0016812Y0227614D02*
X0014617Y0226705D01*
X0012937Y0225025D01*
X0012028Y0222830D01*
X0012028Y0220455D01*
X0012937Y0218260D01*
X0014476Y0216721D01*
X0012937Y0215183D01*
X0012028Y0212988D01*
X0012028Y0210612D01*
X0012937Y0208417D01*
X0014476Y0206879D01*
X0012937Y0205340D01*
X0012028Y0203145D01*
X0012028Y0200770D01*
X0012937Y0198575D01*
X0014617Y0196895D01*
X0016812Y0195986D01*
X0019188Y0195986D01*
X0021383Y0196895D01*
X0023063Y0198575D01*
X0023972Y0200770D01*
X0023972Y0203145D01*
X0023063Y0205340D01*
X0021524Y0206879D01*
X0023063Y0208417D01*
X0023972Y0210612D01*
X0023972Y0212988D01*
X0023063Y0215183D01*
X0021524Y0216721D01*
X0023063Y0218260D01*
X0023972Y0220455D01*
X0023972Y0222830D01*
X0023063Y0225025D01*
X0021383Y0226705D01*
X0019188Y0227614D01*
X0016812Y0227614D01*
X0020212Y0227190D02*
X0102733Y0227190D01*
X0101135Y0225592D02*
X0022496Y0225592D01*
X0023490Y0223993D02*
X0099536Y0223993D01*
X0097938Y0222395D02*
X0023972Y0222395D01*
X0023972Y0220796D02*
X0096339Y0220796D01*
X0094741Y0219198D02*
X0023451Y0219198D01*
X0022402Y0217599D02*
X0093142Y0217599D01*
X0091544Y0216001D02*
X0022245Y0216001D01*
X0023386Y0214402D02*
X0089945Y0214402D01*
X0088347Y0212803D02*
X0023972Y0212803D01*
X0023972Y0211205D02*
X0086748Y0211205D01*
X0085150Y0209606D02*
X0023555Y0209606D01*
X0022653Y0208008D02*
X0083551Y0208008D01*
X0081953Y0206409D02*
X0021993Y0206409D01*
X0023282Y0204811D02*
X0080354Y0204811D01*
X0078756Y0203212D02*
X0023944Y0203212D01*
X0023972Y0201614D02*
X0077157Y0201614D01*
X0075559Y0200015D02*
X0023659Y0200015D01*
X0022905Y0198417D02*
X0073960Y0198417D01*
X0072362Y0196818D02*
X0021198Y0196818D01*
X0014802Y0196818D02*
X0007800Y0196818D01*
X0007800Y0195220D02*
X0070763Y0195220D01*
X0069165Y0193621D02*
X0007800Y0193621D01*
X0007800Y0192023D02*
X0067566Y0192023D01*
X0065967Y0190424D02*
X0007800Y0190424D01*
X0007800Y0188826D02*
X0064369Y0188826D01*
X0062770Y0187227D02*
X0007800Y0187227D01*
X0007800Y0185629D02*
X0045198Y0185629D01*
X0043849Y0184030D02*
X0007800Y0184030D01*
X0007800Y0182432D02*
X0043311Y0182432D01*
X0043325Y0180833D02*
X0007800Y0180833D01*
X0007800Y0179235D02*
X0043987Y0179235D01*
X0045799Y0177636D02*
X0021922Y0177636D01*
X0023520Y0176038D02*
X0032819Y0176038D01*
X0031575Y0174439D02*
X0024375Y0174439D01*
X0024900Y0172841D02*
X0030596Y0172841D01*
X0028998Y0171242D02*
X0024900Y0171242D01*
X0024575Y0169644D02*
X0027399Y0169644D01*
X0025801Y0168045D02*
X0023913Y0168045D01*
X0024202Y0166447D02*
X0022405Y0166447D01*
X0022584Y0164848D02*
X0022604Y0164848D01*
X0017800Y0161651D02*
X0007800Y0161651D01*
X0007800Y0160053D02*
X0012785Y0160053D01*
X0013633Y0158454D02*
X0007800Y0158454D01*
X0007800Y0156856D02*
X0014611Y0156856D01*
X0013013Y0155257D02*
X0007800Y0155257D01*
X0007800Y0153659D02*
X0011414Y0153659D01*
X0009816Y0152060D02*
X0007800Y0152060D01*
X0007800Y0150462D02*
X0008217Y0150462D01*
X0007900Y0144488D02*
X0035800Y0172388D01*
X0037570Y0168045D02*
X0038588Y0168045D01*
X0039687Y0169644D02*
X0040187Y0169644D01*
X0040401Y0171242D02*
X0041785Y0171242D01*
X0040489Y0172841D02*
X0043384Y0172841D01*
X0044982Y0174439D02*
X0040025Y0174439D01*
X0038781Y0176038D02*
X0046581Y0176038D01*
X0048000Y0181800D02*
X0063000Y0181800D01*
X0112900Y0231700D01*
X0112900Y0258912D01*
X0115887Y0261900D01*
X0120112Y0261900D01*
X0141213Y0240800D01*
X0202257Y0240800D01*
X0206800Y0236257D01*
X0206800Y0207343D01*
X0198000Y0198543D01*
X0198000Y0196800D01*
X0192315Y0191800D02*
X0192115Y0191717D01*
X0190483Y0190085D01*
X0189600Y0187954D01*
X0189600Y0185646D01*
X0190483Y0183515D01*
X0192115Y0181883D01*
X0192315Y0181800D01*
X0192115Y0181717D01*
X0190483Y0180085D01*
X0189600Y0177954D01*
X0189600Y0175646D01*
X0190483Y0173515D01*
X0192115Y0171883D01*
X0194177Y0171029D01*
X0193711Y0170878D01*
X0193094Y0170563D01*
X0192534Y0170156D01*
X0192044Y0169666D01*
X0191637Y0169106D01*
X0191322Y0168489D01*
X0191108Y0167830D01*
X0191000Y0167146D01*
X0191000Y0166800D01*
X0198000Y0166800D01*
X0198000Y0166800D01*
X0191000Y0166800D01*
X0191000Y0166454D01*
X0191108Y0165770D01*
X0191322Y0165111D01*
X0191637Y0164494D01*
X0192044Y0163934D01*
X0192534Y0163444D01*
X0193094Y0163037D01*
X0193711Y0162722D01*
X0194177Y0162571D01*
X0192115Y0161717D01*
X0190483Y0160085D01*
X0189600Y0157954D01*
X0189600Y0155646D01*
X0190483Y0153515D01*
X0192115Y0151883D01*
X0192315Y0151800D01*
X0192115Y0151717D01*
X0190483Y0150085D01*
X0189600Y0147954D01*
X0189600Y0145646D01*
X0190483Y0143515D01*
X0192115Y0141883D01*
X0192315Y0141800D01*
X0192115Y0141717D01*
X0190483Y0140085D01*
X0189600Y0137954D01*
X0189600Y0135646D01*
X0190483Y0133515D01*
X0192115Y0131883D01*
X0192315Y0131800D01*
X0192115Y0131717D01*
X0190483Y0130085D01*
X0189600Y0127954D01*
X0189600Y0125646D01*
X0190483Y0123515D01*
X0192115Y0121883D01*
X0194246Y0121000D01*
X0199000Y0121000D01*
X0199000Y0115800D01*
X0170596Y0115800D01*
X0168933Y0116489D01*
X0167067Y0116489D01*
X0165344Y0115775D01*
X0165013Y0115444D01*
X0153800Y0126657D01*
X0153800Y0126800D01*
X0154086Y0126800D01*
X0161477Y0119409D01*
X0162947Y0118800D01*
X0173053Y0118800D01*
X0174523Y0119409D01*
X0176866Y0121752D01*
X0177991Y0122877D01*
X0178600Y0124347D01*
X0178600Y0181743D01*
X0190450Y0193593D01*
X0190483Y0193515D01*
X0192115Y0191883D01*
X0192315Y0191800D01*
X0191975Y0192023D02*
X0188880Y0192023D01*
X0187281Y0190424D02*
X0190822Y0190424D01*
X0189961Y0188826D02*
X0185683Y0188826D01*
X0184084Y0187227D02*
X0189600Y0187227D01*
X0189607Y0185629D02*
X0182486Y0185629D01*
X0180887Y0184030D02*
X0190269Y0184030D01*
X0191566Y0182432D02*
X0179289Y0182432D01*
X0178600Y0180833D02*
X0191231Y0180833D01*
X0190131Y0179235D02*
X0178600Y0179235D01*
X0178600Y0177636D02*
X0189600Y0177636D01*
X0189600Y0176038D02*
X0178600Y0176038D01*
X0178600Y0174439D02*
X0190100Y0174439D01*
X0191157Y0172841D02*
X0178600Y0172841D01*
X0178600Y0171242D02*
X0193662Y0171242D01*
X0192027Y0169644D02*
X0178600Y0169644D01*
X0178600Y0168045D02*
X0191178Y0168045D01*
X0191001Y0166447D02*
X0178600Y0166447D01*
X0178600Y0164848D02*
X0191456Y0164848D01*
X0192801Y0163250D02*
X0178600Y0163250D01*
X0178600Y0161651D02*
X0192049Y0161651D01*
X0190469Y0160053D02*
X0178600Y0160053D01*
X0178600Y0158454D02*
X0189807Y0158454D01*
X0189600Y0156856D02*
X0178600Y0156856D01*
X0178600Y0155257D02*
X0189761Y0155257D01*
X0190423Y0153659D02*
X0178600Y0153659D01*
X0178600Y0152060D02*
X0191937Y0152060D01*
X0190859Y0150462D02*
X0178600Y0150462D01*
X0178600Y0148863D02*
X0189977Y0148863D01*
X0189600Y0147265D02*
X0178600Y0147265D01*
X0178600Y0145666D02*
X0189600Y0145666D01*
X0190254Y0144068D02*
X0178600Y0144068D01*
X0178600Y0142469D02*
X0191529Y0142469D01*
X0191268Y0140870D02*
X0178600Y0140870D01*
X0178600Y0139272D02*
X0190146Y0139272D01*
X0189600Y0137673D02*
X0178600Y0137673D01*
X0178600Y0136075D02*
X0189600Y0136075D01*
X0190085Y0134476D02*
X0178600Y0134476D01*
X0178600Y0132878D02*
X0191120Y0132878D01*
X0191677Y0131279D02*
X0178600Y0131279D01*
X0178600Y0129681D02*
X0190315Y0129681D01*
X0189653Y0128082D02*
X0178600Y0128082D01*
X0178600Y0126484D02*
X0189600Y0126484D01*
X0189915Y0124885D02*
X0178600Y0124885D01*
X0178161Y0123287D02*
X0190711Y0123287D01*
X0192584Y0121688D02*
X0176802Y0121688D01*
X0176866Y0121752D02*
X0176866Y0121752D01*
X0175204Y0120090D02*
X0199000Y0120090D01*
X0199000Y0118491D02*
X0161966Y0118491D01*
X0160796Y0120090D02*
X0160367Y0120090D01*
X0159198Y0121688D02*
X0158768Y0121688D01*
X0157599Y0123287D02*
X0157170Y0123287D01*
X0156001Y0124885D02*
X0155571Y0124885D01*
X0154402Y0126484D02*
X0153973Y0126484D01*
X0155743Y0130800D02*
X0163743Y0122800D01*
X0172257Y0122800D01*
X0174600Y0125143D01*
X0174600Y0183400D01*
X0198000Y0206800D01*
X0202257Y0212800D02*
X0192257Y0212800D01*
X0172257Y0192800D01*
X0163743Y0192800D01*
X0161943Y0194600D01*
X0098911Y0194600D01*
X0098000Y0193689D01*
X0098000Y0176800D01*
X0088000Y0176800D01*
X0090596Y0172800D02*
X0098796Y0172800D01*
X0100266Y0173409D01*
X0101391Y0174534D01*
X0102000Y0176004D01*
X0102000Y0190600D01*
X0160286Y0190600D01*
X0161477Y0189409D01*
X0161769Y0189288D01*
X0161637Y0189106D01*
X0161322Y0188489D01*
X0161108Y0187830D01*
X0161000Y0187146D01*
X0161000Y0186800D01*
X0168000Y0186800D01*
X0168000Y0186800D01*
X0161000Y0186800D01*
X0161000Y0186454D01*
X0161108Y0185770D01*
X0161322Y0185111D01*
X0161637Y0184494D01*
X0162044Y0183934D01*
X0162534Y0183444D01*
X0163094Y0183037D01*
X0163711Y0182722D01*
X0164177Y0182571D01*
X0162115Y0181717D01*
X0161198Y0180800D01*
X0110596Y0180800D01*
X0108933Y0181489D01*
X0107067Y0181489D01*
X0105344Y0180775D01*
X0104025Y0179456D01*
X0103311Y0177733D01*
X0103311Y0175867D01*
X0104025Y0174144D01*
X0105344Y0172825D01*
X0107067Y0172111D01*
X0108933Y0172111D01*
X0110596Y0172800D01*
X0161198Y0172800D01*
X0162115Y0171883D01*
X0162315Y0171800D01*
X0162115Y0171717D01*
X0161198Y0170800D01*
X0077657Y0170800D01*
X0083311Y0176454D01*
X0083311Y0175867D01*
X0084025Y0174144D01*
X0085344Y0172825D01*
X0087067Y0172111D01*
X0088933Y0172111D01*
X0090596Y0172800D01*
X0085328Y0172841D02*
X0079698Y0172841D01*
X0081296Y0174439D02*
X0083903Y0174439D01*
X0083311Y0176038D02*
X0082895Y0176038D01*
X0078099Y0171242D02*
X0161640Y0171242D01*
X0168000Y0166800D02*
X0073000Y0166800D01*
X0058000Y0156800D02*
X0118000Y0216800D01*
X0168000Y0216800D01*
X0168000Y0226800D02*
X0118000Y0226800D01*
X0123758Y0230800D02*
X0121909Y0232650D01*
X0121710Y0232732D01*
X0122195Y0233217D01*
X0122704Y0233917D01*
X0123097Y0234689D01*
X0123365Y0235512D01*
X0123500Y0236367D01*
X0123500Y0236600D01*
X0118200Y0236600D01*
X0118200Y0237000D01*
X0123500Y0237000D01*
X0123500Y0237233D01*
X0123365Y0238088D01*
X0123097Y0238911D01*
X0122704Y0239683D01*
X0122195Y0240383D01*
X0121710Y0240868D01*
X0121909Y0240950D01*
X0123850Y0242891D01*
X0124900Y0245427D01*
X0124900Y0248172D01*
X0123850Y0250709D01*
X0122758Y0251800D01*
X0123657Y0252699D01*
X0138947Y0237409D01*
X0140417Y0236800D01*
X0142008Y0236800D01*
X0159600Y0236800D01*
X0159600Y0236800D01*
X0128204Y0236800D01*
X0126734Y0236191D01*
X0125609Y0235066D01*
X0124609Y0234066D01*
X0124000Y0232596D01*
X0124000Y0231004D01*
X0124085Y0230800D01*
X0123758Y0230800D01*
X0124000Y0231986D02*
X0122572Y0231986D01*
X0122462Y0233584D02*
X0124409Y0233584D01*
X0123258Y0235183D02*
X0125726Y0235183D01*
X0128159Y0236781D02*
X0118200Y0236781D01*
X0123270Y0238380D02*
X0137976Y0238380D01*
X0136377Y0239978D02*
X0122489Y0239978D01*
X0122535Y0241577D02*
X0134779Y0241577D01*
X0133180Y0243175D02*
X0123967Y0243175D01*
X0124629Y0244774D02*
X0131582Y0244774D01*
X0129983Y0246372D02*
X0124900Y0246372D01*
X0124900Y0247971D02*
X0128385Y0247971D01*
X0126786Y0249569D02*
X0124321Y0249569D01*
X0125188Y0251168D02*
X0123390Y0251168D01*
X0130108Y0257562D02*
X0159600Y0257562D01*
X0159600Y0255963D02*
X0131706Y0255963D01*
X0133305Y0254365D02*
X0160131Y0254365D01*
X0161231Y0252766D02*
X0134903Y0252766D01*
X0136502Y0251168D02*
X0161565Y0251168D01*
X0160269Y0249569D02*
X0138100Y0249569D01*
X0139699Y0247971D02*
X0159607Y0247971D01*
X0159600Y0246372D02*
X0141297Y0246372D01*
X0129000Y0232800D02*
X0172257Y0232800D01*
X0176257Y0236800D01*
X0198000Y0236800D01*
X0202257Y0230800D02*
X0129000Y0230800D01*
X0128000Y0231800D01*
X0129000Y0232800D01*
X0108900Y0241577D02*
X0087535Y0241577D01*
X0088967Y0243175D02*
X0108900Y0243175D01*
X0108900Y0244774D02*
X0089629Y0244774D01*
X0089900Y0246372D02*
X0108900Y0246372D01*
X0108900Y0247971D02*
X0089900Y0247971D01*
X0089321Y0249569D02*
X0108900Y0249569D01*
X0108900Y0251168D02*
X0088390Y0251168D01*
X0086627Y0252766D02*
X0108900Y0252766D01*
X0108900Y0254365D02*
X0086222Y0254365D01*
X0087820Y0255963D02*
X0108900Y0255963D01*
X0108900Y0257562D02*
X0089419Y0257562D01*
X0091017Y0259160D02*
X0108900Y0259160D01*
X0109335Y0260759D02*
X0092616Y0260759D01*
X0094214Y0262357D02*
X0110688Y0262357D01*
X0112287Y0263956D02*
X0095813Y0263956D01*
X0096814Y0265554D02*
X0114257Y0265554D01*
X0121743Y0265554D02*
X0268843Y0265554D01*
X0268843Y0263956D02*
X0123713Y0263956D01*
X0125312Y0262357D02*
X0163661Y0262357D01*
X0161156Y0260759D02*
X0126911Y0260759D01*
X0128509Y0259160D02*
X0160100Y0259160D01*
X0161773Y0265789D02*
X0159506Y0266728D01*
X0157771Y0268463D01*
X0156831Y0270730D01*
X0156831Y0273184D01*
X0157771Y0275452D01*
X0159506Y0277187D01*
X0161773Y0278126D01*
X0164227Y0278126D01*
X0166494Y0277187D01*
X0168229Y0275452D01*
X0169168Y0273184D01*
X0169168Y0270730D01*
X0168229Y0268463D01*
X0166494Y0266728D01*
X0164227Y0265789D01*
X0161773Y0265789D01*
X0159081Y0267153D02*
X0097000Y0267153D01*
X0097000Y0268751D02*
X0157651Y0268751D01*
X0156989Y0270350D02*
X0097000Y0270350D01*
X0097000Y0271948D02*
X0156831Y0271948D01*
X0156982Y0273547D02*
X0097000Y0273547D01*
X0097000Y0275145D02*
X0157644Y0275145D01*
X0159063Y0276744D02*
X0126146Y0276744D01*
X0125402Y0276000D02*
X0128800Y0279398D01*
X0128800Y0284202D01*
X0125402Y0287600D01*
X0120598Y0287600D01*
X0117200Y0284202D01*
X0117200Y0279398D01*
X0120598Y0276000D01*
X0125402Y0276000D01*
X0127745Y0278342D02*
X0268843Y0278342D01*
X0268843Y0276744D02*
X0166937Y0276744D01*
X0168356Y0275145D02*
X0268843Y0275145D01*
X0268843Y0273547D02*
X0169018Y0273547D01*
X0169168Y0271948D02*
X0268843Y0271948D01*
X0268843Y0270350D02*
X0169011Y0270350D01*
X0168349Y0268751D02*
X0268843Y0268751D01*
X0268843Y0267153D02*
X0166919Y0267153D01*
X0172339Y0262357D02*
X0193661Y0262357D01*
X0191156Y0260759D02*
X0174844Y0260759D01*
X0175900Y0259160D02*
X0190100Y0259160D01*
X0189600Y0257562D02*
X0176400Y0257562D01*
X0176400Y0255963D02*
X0189600Y0255963D01*
X0190131Y0254365D02*
X0175869Y0254365D01*
X0174769Y0252766D02*
X0191231Y0252766D01*
X0193841Y0251168D02*
X0174435Y0251168D01*
X0175731Y0249569D02*
X0191973Y0249569D01*
X0191154Y0247971D02*
X0176393Y0247971D01*
X0176400Y0246372D02*
X0191013Y0246372D01*
X0202159Y0251168D02*
X0208600Y0251168D01*
X0208600Y0251800D02*
X0208600Y0249977D01*
X0211177Y0247400D01*
X0213000Y0247400D01*
X0214823Y0247400D01*
X0217200Y0249777D01*
X0217200Y0249398D01*
X0220598Y0246000D01*
X0225402Y0246000D01*
X0228800Y0249398D01*
X0228800Y0254202D01*
X0225402Y0257600D01*
X0220598Y0257600D01*
X0217200Y0254202D01*
X0217200Y0253823D01*
X0214823Y0256200D01*
X0213000Y0256200D01*
X0213000Y0251800D01*
X0213000Y0251800D01*
X0213000Y0256200D01*
X0211177Y0256200D01*
X0208600Y0253623D01*
X0208600Y0251800D01*
X0213000Y0251800D01*
X0213000Y0247400D01*
X0213000Y0251800D01*
X0213000Y0251800D01*
X0213000Y0251800D01*
X0208600Y0251800D01*
X0208600Y0252766D02*
X0204769Y0252766D01*
X0205869Y0254365D02*
X0209342Y0254365D01*
X0210941Y0255963D02*
X0206400Y0255963D01*
X0206400Y0257562D02*
X0220559Y0257562D01*
X0218961Y0255963D02*
X0215059Y0255963D01*
X0213000Y0255963D02*
X0213000Y0255963D01*
X0213000Y0254365D02*
X0213000Y0254365D01*
X0213000Y0252766D02*
X0213000Y0252766D01*
X0213000Y0251168D02*
X0213000Y0251168D01*
X0213000Y0249569D02*
X0213000Y0249569D01*
X0213000Y0247971D02*
X0213000Y0247971D01*
X0215393Y0247971D02*
X0218627Y0247971D01*
X0217200Y0249569D02*
X0216992Y0249569D01*
X0220225Y0246372D02*
X0204987Y0246372D01*
X0204846Y0247971D02*
X0210607Y0247971D01*
X0209008Y0249569D02*
X0204027Y0249569D01*
X0204506Y0244774D02*
X0240317Y0244774D01*
X0241915Y0246372D02*
X0225775Y0246372D01*
X0227373Y0247971D02*
X0243514Y0247971D01*
X0245112Y0249569D02*
X0228800Y0249569D01*
X0228800Y0251168D02*
X0246711Y0251168D01*
X0248309Y0252766D02*
X0228800Y0252766D01*
X0228638Y0254365D02*
X0249908Y0254365D01*
X0251506Y0255963D02*
X0227039Y0255963D01*
X0225441Y0257562D02*
X0253105Y0257562D01*
X0254609Y0259066D02*
X0237007Y0241464D01*
X0235344Y0240775D01*
X0234025Y0239456D01*
X0233311Y0237733D01*
X0233311Y0235867D01*
X0234025Y0234144D01*
X0235344Y0232825D01*
X0237067Y0232111D01*
X0238933Y0232111D01*
X0240656Y0232825D01*
X0241975Y0234144D01*
X0242664Y0235807D01*
X0259657Y0252800D01*
X0260404Y0252800D01*
X0262067Y0252111D01*
X0263933Y0252111D01*
X0265656Y0252825D01*
X0266975Y0254144D01*
X0267689Y0255867D01*
X0267689Y0257733D01*
X0266975Y0259456D01*
X0265656Y0260775D01*
X0263933Y0261489D01*
X0262067Y0261489D01*
X0260404Y0260800D01*
X0257204Y0260800D01*
X0255734Y0260191D01*
X0254609Y0259066D01*
X0254703Y0259160D02*
X0205900Y0259160D01*
X0204844Y0260759D02*
X0257105Y0260759D01*
X0258000Y0256800D02*
X0263000Y0256800D01*
X0267098Y0259160D02*
X0268843Y0259160D01*
X0268843Y0257562D02*
X0267689Y0257562D01*
X0267689Y0255963D02*
X0268843Y0255963D01*
X0268843Y0254365D02*
X0267067Y0254365D01*
X0265515Y0252766D02*
X0268843Y0252766D01*
X0268843Y0251168D02*
X0258025Y0251168D01*
X0259623Y0252766D02*
X0260485Y0252766D01*
X0258000Y0256800D02*
X0238000Y0236800D01*
X0233311Y0236781D02*
X0210800Y0236781D01*
X0210800Y0235183D02*
X0233595Y0235183D01*
X0234585Y0233584D02*
X0210800Y0233584D01*
X0210800Y0231986D02*
X0258428Y0231986D01*
X0259091Y0232650D02*
X0257150Y0230709D01*
X0256100Y0228172D01*
X0256100Y0225427D01*
X0257150Y0222891D01*
X0258242Y0221800D01*
X0257150Y0220709D01*
X0256100Y0218172D01*
X0256100Y0215427D01*
X0257150Y0212891D01*
X0258242Y0211800D01*
X0257150Y0210709D01*
X0256100Y0208172D01*
X0256100Y0205427D01*
X0257150Y0202891D01*
X0258242Y0201800D01*
X0257150Y0200709D01*
X0256100Y0198172D01*
X0256100Y0195427D01*
X0257150Y0192891D01*
X0258242Y0191800D01*
X0257150Y0190709D01*
X0256100Y0188172D01*
X0256100Y0185427D01*
X0257150Y0182891D01*
X0258242Y0181800D01*
X0257150Y0180709D01*
X0256100Y0178172D01*
X0256100Y0175427D01*
X0257150Y0172891D01*
X0258242Y0171800D01*
X0257150Y0170709D01*
X0256100Y0168172D01*
X0256100Y0165427D01*
X0257150Y0162891D01*
X0259020Y0161022D01*
X0257200Y0159202D01*
X0257200Y0154398D01*
X0260598Y0151000D01*
X0260977Y0151000D01*
X0258600Y0148623D01*
X0258600Y0146800D01*
X0263000Y0146800D01*
X0267400Y0146800D01*
X0267400Y0148623D01*
X0265023Y0151000D01*
X0265402Y0151000D01*
X0268800Y0154398D01*
X0268800Y0159202D01*
X0266980Y0161022D01*
X0268850Y0162891D01*
X0269900Y0165427D01*
X0269900Y0168172D01*
X0268850Y0170709D01*
X0267758Y0171800D01*
X0268850Y0172891D01*
X0269900Y0175427D01*
X0269900Y0178172D01*
X0268850Y0180709D01*
X0267758Y0181800D01*
X0268850Y0182891D01*
X0269900Y0185427D01*
X0269900Y0188172D01*
X0268850Y0190709D01*
X0267758Y0191800D01*
X0268850Y0192891D01*
X0269900Y0195427D01*
X0269900Y0198172D01*
X0268850Y0200709D01*
X0267758Y0201800D01*
X0268850Y0202891D01*
X0269900Y0205427D01*
X0269900Y0208172D01*
X0268850Y0210709D01*
X0267758Y0211800D01*
X0268850Y0212891D01*
X0269900Y0215427D01*
X0269900Y0218172D01*
X0268850Y0220709D01*
X0267758Y0221800D01*
X0268850Y0222891D01*
X0269900Y0225427D01*
X0269900Y0228172D01*
X0268850Y0230709D01*
X0266909Y0232650D01*
X0264372Y0233700D01*
X0261627Y0233700D01*
X0259091Y0232650D01*
X0261348Y0233584D02*
X0241415Y0233584D01*
X0242405Y0235183D02*
X0279792Y0235183D01*
X0279600Y0236781D02*
X0243638Y0236781D01*
X0245237Y0238380D02*
X0279776Y0238380D01*
X0279165Y0239978D02*
X0246835Y0239978D01*
X0248434Y0241577D02*
X0277566Y0241577D01*
X0275968Y0243175D02*
X0250032Y0243175D01*
X0251631Y0244774D02*
X0274369Y0244774D01*
X0272771Y0246372D02*
X0253229Y0246372D01*
X0254828Y0247971D02*
X0271172Y0247971D01*
X0269574Y0249569D02*
X0256426Y0249569D01*
X0265672Y0260759D02*
X0268843Y0260759D01*
X0268843Y0262357D02*
X0202339Y0262357D01*
X0216658Y0254365D02*
X0217362Y0254365D01*
X0205538Y0243175D02*
X0238718Y0243175D01*
X0237120Y0241577D02*
X0207137Y0241577D01*
X0208736Y0239978D02*
X0234547Y0239978D01*
X0233579Y0238380D02*
X0210250Y0238380D01*
X0210800Y0230387D02*
X0257017Y0230387D01*
X0256355Y0228789D02*
X0210800Y0228789D01*
X0210800Y0227190D02*
X0256100Y0227190D01*
X0256100Y0225592D02*
X0210800Y0225592D01*
X0210800Y0223993D02*
X0256694Y0223993D01*
X0257647Y0222395D02*
X0210800Y0222395D01*
X0210800Y0220796D02*
X0257238Y0220796D01*
X0256525Y0219198D02*
X0210800Y0219198D01*
X0210800Y0217599D02*
X0256100Y0217599D01*
X0256100Y0216001D02*
X0210800Y0216001D01*
X0210800Y0214402D02*
X0256525Y0214402D01*
X0257238Y0212803D02*
X0210800Y0212803D01*
X0210800Y0211205D02*
X0257647Y0211205D01*
X0256694Y0209606D02*
X0210800Y0209606D01*
X0210800Y0208008D02*
X0256100Y0208008D01*
X0256100Y0206409D02*
X0210743Y0206409D01*
X0209925Y0204811D02*
X0256355Y0204811D01*
X0257018Y0203212D02*
X0208326Y0203212D01*
X0206728Y0201614D02*
X0258056Y0201614D01*
X0256863Y0200015D02*
X0205546Y0200015D01*
X0206208Y0198417D02*
X0256201Y0198417D01*
X0256100Y0196818D02*
X0226041Y0196818D01*
X0226285Y0196717D02*
X0224154Y0197600D01*
X0221846Y0197600D01*
X0219715Y0196717D01*
X0218083Y0195085D01*
X0217200Y0192954D01*
X0217200Y0190646D01*
X0218083Y0188515D01*
X0219715Y0186883D01*
X0221846Y0186000D01*
X0224154Y0186000D01*
X0226285Y0186883D01*
X0227917Y0188515D01*
X0228800Y0190646D01*
X0228800Y0192954D01*
X0227917Y0195085D01*
X0226285Y0196717D01*
X0227783Y0195220D02*
X0240197Y0195220D01*
X0241177Y0196200D02*
X0238600Y0193623D01*
X0238600Y0191800D01*
X0243000Y0191800D01*
X0247400Y0191800D01*
X0247400Y0193623D01*
X0244823Y0196200D01*
X0243000Y0196200D01*
X0243000Y0191800D01*
X0243000Y0191800D01*
X0243000Y0191800D01*
X0247400Y0191800D01*
X0247400Y0189977D01*
X0244823Y0187400D01*
X0243000Y0187400D01*
X0243000Y0191800D01*
X0243000Y0191800D01*
X0243000Y0191800D01*
X0243000Y0196200D01*
X0241177Y0196200D01*
X0243000Y0195220D02*
X0243000Y0195220D01*
X0243000Y0193621D02*
X0243000Y0193621D01*
X0243000Y0192023D02*
X0243000Y0192023D01*
X0243000Y0191800D02*
X0238600Y0191800D01*
X0238600Y0189977D01*
X0241177Y0187400D01*
X0243000Y0187400D01*
X0243000Y0191800D01*
X0243000Y0190424D02*
X0243000Y0190424D01*
X0243000Y0188826D02*
X0243000Y0188826D01*
X0246248Y0188826D02*
X0256371Y0188826D01*
X0256100Y0187227D02*
X0226630Y0187227D01*
X0228046Y0188826D02*
X0239752Y0188826D01*
X0238600Y0190424D02*
X0228708Y0190424D01*
X0228800Y0192023D02*
X0238600Y0192023D01*
X0238600Y0193621D02*
X0228523Y0193621D01*
X0219959Y0196818D02*
X0206400Y0196818D01*
X0206223Y0195220D02*
X0218217Y0195220D01*
X0217477Y0193621D02*
X0205561Y0193621D01*
X0204025Y0192023D02*
X0217200Y0192023D01*
X0217292Y0190424D02*
X0205178Y0190424D01*
X0206039Y0188826D02*
X0217954Y0188826D01*
X0219370Y0187227D02*
X0206400Y0187227D01*
X0206393Y0185629D02*
X0256100Y0185629D01*
X0256679Y0184030D02*
X0205731Y0184030D01*
X0206282Y0182432D02*
X0257610Y0182432D01*
X0257275Y0180833D02*
X0207880Y0180833D01*
X0206866Y0181848D02*
X0206866Y0181848D01*
X0208600Y0179235D02*
X0256540Y0179235D01*
X0256100Y0177636D02*
X0208600Y0177636D01*
X0208600Y0176038D02*
X0256100Y0176038D01*
X0256509Y0174439D02*
X0208600Y0174439D01*
X0208600Y0172841D02*
X0257201Y0172841D01*
X0257684Y0171242D02*
X0208600Y0171242D01*
X0208600Y0169644D02*
X0256709Y0169644D01*
X0256100Y0168045D02*
X0208600Y0168045D01*
X0208600Y0166447D02*
X0256100Y0166447D01*
X0256340Y0164848D02*
X0208600Y0164848D01*
X0208600Y0163250D02*
X0257002Y0163250D01*
X0258391Y0161651D02*
X0208600Y0161651D01*
X0208600Y0160053D02*
X0258050Y0160053D01*
X0257200Y0158454D02*
X0208600Y0158454D01*
X0208600Y0156856D02*
X0257200Y0156856D01*
X0257200Y0155257D02*
X0208600Y0155257D01*
X0208600Y0153659D02*
X0257939Y0153659D01*
X0259537Y0152060D02*
X0208600Y0152060D01*
X0208600Y0150462D02*
X0260439Y0150462D01*
X0258841Y0148863D02*
X0208600Y0148863D01*
X0208600Y0147265D02*
X0258600Y0147265D01*
X0258600Y0146800D02*
X0258600Y0144977D01*
X0260977Y0142600D01*
X0260598Y0142600D01*
X0257200Y0139202D01*
X0257200Y0134398D01*
X0260598Y0131000D01*
X0265402Y0131000D01*
X0268800Y0134398D01*
X0268800Y0139202D01*
X0265402Y0142600D01*
X0265023Y0142600D01*
X0267400Y0144977D01*
X0267400Y0146800D01*
X0263000Y0146800D01*
X0263000Y0146800D01*
X0263000Y0146800D01*
X0258600Y0146800D01*
X0258600Y0145666D02*
X0208600Y0145666D01*
X0208600Y0144068D02*
X0259510Y0144068D01*
X0260467Y0142469D02*
X0250533Y0142469D01*
X0250402Y0142600D02*
X0245598Y0142600D01*
X0242200Y0139202D01*
X0242200Y0134398D01*
X0245598Y0131000D01*
X0250402Y0131000D01*
X0253800Y0134398D01*
X0253800Y0139202D01*
X0250402Y0142600D01*
X0252132Y0140870D02*
X0258868Y0140870D01*
X0257270Y0139272D02*
X0253730Y0139272D01*
X0253800Y0137673D02*
X0257200Y0137673D01*
X0257200Y0136075D02*
X0253800Y0136075D01*
X0253800Y0134476D02*
X0257200Y0134476D01*
X0258720Y0132878D02*
X0252280Y0132878D01*
X0250682Y0131279D02*
X0260318Y0131279D01*
X0265682Y0131279D02*
X0269000Y0131279D01*
X0269000Y0129681D02*
X0208600Y0129681D01*
X0208600Y0131279D02*
X0215318Y0131279D01*
X0215598Y0131000D02*
X0220402Y0131000D01*
X0223800Y0134398D01*
X0223800Y0139202D01*
X0220402Y0142600D01*
X0215598Y0142600D01*
X0212200Y0139202D01*
X0212200Y0134398D01*
X0215598Y0131000D01*
X0213720Y0132878D02*
X0208600Y0132878D01*
X0208600Y0134476D02*
X0212200Y0134476D01*
X0212200Y0136075D02*
X0208600Y0136075D01*
X0208600Y0137673D02*
X0212200Y0137673D01*
X0212270Y0139272D02*
X0208600Y0139272D01*
X0208600Y0140870D02*
X0213868Y0140870D01*
X0215467Y0142469D02*
X0208600Y0142469D01*
X0220533Y0142469D02*
X0230467Y0142469D01*
X0230598Y0142600D02*
X0227200Y0139202D01*
X0227200Y0134398D01*
X0230598Y0131000D01*
X0235402Y0131000D01*
X0238800Y0134398D01*
X0238800Y0139202D01*
X0235402Y0142600D01*
X0230598Y0142600D01*
X0228868Y0140870D02*
X0222132Y0140870D01*
X0223730Y0139272D02*
X0227270Y0139272D01*
X0227200Y0137673D02*
X0223800Y0137673D01*
X0223800Y0136075D02*
X0227200Y0136075D01*
X0227200Y0134476D02*
X0223800Y0134476D01*
X0222280Y0132878D02*
X0228720Y0132878D01*
X0230318Y0131279D02*
X0220682Y0131279D01*
X0208600Y0128082D02*
X0269000Y0128082D01*
X0269000Y0126484D02*
X0208600Y0126484D01*
X0208600Y0124885D02*
X0269000Y0124885D01*
X0269000Y0123287D02*
X0208161Y0123287D01*
X0207000Y0121688D02*
X0269000Y0121688D01*
X0269000Y0120090D02*
X0207000Y0120090D01*
X0207000Y0118491D02*
X0269000Y0118491D01*
X0269000Y0116893D02*
X0207000Y0116893D01*
X0207000Y0115294D02*
X0269000Y0115294D01*
X0269000Y0113696D02*
X0207000Y0113696D01*
X0207000Y0112097D02*
X0269000Y0112097D01*
X0269000Y0110499D02*
X0206791Y0110499D01*
X0205757Y0108900D02*
X0268795Y0108900D01*
X0269000Y0109396D02*
X0268311Y0107733D01*
X0268311Y0105867D01*
X0269025Y0104144D01*
X0270344Y0102825D01*
X0272067Y0102111D01*
X0273933Y0102111D01*
X0275656Y0102825D01*
X0276975Y0104144D01*
X0277689Y0105867D01*
X0277689Y0107733D01*
X0277000Y0109396D01*
X0277000Y0144204D01*
X0277689Y0145867D01*
X0277689Y0147733D01*
X0276975Y0149456D01*
X0275656Y0150775D01*
X0273933Y0151489D01*
X0272067Y0151489D01*
X0270344Y0150775D01*
X0269025Y0149456D01*
X0268311Y0147733D01*
X0268311Y0145867D01*
X0269000Y0144204D01*
X0269000Y0109396D01*
X0268311Y0107302D02*
X0173155Y0107302D01*
X0174754Y0105703D02*
X0268379Y0105703D01*
X0269064Y0104105D02*
X0176352Y0104105D01*
X0177951Y0102506D02*
X0215504Y0102506D01*
X0213905Y0100908D02*
X0179549Y0100908D01*
X0178000Y0096800D02*
X0218000Y0096800D01*
X0233000Y0096800D01*
X0248000Y0096800D01*
X0263000Y0096800D01*
X0258905Y0100908D02*
X0252095Y0100908D01*
X0250496Y0102506D02*
X0260504Y0102506D01*
X0265496Y0102506D02*
X0271113Y0102506D01*
X0274887Y0102506D02*
X0281491Y0102506D01*
X0282115Y0101883D02*
X0284246Y0101000D01*
X0291754Y0101000D01*
X0293885Y0101883D01*
X0295517Y0103515D01*
X0296400Y0105646D01*
X0296400Y0107954D01*
X0295517Y0110085D01*
X0293885Y0111717D01*
X0293685Y0111800D01*
X0293885Y0111883D01*
X0295517Y0113515D01*
X0296400Y0115646D01*
X0296400Y0117954D01*
X0295517Y0120085D01*
X0293885Y0121717D01*
X0293685Y0121800D01*
X0293885Y0121883D01*
X0295517Y0123515D01*
X0296400Y0125646D01*
X0296400Y0127954D01*
X0295517Y0130085D01*
X0293885Y0131717D01*
X0293685Y0131800D01*
X0293885Y0131883D01*
X0295517Y0133515D01*
X0296400Y0135646D01*
X0296400Y0137954D01*
X0295517Y0140085D01*
X0293885Y0141717D01*
X0291823Y0142571D01*
X0292289Y0142722D01*
X0292906Y0143037D01*
X0293466Y0143444D01*
X0293956Y0143934D01*
X0294363Y0144494D01*
X0294678Y0145111D01*
X0294892Y0145770D01*
X0295000Y0146454D01*
X0295000Y0146800D01*
X0288000Y0146800D01*
X0288000Y0146800D01*
X0288000Y0146800D01*
X0281000Y0146800D01*
X0281000Y0146454D01*
X0281108Y0145770D01*
X0281322Y0145111D01*
X0281637Y0144494D01*
X0282044Y0143934D01*
X0282534Y0143444D01*
X0283094Y0143037D01*
X0283711Y0142722D01*
X0284177Y0142571D01*
X0282115Y0141717D01*
X0280483Y0140085D01*
X0279600Y0137954D01*
X0279600Y0135646D01*
X0280483Y0133515D01*
X0282115Y0131883D01*
X0282315Y0131800D01*
X0282115Y0131717D01*
X0280483Y0130085D01*
X0279600Y0127954D01*
X0279600Y0125646D01*
X0280483Y0123515D01*
X0282115Y0121883D01*
X0282315Y0121800D01*
X0282115Y0121717D01*
X0280483Y0120085D01*
X0279600Y0117954D01*
X0279600Y0115646D01*
X0280483Y0113515D01*
X0282115Y0111883D01*
X0282315Y0111800D01*
X0282115Y0111717D01*
X0280483Y0110085D01*
X0279600Y0107954D01*
X0279600Y0105646D01*
X0280483Y0103515D01*
X0282115Y0101883D01*
X0280115Y0100908D02*
X0313905Y0100908D01*
X0314370Y0102508D02*
X0315054Y0102400D01*
X0315398Y0102400D01*
X0312200Y0099202D01*
X0312200Y0094398D01*
X0315598Y0091000D01*
X0320402Y0091000D01*
X0320500Y0091098D01*
X0320598Y0091000D01*
X0325402Y0091000D01*
X0328000Y0093598D01*
X0330598Y0091000D01*
X0335402Y0091000D01*
X0338800Y0094398D01*
X0338800Y0099202D01*
X0335402Y0102600D01*
X0330598Y0102600D01*
X0328000Y0100002D01*
X0325402Y0102600D01*
X0321912Y0102600D01*
X0322289Y0102722D01*
X0322906Y0103037D01*
X0323466Y0103444D01*
X0323956Y0103934D01*
X0324363Y0104494D01*
X0324678Y0105111D01*
X0324892Y0105770D01*
X0325000Y0106454D01*
X0325000Y0106800D01*
X0325000Y0107146D01*
X0324892Y0107830D01*
X0324678Y0108489D01*
X0324363Y0109106D01*
X0323956Y0109666D01*
X0323466Y0110156D01*
X0322906Y0110563D01*
X0322289Y0110878D01*
X0321630Y0111092D01*
X0320946Y0111200D01*
X0318000Y0111200D01*
X0318000Y0106800D01*
X0318000Y0106800D01*
X0325000Y0106800D01*
X0318000Y0106800D01*
X0318000Y0106800D01*
X0318000Y0106800D01*
X0311000Y0106800D01*
X0311000Y0107146D01*
X0311108Y0107830D01*
X0311322Y0108489D01*
X0311637Y0109106D01*
X0312044Y0109666D01*
X0312534Y0110156D01*
X0313094Y0110563D01*
X0313711Y0110878D01*
X0314370Y0111092D01*
X0315054Y0111200D01*
X0318000Y0111200D01*
X0318000Y0106800D01*
X0311000Y0106800D01*
X0311000Y0106454D01*
X0311108Y0105770D01*
X0311322Y0105111D01*
X0311637Y0104494D01*
X0312044Y0103934D01*
X0312534Y0103444D01*
X0313094Y0103037D01*
X0313711Y0102722D01*
X0314370Y0102508D01*
X0314383Y0102506D02*
X0294509Y0102506D01*
X0295761Y0104105D02*
X0311920Y0104105D01*
X0311130Y0105703D02*
X0296400Y0105703D01*
X0296400Y0107302D02*
X0311025Y0107302D01*
X0311532Y0108900D02*
X0296008Y0108900D01*
X0295104Y0110499D02*
X0313005Y0110499D01*
X0313711Y0112722D02*
X0314370Y0112508D01*
X0315054Y0112400D01*
X0318000Y0112400D01*
X0320946Y0112400D01*
X0321630Y0112508D01*
X0322289Y0112722D01*
X0322906Y0113037D01*
X0323466Y0113444D01*
X0323956Y0113934D01*
X0324363Y0114494D01*
X0324678Y0115111D01*
X0324892Y0115770D01*
X0325000Y0116454D01*
X0325000Y0116800D01*
X0325000Y0117146D01*
X0324892Y0117830D01*
X0324678Y0118489D01*
X0324363Y0119106D01*
X0323956Y0119666D01*
X0323466Y0120156D01*
X0322906Y0120563D01*
X0322289Y0120878D01*
X0321630Y0121092D01*
X0320946Y0121200D01*
X0318000Y0121200D01*
X0318000Y0116800D01*
X0318000Y0116800D01*
X0325000Y0116800D01*
X0318000Y0116800D01*
X0318000Y0116800D01*
X0318000Y0112400D01*
X0318000Y0116800D01*
X0318000Y0116800D01*
X0318000Y0116800D01*
X0311000Y0116800D01*
X0311000Y0117146D01*
X0311108Y0117830D01*
X0311322Y0118489D01*
X0311637Y0119106D01*
X0312044Y0119666D01*
X0312534Y0120156D01*
X0313094Y0120563D01*
X0313711Y0120878D01*
X0314370Y0121092D01*
X0315054Y0121200D01*
X0318000Y0121200D01*
X0318000Y0116800D01*
X0311000Y0116800D01*
X0311000Y0116454D01*
X0311108Y0115770D01*
X0311322Y0115111D01*
X0311637Y0114494D01*
X0312044Y0113934D01*
X0312534Y0113444D01*
X0313094Y0113037D01*
X0313711Y0112722D01*
X0312282Y0113696D02*
X0295592Y0113696D01*
X0296254Y0115294D02*
X0311263Y0115294D01*
X0311000Y0116893D02*
X0296400Y0116893D01*
X0296177Y0118491D02*
X0311324Y0118491D01*
X0312467Y0120090D02*
X0295513Y0120090D01*
X0293914Y0121688D02*
X0339000Y0121688D01*
X0339000Y0120090D02*
X0323533Y0120090D01*
X0324676Y0118491D02*
X0339000Y0118491D01*
X0339000Y0116893D02*
X0325000Y0116893D01*
X0324737Y0115294D02*
X0339000Y0115294D01*
X0339000Y0113696D02*
X0323718Y0113696D01*
X0322995Y0110499D02*
X0339000Y0110499D01*
X0339000Y0112097D02*
X0294100Y0112097D01*
X0295289Y0123287D02*
X0312750Y0123287D01*
X0312534Y0123444D02*
X0313094Y0123037D01*
X0313711Y0122722D01*
X0314370Y0122508D01*
X0315054Y0122400D01*
X0318000Y0122400D01*
X0320946Y0122400D01*
X0321630Y0122508D01*
X0322289Y0122722D01*
X0322906Y0123037D01*
X0323466Y0123444D01*
X0323956Y0123934D01*
X0324363Y0124494D01*
X0324678Y0125111D01*
X0324892Y0125770D01*
X0325000Y0126454D01*
X0325000Y0126800D01*
X0318000Y0126800D01*
X0318000Y0126800D01*
X0318000Y0122400D01*
X0318000Y0126800D01*
X0318000Y0126800D01*
X0318000Y0126800D01*
X0311000Y0126800D01*
X0311000Y0126454D01*
X0311108Y0125770D01*
X0311322Y0125111D01*
X0311637Y0124494D01*
X0312044Y0123934D01*
X0312534Y0123444D01*
X0311437Y0124885D02*
X0296085Y0124885D01*
X0296400Y0126484D02*
X0311000Y0126484D01*
X0311190Y0128082D02*
X0296347Y0128082D01*
X0295685Y0129681D02*
X0312058Y0129681D01*
X0313572Y0131279D02*
X0294323Y0131279D01*
X0294880Y0132878D02*
X0311120Y0132878D01*
X0310085Y0134476D02*
X0295915Y0134476D01*
X0296400Y0136075D02*
X0309600Y0136075D01*
X0309600Y0137673D02*
X0296400Y0137673D01*
X0295854Y0139272D02*
X0310146Y0139272D01*
X0311268Y0140870D02*
X0294732Y0140870D01*
X0292070Y0142469D02*
X0311529Y0142469D01*
X0310254Y0144068D02*
X0294053Y0144068D01*
X0294858Y0145666D02*
X0309600Y0145666D01*
X0309600Y0147265D02*
X0294981Y0147265D01*
X0294487Y0148863D02*
X0309977Y0148863D01*
X0310859Y0150462D02*
X0293046Y0150462D01*
X0294063Y0152060D02*
X0311937Y0152060D01*
X0310423Y0153659D02*
X0295577Y0153659D01*
X0296239Y0155257D02*
X0309761Y0155257D01*
X0309600Y0156856D02*
X0296400Y0156856D01*
X0296193Y0158454D02*
X0309807Y0158454D01*
X0310469Y0160053D02*
X0295531Y0160053D01*
X0293951Y0161651D02*
X0312049Y0161651D01*
X0310748Y0163250D02*
X0295252Y0163250D01*
X0296069Y0164848D02*
X0309931Y0164848D01*
X0309600Y0166447D02*
X0296400Y0166447D01*
X0296362Y0168045D02*
X0309638Y0168045D01*
X0310300Y0169644D02*
X0295700Y0169644D01*
X0294360Y0171242D02*
X0311640Y0171242D01*
X0311157Y0172841D02*
X0294843Y0172841D01*
X0295900Y0174439D02*
X0310100Y0174439D01*
X0309600Y0176038D02*
X0296400Y0176038D01*
X0296400Y0177636D02*
X0309600Y0177636D01*
X0310131Y0179235D02*
X0295869Y0179235D01*
X0294769Y0180833D02*
X0311231Y0180833D01*
X0311566Y0182432D02*
X0294434Y0182432D01*
X0295731Y0184030D02*
X0310269Y0184030D01*
X0309607Y0185629D02*
X0296393Y0185629D01*
X0296400Y0187227D02*
X0309600Y0187227D01*
X0309961Y0188826D02*
X0296039Y0188826D01*
X0295178Y0190424D02*
X0310822Y0190424D01*
X0311975Y0192023D02*
X0294025Y0192023D01*
X0295561Y0193621D02*
X0310439Y0193621D01*
X0309777Y0195220D02*
X0296223Y0195220D01*
X0296400Y0196818D02*
X0309600Y0196818D01*
X0309792Y0198417D02*
X0296208Y0198417D01*
X0295546Y0200015D02*
X0310454Y0200015D01*
X0312011Y0201614D02*
X0293989Y0201614D01*
X0295215Y0203212D02*
X0310785Y0203212D01*
X0309946Y0204811D02*
X0296054Y0204811D01*
X0296400Y0206409D02*
X0309600Y0206409D01*
X0309622Y0208008D02*
X0296378Y0208008D01*
X0295715Y0209606D02*
X0310285Y0209606D01*
X0311603Y0211205D02*
X0294397Y0211205D01*
X0294806Y0212803D02*
X0311194Y0212803D01*
X0310115Y0214402D02*
X0295885Y0214402D01*
X0296400Y0216001D02*
X0309600Y0216001D01*
X0309600Y0217599D02*
X0296400Y0217599D01*
X0295885Y0219198D02*
X0310115Y0219198D01*
X0311194Y0220796D02*
X0294806Y0220796D01*
X0294397Y0222395D02*
X0311603Y0222395D01*
X0310285Y0223993D02*
X0295715Y0223993D01*
X0296377Y0225592D02*
X0309623Y0225592D01*
X0309600Y0227190D02*
X0296400Y0227190D01*
X0296054Y0228789D02*
X0309946Y0228789D01*
X0310785Y0230387D02*
X0295215Y0230387D01*
X0293988Y0231986D02*
X0312012Y0231986D01*
X0310454Y0233584D02*
X0295546Y0233584D01*
X0296208Y0235183D02*
X0309792Y0235183D01*
X0309600Y0236781D02*
X0296400Y0236781D01*
X0296224Y0238380D02*
X0309776Y0238380D01*
X0310439Y0239978D02*
X0295561Y0239978D01*
X0294026Y0241577D02*
X0311974Y0241577D01*
X0318000Y0236800D02*
X0333000Y0236800D01*
X0328019Y0241577D02*
X0324026Y0241577D01*
X0330361Y0243175D02*
X0287282Y0243175D01*
X0285683Y0244774D02*
X0334369Y0244774D01*
X0335639Y0243175D02*
X0335968Y0243175D01*
X0332771Y0246372D02*
X0284085Y0246372D01*
X0288000Y0236800D02*
X0272843Y0251957D01*
X0272843Y0306800D01*
X0268599Y0302320D02*
X0254801Y0302320D01*
X0254988Y0302381D02*
X0255657Y0302722D01*
X0256264Y0303163D01*
X0256795Y0303694D01*
X0257236Y0304301D01*
X0257577Y0304970D01*
X0257809Y0305683D01*
X0257926Y0306425D01*
X0257926Y0306616D01*
X0253342Y0306616D01*
X0253342Y0306984D01*
X0257926Y0306984D01*
X0257926Y0307175D01*
X0257809Y0307917D01*
X0257577Y0308630D01*
X0257236Y0309299D01*
X0256795Y0309906D01*
X0256264Y0310437D01*
X0255657Y0310878D01*
X0254988Y0311219D01*
X0254274Y0311451D01*
X0253533Y0311568D01*
X0253342Y0311568D01*
X0253342Y0306984D01*
X0252973Y0306984D01*
X0252973Y0306616D01*
X0248389Y0306616D01*
X0248389Y0306425D01*
X0248506Y0305683D01*
X0248738Y0304970D01*
X0249079Y0304301D01*
X0249520Y0303694D01*
X0250051Y0303163D01*
X0250658Y0302722D01*
X0251327Y0302381D01*
X0252041Y0302149D01*
X0252782Y0302031D01*
X0252973Y0302031D01*
X0252973Y0306616D01*
X0253342Y0306616D01*
X0253342Y0302031D01*
X0253533Y0302031D01*
X0254274Y0302149D01*
X0254988Y0302381D01*
X0253342Y0302320D02*
X0252973Y0302320D01*
X0251514Y0302320D02*
X0219177Y0302320D01*
X0217578Y0300722D02*
X0268843Y0300722D01*
X0268843Y0299123D02*
X0215980Y0299123D01*
X0214381Y0297525D02*
X0268843Y0297525D01*
X0268843Y0295926D02*
X0212783Y0295926D01*
X0211184Y0294328D02*
X0268843Y0294328D01*
X0268843Y0292729D02*
X0209586Y0292729D01*
X0207987Y0291131D02*
X0268843Y0291131D01*
X0268843Y0289532D02*
X0206389Y0289532D01*
X0204790Y0287934D02*
X0268843Y0287934D01*
X0268843Y0286335D02*
X0203192Y0286335D01*
X0202221Y0284737D02*
X0268843Y0284737D01*
X0268843Y0283138D02*
X0200969Y0283138D01*
X0198000Y0286800D02*
X0243000Y0331800D01*
X0247114Y0335889D02*
X0278886Y0335889D01*
X0277288Y0334290D02*
X0248712Y0334290D01*
X0248800Y0332692D02*
X0277200Y0332692D01*
X0277200Y0331093D02*
X0248800Y0331093D01*
X0248800Y0329495D02*
X0277200Y0329495D01*
X0278701Y0327896D02*
X0247299Y0327896D01*
X0245700Y0326298D02*
X0280300Y0326298D01*
X0280485Y0337487D02*
X0245515Y0337487D01*
X0240485Y0337487D02*
X0223381Y0337487D01*
X0223381Y0335889D02*
X0238886Y0335889D01*
X0237288Y0334290D02*
X0223381Y0334290D01*
X0222780Y0332692D02*
X0237200Y0332692D01*
X0236636Y0331093D02*
X0222594Y0331093D01*
X0223381Y0329495D02*
X0235038Y0329495D01*
X0233439Y0327896D02*
X0223381Y0327896D01*
X0223381Y0326298D02*
X0231841Y0326298D01*
X0230242Y0324699D02*
X0223381Y0324699D01*
X0223016Y0323101D02*
X0228644Y0323101D01*
X0227045Y0321502D02*
X0222185Y0321502D01*
X0223263Y0319904D02*
X0225447Y0319904D01*
X0223848Y0318305D02*
X0223381Y0318305D01*
X0228768Y0311911D02*
X0269230Y0311911D01*
X0267632Y0310313D02*
X0256388Y0310313D01*
X0257534Y0308714D02*
X0266959Y0308714D01*
X0266674Y0307116D02*
X0257926Y0307116D01*
X0257755Y0305517D02*
X0266697Y0305517D01*
X0267359Y0303919D02*
X0256958Y0303919D01*
X0253342Y0303919D02*
X0252973Y0303919D01*
X0252973Y0305517D02*
X0253342Y0305517D01*
X0252973Y0306984D02*
X0248389Y0306984D01*
X0248389Y0307175D01*
X0248506Y0307917D01*
X0248738Y0308630D01*
X0249079Y0309299D01*
X0249520Y0309906D01*
X0250051Y0310437D01*
X0250658Y0310878D01*
X0251327Y0311219D01*
X0252041Y0311451D01*
X0252782Y0311568D01*
X0252973Y0311568D01*
X0252973Y0306984D01*
X0252973Y0307116D02*
X0253342Y0307116D01*
X0253342Y0308714D02*
X0252973Y0308714D01*
X0252973Y0310313D02*
X0253342Y0310313D01*
X0249926Y0310313D02*
X0227170Y0310313D01*
X0225571Y0308714D02*
X0248781Y0308714D01*
X0248389Y0307116D02*
X0223973Y0307116D01*
X0222374Y0305517D02*
X0248560Y0305517D01*
X0249357Y0303919D02*
X0220775Y0303919D01*
X0215856Y0310313D02*
X0102170Y0310313D01*
X0103768Y0311911D02*
X0184001Y0311911D01*
X0182815Y0313510D02*
X0105367Y0313510D01*
X0106965Y0315108D02*
X0182619Y0315108D01*
X0182619Y0316707D02*
X0108564Y0316707D01*
X0110162Y0318305D02*
X0182619Y0318305D01*
X0182737Y0319904D02*
X0169382Y0319904D01*
X0166618Y0319904D02*
X0111761Y0319904D01*
X0113359Y0321502D02*
X0163540Y0321502D01*
X0162064Y0323101D02*
X0114958Y0323101D01*
X0116556Y0324699D02*
X0161402Y0324699D01*
X0161100Y0326298D02*
X0118155Y0326298D01*
X0119753Y0327896D02*
X0161100Y0327896D01*
X0161648Y0329495D02*
X0121352Y0329495D01*
X0122950Y0331093D02*
X0162535Y0331093D01*
X0162350Y0332692D02*
X0124549Y0332692D01*
X0126147Y0334290D02*
X0161571Y0334290D01*
X0161100Y0335889D02*
X0127746Y0335889D01*
X0129344Y0337487D02*
X0161100Y0337487D01*
X0161478Y0339086D02*
X0130943Y0339086D01*
X0132541Y0340684D02*
X0162140Y0340684D01*
X0163725Y0342283D02*
X0134140Y0342283D01*
X0135738Y0343881D02*
X0182661Y0343881D01*
X0182619Y0345480D02*
X0170773Y0345480D01*
X0173037Y0347078D02*
X0182065Y0347078D01*
X0183000Y0351800D02*
X0188000Y0346800D01*
X0193381Y0347078D02*
X0212619Y0347078D01*
X0212619Y0345480D02*
X0193381Y0345480D01*
X0193339Y0343881D02*
X0212661Y0343881D01*
X0213629Y0342283D02*
X0192371Y0342283D01*
X0192939Y0340684D02*
X0213061Y0340684D01*
X0212619Y0339086D02*
X0193381Y0339086D01*
X0193381Y0337487D02*
X0212619Y0337487D01*
X0212619Y0335889D02*
X0193381Y0335889D01*
X0193381Y0334290D02*
X0212619Y0334290D01*
X0213220Y0332692D02*
X0192780Y0332692D01*
X0192594Y0331093D02*
X0213406Y0331093D01*
X0212619Y0329495D02*
X0193381Y0329495D01*
X0193381Y0327896D02*
X0212619Y0327896D01*
X0212619Y0326298D02*
X0193381Y0326298D01*
X0193381Y0324699D02*
X0212619Y0324699D01*
X0212984Y0323101D02*
X0193016Y0323101D01*
X0192185Y0321502D02*
X0213815Y0321502D01*
X0212737Y0319904D02*
X0193263Y0319904D01*
X0193381Y0318305D02*
X0212619Y0318305D01*
X0212619Y0316707D02*
X0193381Y0316707D01*
X0193381Y0315108D02*
X0212619Y0315108D01*
X0212815Y0313510D02*
X0193185Y0313510D01*
X0191999Y0311911D02*
X0214001Y0311911D01*
X0214257Y0308714D02*
X0100571Y0308714D01*
X0098973Y0307116D02*
X0212659Y0307116D01*
X0211060Y0305517D02*
X0097374Y0305517D01*
X0097000Y0303919D02*
X0209462Y0303919D01*
X0207863Y0302320D02*
X0097000Y0302320D01*
X0097000Y0300722D02*
X0206265Y0300722D01*
X0204666Y0299123D02*
X0097000Y0299123D01*
X0097000Y0297525D02*
X0203068Y0297525D01*
X0201469Y0295926D02*
X0165097Y0295926D01*
X0164830Y0296062D02*
X0164117Y0296294D01*
X0163375Y0296411D01*
X0163184Y0296411D01*
X0163184Y0291827D01*
X0162816Y0291827D01*
X0162816Y0296411D01*
X0162625Y0296411D01*
X0161883Y0296294D01*
X0161170Y0296062D01*
X0160501Y0295721D01*
X0159894Y0295280D01*
X0159363Y0294749D01*
X0158922Y0294142D01*
X0158581Y0293473D01*
X0158349Y0292759D01*
X0158231Y0292018D01*
X0158231Y0291827D01*
X0162816Y0291827D01*
X0162816Y0291458D01*
X0163184Y0291458D01*
X0163184Y0286874D01*
X0163375Y0286874D01*
X0164117Y0286991D01*
X0164830Y0287223D01*
X0165499Y0287564D01*
X0166106Y0288005D01*
X0166637Y0288536D01*
X0167078Y0289143D01*
X0167419Y0289812D01*
X0167651Y0290526D01*
X0167768Y0291267D01*
X0167768Y0291458D01*
X0163184Y0291458D01*
X0163184Y0291827D01*
X0167768Y0291827D01*
X0167768Y0292018D01*
X0167651Y0292759D01*
X0167419Y0293473D01*
X0167078Y0294142D01*
X0166637Y0294749D01*
X0166106Y0295280D01*
X0165499Y0295721D01*
X0164830Y0296062D01*
X0163184Y0295926D02*
X0162816Y0295926D01*
X0162816Y0294328D02*
X0163184Y0294328D01*
X0163184Y0292729D02*
X0162816Y0292729D01*
X0162816Y0291458D02*
X0158231Y0291458D01*
X0158231Y0291267D01*
X0158349Y0290526D01*
X0158581Y0289812D01*
X0158922Y0289143D01*
X0159363Y0288536D01*
X0159894Y0288005D01*
X0160501Y0287564D01*
X0161170Y0287223D01*
X0161883Y0286991D01*
X0162625Y0286874D01*
X0162816Y0286874D01*
X0162816Y0291458D01*
X0162816Y0291131D02*
X0163184Y0291131D01*
X0163184Y0289532D02*
X0162816Y0289532D01*
X0162816Y0287934D02*
X0163184Y0287934D01*
X0166008Y0287934D02*
X0193394Y0287934D01*
X0193311Y0286335D02*
X0126667Y0286335D01*
X0128266Y0284737D02*
X0193779Y0284737D01*
X0195031Y0283138D02*
X0128800Y0283138D01*
X0128800Y0281539D02*
X0268843Y0281539D01*
X0268843Y0279941D02*
X0128800Y0279941D01*
X0119854Y0276744D02*
X0097000Y0276744D01*
X0097000Y0278342D02*
X0118255Y0278342D01*
X0117200Y0279941D02*
X0097000Y0279941D01*
X0097000Y0281539D02*
X0117200Y0281539D01*
X0117200Y0283138D02*
X0097000Y0283138D01*
X0097000Y0284737D02*
X0117734Y0284737D01*
X0119333Y0286335D02*
X0097000Y0286335D01*
X0097000Y0287934D02*
X0159992Y0287934D01*
X0158724Y0289532D02*
X0097000Y0289532D01*
X0097000Y0291131D02*
X0158253Y0291131D01*
X0158344Y0292729D02*
X0097000Y0292729D01*
X0097000Y0294328D02*
X0159057Y0294328D01*
X0160903Y0295926D02*
X0097000Y0295926D01*
X0089000Y0295926D02*
X0052076Y0295926D01*
X0051927Y0297525D02*
X0089000Y0297525D01*
X0089000Y0299123D02*
X0053526Y0299123D01*
X0053800Y0300722D02*
X0089000Y0300722D01*
X0089000Y0302320D02*
X0053800Y0302320D01*
X0053800Y0303919D02*
X0089000Y0303919D01*
X0089000Y0305517D02*
X0052485Y0305517D01*
X0050887Y0307116D02*
X0069482Y0307116D01*
X0076518Y0307116D02*
X0089000Y0307116D01*
X0089463Y0308714D02*
X0078117Y0308714D01*
X0078800Y0310313D02*
X0090856Y0310313D01*
X0092454Y0311911D02*
X0078800Y0311911D01*
X0078800Y0313510D02*
X0094053Y0313510D01*
X0095651Y0315108D02*
X0077894Y0315108D01*
X0076296Y0316707D02*
X0097250Y0316707D01*
X0093000Y0306800D02*
X0093000Y0266800D01*
X0073000Y0246800D01*
X0077535Y0241577D02*
X0078465Y0241577D01*
X0068465Y0241577D02*
X0064723Y0241577D01*
X0063200Y0241577D02*
X0062800Y0241577D01*
X0061277Y0241577D02*
X0057535Y0241577D01*
X0062800Y0243175D02*
X0063200Y0243175D01*
X0063200Y0244774D02*
X0062800Y0244774D01*
X0062800Y0246372D02*
X0063200Y0246372D01*
X0063200Y0247971D02*
X0062800Y0247971D01*
X0062800Y0249569D02*
X0063200Y0249569D01*
X0063200Y0251168D02*
X0062800Y0251168D01*
X0059655Y0251168D02*
X0058390Y0251168D01*
X0056627Y0252766D02*
X0069373Y0252766D01*
X0067610Y0251168D02*
X0066345Y0251168D01*
X0074908Y0254365D02*
X0052013Y0254365D01*
X0052000Y0255963D02*
X0076506Y0255963D01*
X0078105Y0257562D02*
X0052000Y0257562D01*
X0052000Y0259160D02*
X0079703Y0259160D01*
X0081302Y0260759D02*
X0052000Y0260759D01*
X0052000Y0262357D02*
X0082900Y0262357D01*
X0084499Y0263956D02*
X0052000Y0263956D01*
X0052000Y0265554D02*
X0086098Y0265554D01*
X0087696Y0267153D02*
X0052000Y0267153D01*
X0052000Y0268751D02*
X0069826Y0268751D01*
X0068600Y0269977D02*
X0071177Y0267400D01*
X0073000Y0267400D01*
X0074823Y0267400D01*
X0077400Y0269977D01*
X0077400Y0271800D01*
X0077400Y0273623D01*
X0074823Y0276200D01*
X0073000Y0276200D01*
X0073000Y0271800D01*
X0073000Y0271800D01*
X0077400Y0271800D01*
X0073000Y0271800D01*
X0073000Y0271800D01*
X0073000Y0271800D01*
X0068600Y0271800D01*
X0068600Y0273623D01*
X0071177Y0276200D01*
X0073000Y0276200D01*
X0073000Y0271800D01*
X0073000Y0267400D01*
X0073000Y0271800D01*
X0073000Y0271800D01*
X0068600Y0271800D01*
X0068600Y0269977D01*
X0068600Y0270350D02*
X0052000Y0270350D01*
X0052000Y0271948D02*
X0068600Y0271948D01*
X0068600Y0273547D02*
X0052000Y0273547D01*
X0052000Y0275145D02*
X0070123Y0275145D01*
X0073000Y0275145D02*
X0073000Y0275145D01*
X0073000Y0273547D02*
X0073000Y0273547D01*
X0073000Y0271948D02*
X0073000Y0271948D01*
X0073000Y0270350D02*
X0073000Y0270350D01*
X0073000Y0268751D02*
X0073000Y0268751D01*
X0076174Y0268751D02*
X0089000Y0268751D01*
X0089000Y0270350D02*
X0077400Y0270350D01*
X0077400Y0271948D02*
X0089000Y0271948D01*
X0089000Y0273547D02*
X0077400Y0273547D01*
X0075877Y0275145D02*
X0089000Y0275145D01*
X0089000Y0276744D02*
X0086146Y0276744D01*
X0085402Y0276000D02*
X0088800Y0279398D01*
X0088800Y0284202D01*
X0085402Y0287600D01*
X0080598Y0287600D01*
X0077200Y0284202D01*
X0077200Y0279398D01*
X0080598Y0276000D01*
X0085402Y0276000D01*
X0087745Y0278342D02*
X0089000Y0278342D01*
X0089000Y0279941D02*
X0088800Y0279941D01*
X0088800Y0281539D02*
X0089000Y0281539D01*
X0089000Y0283138D02*
X0088800Y0283138D01*
X0089000Y0284737D02*
X0088266Y0284737D01*
X0089000Y0286335D02*
X0086667Y0286335D01*
X0089000Y0287934D02*
X0052336Y0287934D01*
X0052000Y0286335D02*
X0079333Y0286335D01*
X0077734Y0284737D02*
X0052000Y0284737D01*
X0052000Y0283138D02*
X0077200Y0283138D01*
X0077200Y0281539D02*
X0052000Y0281539D01*
X0052000Y0279941D02*
X0077200Y0279941D01*
X0078255Y0278342D02*
X0052000Y0278342D01*
X0052000Y0276744D02*
X0079854Y0276744D01*
X0089000Y0289532D02*
X0053800Y0289532D01*
X0053800Y0291131D02*
X0089000Y0291131D01*
X0089000Y0292729D02*
X0053800Y0292729D01*
X0053675Y0294328D02*
X0089000Y0294328D01*
X0093000Y0306800D02*
X0158000Y0371800D01*
X0173000Y0371800D01*
X0178000Y0366800D01*
X0188000Y0366800D01*
X0193381Y0366261D02*
X0212619Y0366261D01*
X0212619Y0367859D02*
X0193381Y0367859D01*
X0193381Y0369458D02*
X0212619Y0369458D01*
X0213368Y0371056D02*
X0192632Y0371056D01*
X0191947Y0374253D02*
X0214053Y0374253D01*
X0214019Y0374382D02*
X0214142Y0373924D01*
X0214379Y0373514D01*
X0214714Y0373179D01*
X0215124Y0372942D01*
X0215582Y0372819D01*
X0218000Y0372819D01*
X0218000Y0376800D01*
X0218000Y0376800D01*
X0218000Y0376800D01*
X0214019Y0376800D01*
X0214019Y0379218D01*
X0214142Y0379676D01*
X0214379Y0380086D01*
X0214714Y0380421D01*
X0215124Y0380658D01*
X0215582Y0380781D01*
X0218000Y0380781D01*
X0218000Y0376800D01*
X0214019Y0376800D01*
X0214019Y0374382D01*
X0214019Y0375852D02*
X0191981Y0375852D01*
X0191981Y0377450D02*
X0214019Y0377450D01*
X0214019Y0379049D02*
X0191981Y0379049D01*
X0190895Y0380647D02*
X0215105Y0380647D01*
X0218000Y0380647D02*
X0218000Y0380647D01*
X0218000Y0379049D02*
X0218000Y0379049D01*
X0218000Y0377450D02*
X0218000Y0377450D01*
X0218000Y0375852D02*
X0218000Y0375852D01*
X0218000Y0374253D02*
X0218000Y0374253D01*
X0212619Y0364662D02*
X0193381Y0364662D01*
X0193001Y0363064D02*
X0212999Y0363064D01*
X0213777Y0361465D02*
X0192223Y0361465D01*
X0193278Y0359867D02*
X0212722Y0359867D01*
X0212619Y0358268D02*
X0193381Y0358268D01*
X0193381Y0356670D02*
X0212619Y0356670D01*
X0212619Y0355071D02*
X0193381Y0355071D01*
X0193170Y0353472D02*
X0212830Y0353472D01*
X0214084Y0351874D02*
X0191916Y0351874D01*
X0193109Y0350275D02*
X0212891Y0350275D01*
X0212619Y0348677D02*
X0193381Y0348677D01*
X0188000Y0356800D02*
X0183000Y0361800D01*
X0168000Y0361800D01*
X0161717Y0364662D02*
X0156519Y0364662D01*
X0158117Y0366261D02*
X0162703Y0366261D01*
X0161100Y0363064D02*
X0154920Y0363064D01*
X0153322Y0361465D02*
X0161100Y0361465D01*
X0161332Y0359867D02*
X0151723Y0359867D01*
X0150125Y0358268D02*
X0161994Y0358268D01*
X0163111Y0356670D02*
X0148526Y0356670D01*
X0146928Y0355071D02*
X0161886Y0355071D01*
X0161224Y0353472D02*
X0145329Y0353472D01*
X0143731Y0351874D02*
X0161100Y0351874D01*
X0161163Y0350275D02*
X0142132Y0350275D01*
X0140534Y0348677D02*
X0161825Y0348677D01*
X0162963Y0347078D02*
X0138935Y0347078D01*
X0137337Y0345480D02*
X0165227Y0345480D01*
X0168000Y0351800D02*
X0183000Y0351800D01*
X0183629Y0342283D02*
X0172275Y0342283D01*
X0168000Y0336800D02*
X0188000Y0336800D01*
X0188000Y0326800D02*
X0168000Y0326800D01*
X0172460Y0321502D02*
X0183815Y0321502D01*
X0199871Y0294328D02*
X0166943Y0294328D01*
X0167656Y0292729D02*
X0198272Y0292729D01*
X0196202Y0291131D02*
X0167747Y0291131D01*
X0167276Y0289532D02*
X0194101Y0289532D01*
X0202257Y0230800D02*
X0204600Y0228457D01*
X0204600Y0215143D01*
X0202257Y0212800D01*
X0198000Y0226800D02*
X0182900Y0211700D01*
X0115887Y0211700D01*
X0115787Y0211800D01*
X0098000Y0211800D01*
X0033100Y0146900D01*
X0025887Y0146900D01*
X0022900Y0143913D01*
X0022900Y0129687D01*
X0023000Y0129587D01*
X0023000Y0121800D01*
X0017071Y0128082D02*
X0015864Y0128082D01*
X0016409Y0129681D02*
X0007800Y0129681D01*
X0007800Y0131279D02*
X0016100Y0131279D01*
X0016100Y0132878D02*
X0007800Y0132878D01*
X0007800Y0134476D02*
X0016640Y0134476D01*
X0017517Y0136075D02*
X0007800Y0136075D01*
X0007800Y0137673D02*
X0018900Y0137673D01*
X0018115Y0139272D02*
X0007800Y0139272D01*
X0010914Y0140870D02*
X0017579Y0140870D01*
X0017537Y0142469D02*
X0012139Y0142469D01*
X0013137Y0144068D02*
X0017983Y0144068D01*
X0019088Y0145666D02*
X0014735Y0145666D01*
X0016334Y0147265D02*
X0020595Y0147265D01*
X0020634Y0147304D02*
X0020634Y0147304D01*
X0022194Y0148863D02*
X0017932Y0148863D01*
X0019531Y0150462D02*
X0024033Y0150462D01*
X0021129Y0152060D02*
X0032603Y0152060D01*
X0029510Y0153659D02*
X0022728Y0153659D01*
X0024326Y0155257D02*
X0028564Y0155257D01*
X0028311Y0156856D02*
X0025925Y0156856D01*
X0027523Y0158454D02*
X0028610Y0158454D01*
X0029122Y0160053D02*
X0029621Y0160053D01*
X0030720Y0161651D02*
X0032194Y0161651D01*
X0032319Y0163250D02*
X0033793Y0163250D01*
X0033917Y0164848D02*
X0035391Y0164848D01*
X0035516Y0166447D02*
X0036990Y0166447D01*
X0033000Y0156800D02*
X0053000Y0176800D01*
X0048000Y0151800D02*
X0163000Y0151800D01*
X0168000Y0156800D01*
X0168000Y0176800D02*
X0108000Y0176800D01*
X0105484Y0180833D02*
X0102000Y0180833D01*
X0102000Y0179235D02*
X0103933Y0179235D01*
X0103311Y0177636D02*
X0102000Y0177636D01*
X0102000Y0176038D02*
X0103311Y0176038D01*
X0103903Y0174439D02*
X0101296Y0174439D01*
X0098894Y0172841D02*
X0105328Y0172841D01*
X0110516Y0180833D02*
X0161231Y0180833D01*
X0163840Y0182432D02*
X0102000Y0182432D01*
X0102000Y0184030D02*
X0161974Y0184030D01*
X0161154Y0185629D02*
X0102000Y0185629D01*
X0102000Y0187227D02*
X0161013Y0187227D01*
X0161494Y0188826D02*
X0102000Y0188826D01*
X0102000Y0190424D02*
X0160462Y0190424D01*
X0168000Y0196800D02*
X0088000Y0196800D01*
X0035889Y0144689D01*
X0035889Y0140603D01*
X0033000Y0137714D01*
X0033000Y0106800D01*
X0038000Y0101800D01*
X0038000Y0056800D01*
X0048000Y0056800D02*
X0048000Y0041800D01*
X0058000Y0041800D02*
X0058000Y0036800D01*
X0058000Y0041800D02*
X0068000Y0051800D01*
X0078000Y0051800D02*
X0108000Y0051800D01*
X0113000Y0046800D01*
X0117313Y0044960D02*
X0133687Y0044960D01*
X0134025Y0044144D02*
X0135344Y0042825D01*
X0137067Y0042111D01*
X0138933Y0042111D01*
X0140656Y0042825D01*
X0141975Y0044144D01*
X0142689Y0045867D01*
X0142689Y0047733D01*
X0142000Y0049396D01*
X0142000Y0052596D01*
X0141391Y0054066D01*
X0140266Y0055191D01*
X0122664Y0072793D01*
X0121975Y0074456D01*
X0120656Y0075775D01*
X0118933Y0076489D01*
X0117067Y0076489D01*
X0115344Y0075775D01*
X0114025Y0074456D01*
X0113311Y0072733D01*
X0113311Y0070867D01*
X0114025Y0069144D01*
X0115344Y0067825D01*
X0117007Y0067136D01*
X0134000Y0050143D01*
X0134000Y0049396D01*
X0133311Y0047733D01*
X0133311Y0045867D01*
X0134025Y0044144D01*
X0134807Y0043361D02*
X0116193Y0043361D01*
X0115656Y0042825D02*
X0116975Y0044144D01*
X0117689Y0045867D01*
X0117689Y0047733D01*
X0116975Y0049456D01*
X0115656Y0050775D01*
X0113993Y0051464D01*
X0110266Y0055191D01*
X0108796Y0055800D01*
X0097661Y0055800D01*
X0097689Y0055867D01*
X0097689Y0057733D01*
X0096975Y0059456D01*
X0095656Y0060775D01*
X0093993Y0061464D01*
X0091391Y0064066D01*
X0090266Y0065191D01*
X0088796Y0065800D01*
X0083758Y0065800D01*
X0082758Y0066800D01*
X0083758Y0067800D01*
X0101343Y0067800D01*
X0103336Y0065807D01*
X0104025Y0064144D01*
X0105344Y0062825D01*
X0107067Y0062111D01*
X0108933Y0062111D01*
X0110656Y0062825D01*
X0111975Y0064144D01*
X0112689Y0065867D01*
X0112689Y0067733D01*
X0111975Y0069456D01*
X0110656Y0070775D01*
X0108993Y0071464D01*
X0106644Y0073813D01*
X0106975Y0074144D01*
X0107689Y0075867D01*
X0107689Y0077733D01*
X0106975Y0079456D01*
X0105656Y0080775D01*
X0103993Y0081464D01*
X0101391Y0084066D01*
X0100266Y0085191D01*
X0098796Y0085800D01*
X0083758Y0085800D01*
X0082758Y0086800D01*
X0083758Y0087800D01*
X0121100Y0087800D01*
X0121100Y0085427D01*
X0122150Y0082891D01*
X0124091Y0080950D01*
X0126627Y0079900D01*
X0129372Y0079900D01*
X0131909Y0080950D01*
X0133850Y0082891D01*
X0134900Y0085427D01*
X0134900Y0088172D01*
X0133850Y0090709D01*
X0131909Y0092650D01*
X0129372Y0093700D01*
X0126757Y0093700D01*
X0126391Y0094066D01*
X0125266Y0095191D01*
X0123796Y0095800D01*
X0083758Y0095800D01*
X0082758Y0096800D01*
X0083758Y0097800D01*
X0131343Y0097800D01*
X0133336Y0095807D01*
X0134025Y0094144D01*
X0135344Y0092825D01*
X0137067Y0092111D01*
X0138933Y0092111D01*
X0140656Y0092825D01*
X0141975Y0094144D01*
X0142689Y0095867D01*
X0142689Y0097733D01*
X0141975Y0099456D01*
X0140656Y0100775D01*
X0138993Y0101464D01*
X0137657Y0102800D01*
X0150404Y0102800D01*
X0152067Y0102111D01*
X0153933Y0102111D01*
X0155656Y0102825D01*
X0156200Y0103369D01*
X0156200Y0052546D01*
X0119354Y0015700D01*
X0071658Y0015700D01*
X0073990Y0018032D01*
X0075722Y0016300D01*
X0077800Y0016300D01*
X0077800Y0021600D01*
X0078200Y0021600D01*
X0078200Y0022000D01*
X0083500Y0022000D01*
X0083500Y0024078D01*
X0081768Y0025810D01*
X0084900Y0028942D01*
X0084900Y0034658D01*
X0082758Y0036800D01*
X0084900Y0038942D01*
X0084900Y0044658D01*
X0082758Y0046800D01*
X0083758Y0047800D01*
X0106343Y0047800D01*
X0108336Y0045807D01*
X0109025Y0044144D01*
X0110344Y0042825D01*
X0112067Y0042111D01*
X0113933Y0042111D01*
X0115656Y0042825D01*
X0117689Y0046558D02*
X0133311Y0046558D01*
X0133487Y0048157D02*
X0117513Y0048157D01*
X0116676Y0049755D02*
X0134000Y0049755D01*
X0132789Y0051354D02*
X0114259Y0051354D01*
X0112504Y0052952D02*
X0131191Y0052952D01*
X0129592Y0054551D02*
X0110906Y0054551D01*
X0109977Y0062543D02*
X0121600Y0062543D01*
X0123198Y0060945D02*
X0095246Y0060945D01*
X0097021Y0059346D02*
X0124797Y0059346D01*
X0126395Y0057748D02*
X0097683Y0057748D01*
X0097689Y0056149D02*
X0127994Y0056149D01*
X0132913Y0062543D02*
X0156200Y0062543D01*
X0156200Y0060945D02*
X0134512Y0060945D01*
X0136110Y0059346D02*
X0156200Y0059346D01*
X0156200Y0057748D02*
X0137709Y0057748D01*
X0139307Y0056149D02*
X0156200Y0056149D01*
X0156200Y0054551D02*
X0140906Y0054551D01*
X0141852Y0052952D02*
X0156200Y0052952D01*
X0155008Y0051354D02*
X0142000Y0051354D01*
X0142000Y0049755D02*
X0153410Y0049755D01*
X0151811Y0048157D02*
X0142513Y0048157D01*
X0142689Y0046558D02*
X0150213Y0046558D01*
X0148614Y0044960D02*
X0142313Y0044960D01*
X0141193Y0043361D02*
X0147016Y0043361D01*
X0145417Y0041763D02*
X0102795Y0041763D01*
X0101909Y0042650D02*
X0099372Y0043700D01*
X0096627Y0043700D01*
X0094091Y0042650D01*
X0092150Y0040709D01*
X0091100Y0038172D01*
X0091100Y0035427D01*
X0092150Y0032891D01*
X0094091Y0030950D01*
X0096627Y0029900D01*
X0099372Y0029900D01*
X0101909Y0030950D01*
X0103850Y0032891D01*
X0104900Y0035427D01*
X0104900Y0038172D01*
X0103850Y0040709D01*
X0101909Y0042650D01*
X0100190Y0043361D02*
X0109807Y0043361D01*
X0108687Y0044960D02*
X0084598Y0044960D01*
X0084900Y0043361D02*
X0095810Y0043361D01*
X0093205Y0041763D02*
X0084900Y0041763D01*
X0084900Y0040164D02*
X0091925Y0040164D01*
X0091263Y0038566D02*
X0084524Y0038566D01*
X0082925Y0036967D02*
X0091100Y0036967D01*
X0091124Y0035369D02*
X0084189Y0035369D01*
X0084900Y0033770D02*
X0091786Y0033770D01*
X0092870Y0032172D02*
X0084900Y0032172D01*
X0084900Y0030573D02*
X0095002Y0030573D01*
X0100998Y0030573D02*
X0134228Y0030573D01*
X0135826Y0032172D02*
X0103130Y0032172D01*
X0104214Y0033770D02*
X0137425Y0033770D01*
X0139023Y0035369D02*
X0104876Y0035369D01*
X0104900Y0036967D02*
X0140622Y0036967D01*
X0142220Y0038566D02*
X0104737Y0038566D01*
X0104075Y0040164D02*
X0143819Y0040164D01*
X0138000Y0046800D02*
X0138000Y0051800D01*
X0118000Y0071800D01*
X0113725Y0073733D02*
X0106724Y0073733D01*
X0107467Y0075332D02*
X0114900Y0075332D01*
X0113311Y0072134D02*
X0108322Y0072134D01*
X0110895Y0070536D02*
X0113448Y0070536D01*
X0114231Y0068937D02*
X0112190Y0068937D01*
X0112689Y0067339D02*
X0116517Y0067339D01*
X0118403Y0065740D02*
X0112636Y0065740D01*
X0111973Y0064142D02*
X0120001Y0064142D01*
X0124921Y0070536D02*
X0156200Y0070536D01*
X0156200Y0072134D02*
X0123322Y0072134D01*
X0122275Y0073733D02*
X0156200Y0073733D01*
X0156200Y0075332D02*
X0121100Y0075332D01*
X0126519Y0068937D02*
X0156200Y0068937D01*
X0156200Y0067339D02*
X0128118Y0067339D01*
X0129716Y0065740D02*
X0156200Y0065740D01*
X0156200Y0064142D02*
X0131315Y0064142D01*
X0129921Y0080127D02*
X0156200Y0080127D01*
X0156200Y0078529D02*
X0107359Y0078529D01*
X0107689Y0076930D02*
X0156200Y0076930D01*
X0156200Y0081726D02*
X0132684Y0081726D01*
X0134029Y0083324D02*
X0156200Y0083324D01*
X0156200Y0084923D02*
X0134691Y0084923D01*
X0134900Y0086521D02*
X0156200Y0086521D01*
X0156200Y0088120D02*
X0134900Y0088120D01*
X0134260Y0089718D02*
X0156200Y0089718D01*
X0156200Y0091317D02*
X0133241Y0091317D01*
X0131267Y0092915D02*
X0135254Y0092915D01*
X0133872Y0094514D02*
X0125943Y0094514D01*
X0123000Y0091800D02*
X0078000Y0091800D01*
X0083446Y0096112D02*
X0133031Y0096112D01*
X0131432Y0097711D02*
X0083669Y0097711D01*
X0078000Y0101800D02*
X0133000Y0101800D01*
X0138000Y0096800D01*
X0142128Y0094514D02*
X0156200Y0094514D01*
X0156200Y0096112D02*
X0142689Y0096112D01*
X0142689Y0097711D02*
X0156200Y0097711D01*
X0156200Y0099309D02*
X0142036Y0099309D01*
X0140336Y0100908D02*
X0156200Y0100908D01*
X0156200Y0102506D02*
X0154887Y0102506D01*
X0151113Y0102506D02*
X0137951Y0102506D01*
X0140746Y0092915D02*
X0156200Y0092915D01*
X0164200Y0092915D02*
X0176926Y0092915D01*
X0174629Y0094514D02*
X0164200Y0094514D01*
X0164200Y0096112D02*
X0173031Y0096112D01*
X0171432Y0097711D02*
X0164200Y0097711D01*
X0164200Y0099309D02*
X0169834Y0099309D01*
X0168235Y0100908D02*
X0164200Y0100908D01*
X0164200Y0102506D02*
X0166637Y0102506D01*
X0165038Y0104105D02*
X0164200Y0104105D01*
X0160200Y0108686D02*
X0149197Y0119689D01*
X0139454Y0119689D01*
X0134000Y0125143D01*
X0134000Y0128457D01*
X0136343Y0130800D01*
X0155743Y0130800D01*
X0148000Y0126800D02*
X0178000Y0096800D01*
X0175774Y0088120D02*
X0200226Y0088120D01*
X0197963Y0086521D02*
X0185849Y0086521D01*
X0185883Y0086504D02*
X0185111Y0086897D01*
X0184288Y0087165D01*
X0183433Y0087300D01*
X0183200Y0087300D01*
X0183200Y0082000D01*
X0188500Y0082000D01*
X0188500Y0082233D01*
X0188365Y0083088D01*
X0188097Y0083911D01*
X0187704Y0084683D01*
X0187195Y0085383D01*
X0186583Y0085995D01*
X0185883Y0086504D01*
X0187530Y0084923D02*
X0196825Y0084923D01*
X0196163Y0083324D02*
X0188288Y0083324D01*
X0188239Y0080127D02*
X0196224Y0080127D01*
X0196100Y0081726D02*
X0183200Y0081726D01*
X0183200Y0081600D02*
X0183200Y0077300D01*
X0183200Y0072000D01*
X0182800Y0072000D01*
X0182800Y0081600D01*
X0183200Y0081600D01*
X0183200Y0080127D02*
X0182800Y0080127D01*
X0182800Y0078529D02*
X0183200Y0078529D01*
X0183200Y0076930D02*
X0182800Y0076930D01*
X0182800Y0075332D02*
X0183200Y0075332D01*
X0183200Y0073733D02*
X0182800Y0073733D01*
X0182800Y0072134D02*
X0183200Y0072134D01*
X0183200Y0071600D02*
X0188500Y0071600D01*
X0188500Y0071367D01*
X0188365Y0070512D01*
X0188097Y0069689D01*
X0187704Y0068917D01*
X0187195Y0068217D01*
X0186583Y0067605D01*
X0185883Y0067096D01*
X0185302Y0066800D01*
X0185883Y0066504D01*
X0186583Y0065995D01*
X0187195Y0065383D01*
X0187704Y0064683D01*
X0188097Y0063911D01*
X0188365Y0063088D01*
X0188500Y0062233D01*
X0188500Y0062000D01*
X0183200Y0062000D01*
X0183200Y0066300D01*
X0183200Y0071600D01*
X0183200Y0070536D02*
X0182800Y0070536D01*
X0182800Y0068937D02*
X0183200Y0068937D01*
X0183200Y0067339D02*
X0182800Y0067339D01*
X0182800Y0065740D02*
X0183200Y0065740D01*
X0183200Y0064142D02*
X0182800Y0064142D01*
X0182800Y0062543D02*
X0183200Y0062543D01*
X0183200Y0061600D02*
X0183200Y0056300D01*
X0183200Y0052000D01*
X0182800Y0052000D01*
X0182800Y0061600D01*
X0183200Y0061600D01*
X0183200Y0060945D02*
X0182800Y0060945D01*
X0182800Y0059346D02*
X0183200Y0059346D01*
X0183200Y0057748D02*
X0182800Y0057748D01*
X0182800Y0056149D02*
X0183200Y0056149D01*
X0183200Y0054551D02*
X0182800Y0054551D01*
X0182800Y0052952D02*
X0183200Y0052952D01*
X0183200Y0051600D02*
X0188500Y0051600D01*
X0188500Y0051367D01*
X0188365Y0050512D01*
X0188097Y0049689D01*
X0187704Y0048917D01*
X0187195Y0048217D01*
X0186583Y0047605D01*
X0185883Y0047096D01*
X0185302Y0046800D01*
X0185883Y0046504D01*
X0186583Y0045995D01*
X0187195Y0045383D01*
X0187704Y0044683D01*
X0188097Y0043911D01*
X0188365Y0043088D01*
X0188500Y0042233D01*
X0188500Y0042000D01*
X0183200Y0042000D01*
X0183200Y0046300D01*
X0183200Y0051600D01*
X0183200Y0051354D02*
X0182800Y0051354D01*
X0182800Y0049755D02*
X0183200Y0049755D01*
X0183200Y0048157D02*
X0182800Y0048157D01*
X0182800Y0046558D02*
X0183200Y0046558D01*
X0183200Y0044960D02*
X0182800Y0044960D01*
X0182800Y0043361D02*
X0183200Y0043361D01*
X0183200Y0041763D02*
X0196100Y0041763D01*
X0196178Y0043361D02*
X0188276Y0043361D01*
X0187503Y0044960D02*
X0196840Y0044960D01*
X0198000Y0046558D02*
X0185776Y0046558D01*
X0187135Y0048157D02*
X0197041Y0048157D01*
X0196378Y0049755D02*
X0188119Y0049755D01*
X0188498Y0051354D02*
X0196100Y0051354D01*
X0196100Y0052952D02*
X0188386Y0052952D01*
X0187771Y0054551D02*
X0196671Y0054551D01*
X0197591Y0056149D02*
X0186371Y0056149D01*
X0186726Y0057748D02*
X0197294Y0057748D01*
X0196548Y0059346D02*
X0187923Y0059346D01*
X0188433Y0060945D02*
X0196100Y0060945D01*
X0196100Y0062543D02*
X0188451Y0062543D01*
X0187980Y0064142D02*
X0196502Y0064142D01*
X0197182Y0065740D02*
X0186838Y0065740D01*
X0186217Y0067339D02*
X0197703Y0067339D01*
X0196717Y0068937D02*
X0187714Y0068937D01*
X0188368Y0070536D02*
X0196100Y0070536D01*
X0196100Y0072134D02*
X0188500Y0072134D01*
X0188155Y0073733D02*
X0196332Y0073733D01*
X0196994Y0075332D02*
X0187233Y0075332D01*
X0185557Y0076930D02*
X0198112Y0076930D01*
X0196887Y0078529D02*
X0187422Y0078529D01*
X0183200Y0083324D02*
X0182800Y0083324D01*
X0182800Y0084923D02*
X0183200Y0084923D01*
X0183200Y0086521D02*
X0182800Y0086521D01*
X0180151Y0086521D02*
X0178037Y0086521D01*
X0173000Y0081800D02*
X0173000Y0071800D01*
X0173000Y0061800D01*
X0173000Y0051800D01*
X0173000Y0041800D01*
X0173000Y0031800D01*
X0173000Y0021800D01*
X0173000Y0011800D01*
X0166686Y0014588D02*
X0129556Y0014588D01*
X0131155Y0016187D02*
X0167629Y0016187D01*
X0167257Y0017785D02*
X0132753Y0017785D01*
X0134352Y0019384D02*
X0166532Y0019384D01*
X0166100Y0020982D02*
X0135950Y0020982D01*
X0137549Y0022581D02*
X0166100Y0022581D01*
X0166517Y0024179D02*
X0139147Y0024179D01*
X0140746Y0025778D02*
X0167220Y0025778D01*
X0167666Y0027376D02*
X0142344Y0027376D01*
X0143943Y0028975D02*
X0166702Y0028975D01*
X0166100Y0030573D02*
X0145541Y0030573D01*
X0147140Y0032172D02*
X0166100Y0032172D01*
X0166348Y0033770D02*
X0148738Y0033770D01*
X0150337Y0035369D02*
X0167010Y0035369D01*
X0168075Y0036967D02*
X0151935Y0036967D01*
X0153534Y0038566D02*
X0166871Y0038566D01*
X0166209Y0040164D02*
X0155132Y0040164D01*
X0156731Y0041763D02*
X0166100Y0041763D01*
X0166178Y0043361D02*
X0158329Y0043361D01*
X0159928Y0044960D02*
X0166840Y0044960D01*
X0168000Y0046558D02*
X0161526Y0046558D01*
X0163125Y0048157D02*
X0167041Y0048157D01*
X0166378Y0049755D02*
X0164060Y0049755D01*
X0164200Y0051354D02*
X0166100Y0051354D01*
X0166100Y0052952D02*
X0164200Y0052952D01*
X0164200Y0054551D02*
X0166671Y0054551D01*
X0167591Y0056149D02*
X0164200Y0056149D01*
X0164200Y0057748D02*
X0167294Y0057748D01*
X0166548Y0059346D02*
X0164200Y0059346D01*
X0164200Y0060945D02*
X0166100Y0060945D01*
X0166100Y0062543D02*
X0164200Y0062543D01*
X0164200Y0064142D02*
X0166502Y0064142D01*
X0167182Y0065740D02*
X0164200Y0065740D01*
X0164200Y0067339D02*
X0167703Y0067339D01*
X0166717Y0068937D02*
X0164200Y0068937D01*
X0164200Y0070536D02*
X0166100Y0070536D01*
X0166100Y0072134D02*
X0164200Y0072134D01*
X0164200Y0073733D02*
X0166332Y0073733D01*
X0166994Y0075332D02*
X0164200Y0075332D01*
X0164200Y0076930D02*
X0168112Y0076930D01*
X0166887Y0078529D02*
X0164200Y0078529D01*
X0164200Y0080127D02*
X0166224Y0080127D01*
X0166100Y0081726D02*
X0164200Y0081726D01*
X0164200Y0083324D02*
X0166163Y0083324D01*
X0166825Y0084923D02*
X0164200Y0084923D01*
X0164200Y0086521D02*
X0167963Y0086521D01*
X0170226Y0088120D02*
X0164200Y0088120D01*
X0164200Y0089718D02*
X0339000Y0089718D01*
X0339000Y0088120D02*
X0325774Y0088120D01*
X0328037Y0086521D02*
X0339000Y0086521D01*
X0339000Y0084923D02*
X0329175Y0084923D01*
X0329837Y0083324D02*
X0339000Y0083324D01*
X0339000Y0081726D02*
X0329900Y0081726D01*
X0329776Y0080127D02*
X0339000Y0080127D01*
X0339000Y0078529D02*
X0329113Y0078529D01*
X0327888Y0076930D02*
X0339000Y0076930D01*
X0339000Y0075332D02*
X0329006Y0075332D01*
X0329668Y0073733D02*
X0339000Y0073733D01*
X0339000Y0072134D02*
X0329900Y0072134D01*
X0329900Y0070536D02*
X0339000Y0070536D01*
X0339000Y0068937D02*
X0329283Y0068937D01*
X0328297Y0067339D02*
X0339000Y0067339D01*
X0339000Y0065740D02*
X0328818Y0065740D01*
X0329498Y0064142D02*
X0339000Y0064142D01*
X0339000Y0062543D02*
X0329900Y0062543D01*
X0329900Y0060945D02*
X0339000Y0060945D01*
X0339000Y0059346D02*
X0329452Y0059346D01*
X0328706Y0057748D02*
X0339000Y0057748D01*
X0339000Y0056149D02*
X0328409Y0056149D01*
X0329329Y0054551D02*
X0339000Y0054551D01*
X0339000Y0052952D02*
X0329900Y0052952D01*
X0329900Y0051354D02*
X0339000Y0051354D01*
X0339000Y0049755D02*
X0329622Y0049755D01*
X0328959Y0048157D02*
X0339000Y0048157D01*
X0339000Y0046558D02*
X0328000Y0046558D01*
X0329160Y0044960D02*
X0339000Y0044960D01*
X0339000Y0043361D02*
X0329822Y0043361D01*
X0329900Y0041763D02*
X0339000Y0041763D01*
X0339000Y0040164D02*
X0329791Y0040164D01*
X0329129Y0038566D02*
X0339000Y0038566D01*
X0339000Y0036967D02*
X0327925Y0036967D01*
X0328990Y0035369D02*
X0339000Y0035369D01*
X0339000Y0033770D02*
X0329652Y0033770D01*
X0329900Y0032172D02*
X0339000Y0032172D01*
X0339000Y0030573D02*
X0329900Y0030573D01*
X0329298Y0028975D02*
X0339000Y0028975D01*
X0339000Y0027376D02*
X0328334Y0027376D01*
X0328780Y0025778D02*
X0338533Y0025778D01*
X0336935Y0024179D02*
X0329483Y0024179D01*
X0329900Y0022581D02*
X0335336Y0022581D01*
X0333738Y0020982D02*
X0329900Y0020982D01*
X0329468Y0019384D02*
X0332139Y0019384D01*
X0330541Y0017785D02*
X0328743Y0017785D01*
X0328942Y0016187D02*
X0328371Y0016187D01*
X0333862Y0009793D02*
X0391901Y0009793D01*
X0391901Y0011391D02*
X0335460Y0011391D01*
X0337059Y0012990D02*
X0391901Y0012990D01*
X0391901Y0014588D02*
X0338657Y0014588D01*
X0340256Y0016187D02*
X0391901Y0016187D01*
X0391901Y0017785D02*
X0341854Y0017785D01*
X0343453Y0019384D02*
X0391901Y0019384D01*
X0391901Y0020982D02*
X0345051Y0020982D01*
X0346498Y0022581D02*
X0391901Y0022581D01*
X0391901Y0024179D02*
X0347000Y0024179D01*
X0347000Y0025778D02*
X0391901Y0025778D01*
X0391901Y0027376D02*
X0347000Y0027376D01*
X0347000Y0028975D02*
X0391901Y0028975D01*
X0391901Y0030573D02*
X0347000Y0030573D01*
X0347000Y0032172D02*
X0391901Y0032172D01*
X0391901Y0033770D02*
X0347000Y0033770D01*
X0347000Y0035369D02*
X0391901Y0035369D01*
X0391901Y0036967D02*
X0347000Y0036967D01*
X0347000Y0038566D02*
X0391901Y0038566D01*
X0391901Y0040164D02*
X0347000Y0040164D01*
X0347000Y0041763D02*
X0391901Y0041763D01*
X0391901Y0043361D02*
X0347000Y0043361D01*
X0347000Y0044960D02*
X0391901Y0044960D01*
X0391901Y0046558D02*
X0347000Y0046558D01*
X0347000Y0048157D02*
X0391901Y0048157D01*
X0391901Y0049755D02*
X0347000Y0049755D01*
X0347000Y0051354D02*
X0391901Y0051354D01*
X0391901Y0052952D02*
X0347000Y0052952D01*
X0347000Y0054551D02*
X0391901Y0054551D01*
X0391901Y0056149D02*
X0347000Y0056149D01*
X0347000Y0057748D02*
X0391901Y0057748D01*
X0391901Y0059346D02*
X0347000Y0059346D01*
X0347000Y0060945D02*
X0391901Y0060945D01*
X0391901Y0062543D02*
X0347000Y0062543D01*
X0347000Y0064142D02*
X0391901Y0064142D01*
X0391901Y0065740D02*
X0347000Y0065740D01*
X0347000Y0067339D02*
X0391901Y0067339D01*
X0391901Y0068937D02*
X0347000Y0068937D01*
X0347000Y0070536D02*
X0391901Y0070536D01*
X0391901Y0072134D02*
X0347000Y0072134D01*
X0347000Y0073733D02*
X0391901Y0073733D01*
X0391901Y0075332D02*
X0347000Y0075332D01*
X0347000Y0076930D02*
X0391901Y0076930D01*
X0391901Y0078529D02*
X0347000Y0078529D01*
X0347000Y0080127D02*
X0391901Y0080127D01*
X0391901Y0081726D02*
X0347000Y0081726D01*
X0347000Y0083324D02*
X0391901Y0083324D01*
X0391901Y0084923D02*
X0347000Y0084923D01*
X0347000Y0086521D02*
X0391901Y0086521D01*
X0391901Y0088120D02*
X0347000Y0088120D01*
X0347000Y0089718D02*
X0391901Y0089718D01*
X0391901Y0091317D02*
X0347000Y0091317D01*
X0347000Y0092915D02*
X0391901Y0092915D01*
X0391901Y0094514D02*
X0347000Y0094514D01*
X0347000Y0096112D02*
X0391901Y0096112D01*
X0391901Y0097711D02*
X0347000Y0097711D01*
X0347000Y0099309D02*
X0391901Y0099309D01*
X0391901Y0100908D02*
X0347000Y0100908D01*
X0347000Y0102506D02*
X0391901Y0102506D01*
X0391901Y0104105D02*
X0347000Y0104105D01*
X0347000Y0105703D02*
X0391901Y0105703D01*
X0391901Y0107302D02*
X0347000Y0107302D01*
X0347000Y0108900D02*
X0391901Y0108900D01*
X0391901Y0110499D02*
X0347000Y0110499D01*
X0347000Y0112097D02*
X0391901Y0112097D01*
X0391901Y0113696D02*
X0347000Y0113696D01*
X0347000Y0115294D02*
X0391901Y0115294D01*
X0391901Y0116893D02*
X0347000Y0116893D01*
X0347000Y0118491D02*
X0391901Y0118491D01*
X0391901Y0120090D02*
X0347000Y0120090D01*
X0347000Y0121688D02*
X0391901Y0121688D01*
X0391901Y0123287D02*
X0347000Y0123287D01*
X0347000Y0124885D02*
X0391901Y0124885D01*
X0391901Y0126484D02*
X0347000Y0126484D01*
X0347000Y0128082D02*
X0391901Y0128082D01*
X0391901Y0129681D02*
X0347000Y0129681D01*
X0347000Y0131279D02*
X0391901Y0131279D01*
X0391901Y0132878D02*
X0347000Y0132878D01*
X0347000Y0134476D02*
X0391901Y0134476D01*
X0391901Y0136075D02*
X0347000Y0136075D01*
X0347000Y0137673D02*
X0391901Y0137673D01*
X0391901Y0139272D02*
X0347000Y0139272D01*
X0347000Y0140870D02*
X0391901Y0140870D01*
X0391901Y0142469D02*
X0347000Y0142469D01*
X0347000Y0144068D02*
X0391901Y0144068D01*
X0391901Y0145666D02*
X0347000Y0145666D01*
X0347000Y0147265D02*
X0391901Y0147265D01*
X0391901Y0148863D02*
X0347000Y0148863D01*
X0347000Y0150462D02*
X0391901Y0150462D01*
X0391901Y0152060D02*
X0347000Y0152060D01*
X0347000Y0153659D02*
X0391901Y0153659D01*
X0391901Y0155257D02*
X0347000Y0155257D01*
X0347000Y0156856D02*
X0391901Y0156856D01*
X0391901Y0158454D02*
X0347000Y0158454D01*
X0347000Y0160053D02*
X0391901Y0160053D01*
X0391901Y0161651D02*
X0347000Y0161651D01*
X0347000Y0163250D02*
X0391901Y0163250D01*
X0391901Y0164848D02*
X0347000Y0164848D01*
X0347000Y0166447D02*
X0391901Y0166447D01*
X0391901Y0168045D02*
X0347000Y0168045D01*
X0347000Y0169644D02*
X0391901Y0169644D01*
X0391901Y0171242D02*
X0347000Y0171242D01*
X0347000Y0172841D02*
X0391901Y0172841D01*
X0391901Y0174439D02*
X0347000Y0174439D01*
X0347000Y0176038D02*
X0391901Y0176038D01*
X0391901Y0177636D02*
X0347000Y0177636D01*
X0347000Y0179235D02*
X0391901Y0179235D01*
X0391901Y0180833D02*
X0347000Y0180833D01*
X0347000Y0182432D02*
X0391901Y0182432D01*
X0391901Y0184030D02*
X0347000Y0184030D01*
X0347000Y0185629D02*
X0391901Y0185629D01*
X0391901Y0187227D02*
X0347000Y0187227D01*
X0347000Y0188826D02*
X0391901Y0188826D01*
X0391901Y0190424D02*
X0347000Y0190424D01*
X0347000Y0192023D02*
X0391901Y0192023D01*
X0391901Y0193621D02*
X0347000Y0193621D01*
X0347000Y0195220D02*
X0391901Y0195220D01*
X0391901Y0196818D02*
X0347000Y0196818D01*
X0347000Y0198417D02*
X0391901Y0198417D01*
X0391901Y0200015D02*
X0347000Y0200015D01*
X0347000Y0201614D02*
X0391901Y0201614D01*
X0391901Y0203212D02*
X0347000Y0203212D01*
X0347000Y0204811D02*
X0391901Y0204811D01*
X0391901Y0206409D02*
X0347000Y0206409D01*
X0347000Y0208008D02*
X0391901Y0208008D01*
X0391901Y0209606D02*
X0347000Y0209606D01*
X0347000Y0211205D02*
X0391901Y0211205D01*
X0391901Y0212803D02*
X0347000Y0212803D01*
X0347000Y0214402D02*
X0391901Y0214402D01*
X0391901Y0216001D02*
X0347000Y0216001D01*
X0347000Y0217599D02*
X0391901Y0217599D01*
X0391901Y0219198D02*
X0347000Y0219198D01*
X0347000Y0220796D02*
X0391901Y0220796D01*
X0391901Y0222395D02*
X0347000Y0222395D01*
X0347000Y0223993D02*
X0391901Y0223993D01*
X0391901Y0225592D02*
X0347000Y0225592D01*
X0347000Y0227190D02*
X0391901Y0227190D01*
X0391901Y0228789D02*
X0347000Y0228789D01*
X0347000Y0230387D02*
X0391901Y0230387D01*
X0391901Y0231986D02*
X0347000Y0231986D01*
X0347000Y0233584D02*
X0391901Y0233584D01*
X0391901Y0235183D02*
X0347000Y0235183D01*
X0347000Y0236781D02*
X0391901Y0236781D01*
X0391901Y0238380D02*
X0347000Y0238380D01*
X0347000Y0239978D02*
X0391901Y0239978D01*
X0391901Y0241577D02*
X0347000Y0241577D01*
X0346760Y0243175D02*
X0391901Y0243175D01*
X0391901Y0244774D02*
X0345683Y0244774D01*
X0344085Y0246372D02*
X0391901Y0246372D01*
X0391901Y0247971D02*
X0342486Y0247971D01*
X0340888Y0249569D02*
X0391901Y0249569D01*
X0391901Y0251168D02*
X0339289Y0251168D01*
X0337691Y0252766D02*
X0391901Y0252766D01*
X0391901Y0254365D02*
X0336092Y0254365D01*
X0333000Y0226800D02*
X0318000Y0226800D01*
X0318000Y0216800D02*
X0333000Y0216800D01*
X0338762Y0212803D02*
X0339000Y0212803D01*
X0339000Y0211205D02*
X0337163Y0211205D01*
X0339000Y0209606D02*
X0325715Y0209606D01*
X0326378Y0208008D02*
X0339000Y0208008D01*
X0339000Y0206409D02*
X0326400Y0206409D01*
X0326054Y0204811D02*
X0339000Y0204811D01*
X0339000Y0203212D02*
X0325215Y0203212D01*
X0323989Y0201614D02*
X0339000Y0201614D01*
X0339000Y0200015D02*
X0325546Y0200015D01*
X0326208Y0198417D02*
X0339000Y0198417D01*
X0339000Y0196818D02*
X0326400Y0196818D01*
X0326223Y0195220D02*
X0339000Y0195220D01*
X0339000Y0193621D02*
X0325561Y0193621D01*
X0324025Y0192023D02*
X0339000Y0192023D01*
X0339000Y0190424D02*
X0325178Y0190424D01*
X0326039Y0188826D02*
X0339000Y0188826D01*
X0339000Y0187227D02*
X0326400Y0187227D01*
X0326393Y0185629D02*
X0339000Y0185629D01*
X0339000Y0184030D02*
X0325731Y0184030D01*
X0324434Y0182432D02*
X0339000Y0182432D01*
X0339000Y0180833D02*
X0324769Y0180833D01*
X0325869Y0179235D02*
X0339000Y0179235D01*
X0339000Y0177636D02*
X0326400Y0177636D01*
X0326400Y0176038D02*
X0339000Y0176038D01*
X0339000Y0174439D02*
X0325900Y0174439D01*
X0324843Y0172841D02*
X0339000Y0172841D01*
X0339000Y0171242D02*
X0324360Y0171242D01*
X0325700Y0169644D02*
X0339000Y0169644D01*
X0339000Y0168045D02*
X0326362Y0168045D01*
X0326400Y0166447D02*
X0339000Y0166447D01*
X0339000Y0164848D02*
X0326069Y0164848D01*
X0325252Y0163250D02*
X0339000Y0163250D01*
X0339000Y0161651D02*
X0323951Y0161651D01*
X0325531Y0160053D02*
X0339000Y0160053D01*
X0339000Y0158454D02*
X0326193Y0158454D01*
X0326400Y0156856D02*
X0339000Y0156856D01*
X0339000Y0155257D02*
X0326239Y0155257D01*
X0325577Y0153659D02*
X0339000Y0153659D01*
X0339000Y0152060D02*
X0324063Y0152060D01*
X0325141Y0150462D02*
X0339000Y0150462D01*
X0339000Y0148863D02*
X0326023Y0148863D01*
X0326400Y0147265D02*
X0339000Y0147265D01*
X0339000Y0145666D02*
X0326400Y0145666D01*
X0325746Y0144068D02*
X0339000Y0144068D01*
X0339000Y0142469D02*
X0324471Y0142469D01*
X0324732Y0140870D02*
X0339000Y0140870D01*
X0339000Y0139272D02*
X0325854Y0139272D01*
X0326400Y0137673D02*
X0339000Y0137673D01*
X0339000Y0136075D02*
X0326400Y0136075D01*
X0325915Y0134476D02*
X0339000Y0134476D01*
X0339000Y0132878D02*
X0324880Y0132878D01*
X0322428Y0131279D02*
X0339000Y0131279D01*
X0339000Y0129681D02*
X0323942Y0129681D01*
X0324810Y0128082D02*
X0339000Y0128082D01*
X0339000Y0126484D02*
X0325000Y0126484D01*
X0324563Y0124885D02*
X0339000Y0124885D01*
X0339000Y0123287D02*
X0323250Y0123287D01*
X0318000Y0123287D02*
X0318000Y0123287D01*
X0318000Y0124885D02*
X0318000Y0124885D01*
X0318000Y0126484D02*
X0318000Y0126484D01*
X0318000Y0120090D02*
X0318000Y0120090D01*
X0318000Y0118491D02*
X0318000Y0118491D01*
X0318000Y0116893D02*
X0318000Y0116893D01*
X0318000Y0115294D02*
X0318000Y0115294D01*
X0318000Y0113696D02*
X0318000Y0113696D01*
X0318000Y0110499D02*
X0318000Y0110499D01*
X0318000Y0108900D02*
X0318000Y0108900D01*
X0318000Y0107302D02*
X0318000Y0107302D01*
X0324468Y0108900D02*
X0339000Y0108900D01*
X0339000Y0107302D02*
X0324975Y0107302D01*
X0324870Y0105703D02*
X0339000Y0105703D01*
X0339000Y0104105D02*
X0324080Y0104105D01*
X0325496Y0102506D02*
X0330504Y0102506D01*
X0328905Y0100908D02*
X0327095Y0100908D01*
X0327318Y0092915D02*
X0328682Y0092915D01*
X0330281Y0091317D02*
X0325719Y0091317D01*
X0320226Y0088120D02*
X0295774Y0088120D01*
X0298037Y0086521D02*
X0310151Y0086521D01*
X0308470Y0084923D02*
X0299175Y0084923D01*
X0299837Y0083324D02*
X0307712Y0083324D01*
X0307761Y0080127D02*
X0299776Y0080127D01*
X0299900Y0081726D02*
X0312800Y0081726D01*
X0312800Y0083324D02*
X0313200Y0083324D01*
X0313200Y0084923D02*
X0312800Y0084923D01*
X0312800Y0086521D02*
X0313200Y0086521D01*
X0315849Y0086521D02*
X0317963Y0086521D01*
X0315281Y0091317D02*
X0265719Y0091317D01*
X0267318Y0092915D02*
X0275662Y0092915D01*
X0276177Y0092400D02*
X0273600Y0094977D01*
X0273600Y0096800D01*
X0278000Y0096800D01*
X0282400Y0096800D01*
X0282400Y0098623D01*
X0279823Y0101200D01*
X0278000Y0101200D01*
X0278000Y0096800D01*
X0278000Y0096800D01*
X0278000Y0096800D01*
X0282400Y0096800D01*
X0282400Y0094977D01*
X0279823Y0092400D01*
X0278000Y0092400D01*
X0278000Y0096800D01*
X0278000Y0096800D01*
X0278000Y0096800D01*
X0278000Y0101200D01*
X0276177Y0101200D01*
X0273600Y0098623D01*
X0273600Y0096800D01*
X0278000Y0096800D01*
X0278000Y0092400D01*
X0276177Y0092400D01*
X0278000Y0092915D02*
X0278000Y0092915D01*
X0278000Y0094514D02*
X0278000Y0094514D01*
X0278000Y0096112D02*
X0278000Y0096112D01*
X0278000Y0097711D02*
X0278000Y0097711D01*
X0278000Y0099309D02*
X0278000Y0099309D01*
X0278000Y0100908D02*
X0278000Y0100908D01*
X0275885Y0100908D02*
X0267095Y0100908D01*
X0268693Y0099309D02*
X0274287Y0099309D01*
X0273600Y0097711D02*
X0268800Y0097711D01*
X0268800Y0096112D02*
X0273600Y0096112D01*
X0274064Y0094514D02*
X0268800Y0094514D01*
X0270226Y0088120D02*
X0265774Y0088120D01*
X0260226Y0088120D02*
X0255774Y0088120D01*
X0260281Y0091317D02*
X0250719Y0091317D01*
X0250226Y0088120D02*
X0245774Y0088120D01*
X0245281Y0091317D02*
X0235719Y0091317D01*
X0235774Y0088120D02*
X0240226Y0088120D01*
X0243000Y0081800D02*
X0233000Y0081800D01*
X0223000Y0081800D01*
X0213000Y0081800D01*
X0203000Y0081800D01*
X0205774Y0088120D02*
X0210226Y0088120D01*
X0215774Y0088120D02*
X0220226Y0088120D01*
X0220719Y0091317D02*
X0230281Y0091317D01*
X0230226Y0088120D02*
X0225774Y0088120D01*
X0215281Y0091317D02*
X0164200Y0091317D01*
X0153000Y0106800D02*
X0088000Y0106800D01*
X0080212Y0111800D02*
X0078000Y0111800D01*
X0083000Y0116800D01*
X0093000Y0116800D01*
X0148000Y0116800D01*
X0160200Y0108686D02*
X0160200Y0050889D01*
X0121011Y0011700D01*
X0065888Y0011700D01*
X0062900Y0014687D01*
X0062900Y0017556D01*
X0052334Y0024600D01*
X0052089Y0024600D01*
X0051598Y0025090D01*
X0051021Y0025475D01*
X0050973Y0025715D01*
X0050800Y0025889D01*
X0050800Y0026582D01*
X0050664Y0027262D01*
X0030800Y0047126D01*
X0030800Y0084000D01*
X0023000Y0091800D01*
X0023000Y0101800D02*
X0023000Y0106800D01*
X0028000Y0111800D01*
X0028000Y0136800D01*
X0033000Y0141800D01*
X0053000Y0136800D02*
X0063000Y0146800D01*
X0148000Y0146800D01*
X0168000Y0126800D01*
X0163564Y0116893D02*
X0199000Y0116893D01*
X0203000Y0111800D02*
X0168000Y0111800D01*
X0203000Y0111800D02*
X0203000Y0123543D01*
X0204600Y0125143D01*
X0204600Y0178457D01*
X0198000Y0185057D01*
X0198000Y0186800D01*
X0168000Y0206800D02*
X0133000Y0206800D01*
X0083100Y0141900D02*
X0064014Y0141900D01*
X0042900Y0120786D01*
X0042900Y0099687D01*
X0050887Y0091700D01*
X0067900Y0091700D01*
X0068000Y0091800D01*
X0048000Y0091800D01*
X0043000Y0086800D01*
X0053000Y0086800D02*
X0053000Y0031800D01*
X0068000Y0021800D01*
X0072145Y0016187D02*
X0119841Y0016187D01*
X0121440Y0017785D02*
X0081763Y0017785D01*
X0080278Y0016300D02*
X0083500Y0019522D01*
X0083500Y0021600D01*
X0078200Y0021600D01*
X0078200Y0016300D01*
X0080278Y0016300D01*
X0078200Y0017785D02*
X0077800Y0017785D01*
X0077800Y0019384D02*
X0078200Y0019384D01*
X0078200Y0020982D02*
X0077800Y0020982D01*
X0074237Y0017785D02*
X0073743Y0017785D01*
X0083362Y0019384D02*
X0123038Y0019384D01*
X0124637Y0020982D02*
X0083500Y0020982D01*
X0083500Y0022581D02*
X0126235Y0022581D01*
X0127834Y0024179D02*
X0083399Y0024179D01*
X0081800Y0025778D02*
X0129432Y0025778D01*
X0131031Y0027376D02*
X0083334Y0027376D01*
X0084900Y0028975D02*
X0132629Y0028975D01*
X0141131Y0012990D02*
X0166100Y0012990D01*
X0166100Y0011391D02*
X0142287Y0011391D01*
X0138000Y0009489D02*
X0060311Y0009489D01*
X0043000Y0026800D01*
X0038825Y0028975D02*
X0037175Y0028975D01*
X0038081Y0027376D02*
X0038311Y0027376D01*
X0040142Y0030573D02*
X0035858Y0030573D01*
X0038499Y0033770D02*
X0007800Y0033770D01*
X0007800Y0032172D02*
X0040098Y0032172D01*
X0036900Y0035369D02*
X0007800Y0035369D01*
X0007800Y0036967D02*
X0035302Y0036967D01*
X0033703Y0038566D02*
X0007800Y0038566D01*
X0007800Y0040164D02*
X0032105Y0040164D01*
X0030506Y0041763D02*
X0007800Y0041763D01*
X0007800Y0043361D02*
X0028908Y0043361D01*
X0027368Y0044960D02*
X0007800Y0044960D01*
X0007800Y0046558D02*
X0026800Y0046558D01*
X0026800Y0048157D02*
X0007800Y0048157D01*
X0007800Y0049755D02*
X0026800Y0049755D01*
X0026800Y0051354D02*
X0007800Y0051354D01*
X0007800Y0052952D02*
X0026800Y0052952D01*
X0026800Y0054551D02*
X0007800Y0054551D01*
X0007800Y0056149D02*
X0026800Y0056149D01*
X0026800Y0057748D02*
X0007800Y0057748D01*
X0007800Y0059346D02*
X0026800Y0059346D01*
X0026800Y0060945D02*
X0007800Y0060945D01*
X0007800Y0062543D02*
X0026800Y0062543D01*
X0026800Y0064142D02*
X0007800Y0064142D01*
X0007800Y0065740D02*
X0026800Y0065740D01*
X0026800Y0067339D02*
X0016217Y0067339D01*
X0015883Y0067096D02*
X0016583Y0067605D01*
X0017195Y0068217D01*
X0017704Y0068917D01*
X0018097Y0069689D01*
X0018365Y0070512D01*
X0018500Y0071367D01*
X0018500Y0071600D01*
X0013200Y0071600D01*
X0013200Y0066300D01*
X0013433Y0066300D01*
X0014288Y0066435D01*
X0015111Y0066703D01*
X0015883Y0067096D01*
X0017714Y0068937D02*
X0026800Y0068937D01*
X0026800Y0070536D02*
X0018368Y0070536D01*
X0018500Y0072134D02*
X0026800Y0072134D01*
X0026800Y0073733D02*
X0018155Y0073733D01*
X0017233Y0075332D02*
X0020586Y0075332D01*
X0018112Y0076930D02*
X0017888Y0076930D01*
X0025414Y0075332D02*
X0026800Y0075332D01*
X0013200Y0070536D02*
X0012800Y0070536D01*
X0012800Y0068937D02*
X0013200Y0068937D01*
X0013200Y0067339D02*
X0012800Y0067339D01*
X0009783Y0067339D02*
X0007800Y0067339D01*
X0007800Y0068937D02*
X0008286Y0068937D01*
X0053000Y0086800D02*
X0058000Y0091800D01*
X0068000Y0091800D01*
X0068000Y0101800D02*
X0058000Y0101800D01*
X0053000Y0096800D01*
X0053000Y0106800D02*
X0058000Y0111800D01*
X0068000Y0111800D01*
X0063000Y0111800D01*
X0068000Y0121800D02*
X0048000Y0121800D01*
X0080212Y0111800D02*
X0083100Y0114687D01*
X0083100Y0141900D01*
X0123000Y0091800D02*
X0128000Y0086800D01*
X0126079Y0080127D02*
X0106304Y0080127D01*
X0103731Y0081726D02*
X0123316Y0081726D01*
X0121971Y0083324D02*
X0102133Y0083324D01*
X0100534Y0084923D02*
X0121309Y0084923D01*
X0121100Y0086521D02*
X0083037Y0086521D01*
X0078000Y0081800D02*
X0098000Y0081800D01*
X0103000Y0076800D01*
X0103000Y0071800D02*
X0108000Y0066800D01*
X0106023Y0062543D02*
X0092913Y0062543D01*
X0091315Y0064142D02*
X0104027Y0064142D01*
X0103364Y0065740D02*
X0088939Y0065740D01*
X0088000Y0061800D02*
X0078000Y0061800D01*
X0083297Y0067339D02*
X0101804Y0067339D01*
X0103000Y0071800D02*
X0078000Y0071800D01*
X0068000Y0081800D02*
X0058000Y0071800D01*
X0058000Y0056800D01*
X0083000Y0046558D02*
X0107585Y0046558D01*
X0093000Y0056800D02*
X0088000Y0061800D01*
X0010136Y0128082D02*
X0007800Y0128082D01*
X0007800Y0126484D02*
X0007926Y0126484D01*
X0007800Y0163250D02*
X0012688Y0163250D01*
X0013416Y0164848D02*
X0007800Y0164848D01*
X0007800Y0166447D02*
X0013595Y0166447D01*
X0012087Y0168045D02*
X0007800Y0168045D01*
X0007800Y0169644D02*
X0011425Y0169644D01*
X0011100Y0171242D02*
X0007800Y0171242D01*
X0007800Y0172841D02*
X0011100Y0172841D01*
X0011625Y0174439D02*
X0007800Y0174439D01*
X0007800Y0176038D02*
X0012480Y0176038D01*
X0014078Y0177636D02*
X0007800Y0177636D01*
X0007800Y0198417D02*
X0013095Y0198417D01*
X0012341Y0200015D02*
X0007800Y0200015D01*
X0007800Y0201614D02*
X0012028Y0201614D01*
X0012056Y0203212D02*
X0007800Y0203212D01*
X0007800Y0204811D02*
X0012718Y0204811D01*
X0014007Y0206409D02*
X0007800Y0206409D01*
X0007800Y0208008D02*
X0013347Y0208008D01*
X0012445Y0209606D02*
X0007800Y0209606D01*
X0007800Y0211205D02*
X0012028Y0211205D01*
X0012028Y0212803D02*
X0007800Y0212803D01*
X0007800Y0214402D02*
X0012614Y0214402D01*
X0013755Y0216001D02*
X0007800Y0216001D01*
X0007800Y0217599D02*
X0013598Y0217599D01*
X0012549Y0219198D02*
X0007800Y0219198D01*
X0007800Y0220796D02*
X0012028Y0220796D01*
X0012028Y0222395D02*
X0007800Y0222395D01*
X0007800Y0223993D02*
X0012510Y0223993D01*
X0013504Y0225592D02*
X0007800Y0225592D01*
X0007800Y0255963D02*
X0008154Y0255963D01*
X0007800Y0257562D02*
X0010563Y0257562D01*
X0007800Y0259160D02*
X0019088Y0259160D01*
X0017957Y0257562D02*
X0016437Y0257562D01*
X0021336Y0260759D02*
X0007800Y0260759D01*
X0048000Y0251800D02*
X0048000Y0291800D01*
X0021583Y0383844D02*
X0374417Y0383844D01*
X0376016Y0385443D02*
X0019984Y0385443D01*
X0017362Y0387041D02*
X0378638Y0387041D01*
X0387362Y0387041D02*
X0391901Y0387041D01*
X0391901Y0385443D02*
X0389984Y0385443D01*
X0391583Y0383844D02*
X0391901Y0383844D01*
X0391901Y0388640D02*
X0007800Y0388640D01*
X0007800Y0390238D02*
X0391901Y0390238D01*
X0391901Y0369458D02*
X0391285Y0369458D01*
X0391901Y0367859D02*
X0389614Y0367859D01*
X0391901Y0366261D02*
X0386360Y0366261D01*
X0372671Y0372655D02*
X0177802Y0372655D01*
X0176204Y0374253D02*
X0184053Y0374253D01*
X0183368Y0371056D02*
X0179401Y0371056D01*
X0188000Y0374253D02*
X0188000Y0374253D01*
X0188000Y0375852D02*
X0188000Y0375852D01*
X0188000Y0377450D02*
X0188000Y0377450D01*
X0188000Y0379049D02*
X0188000Y0379049D01*
X0188000Y0380647D02*
X0188000Y0380647D01*
X0285202Y0255963D02*
X0391901Y0255963D01*
X0391901Y0302320D02*
X0388680Y0302320D01*
X0390746Y0303919D02*
X0391901Y0303919D01*
X0328837Y0211205D02*
X0324397Y0211205D01*
X0281603Y0211205D02*
X0268353Y0211205D01*
X0268762Y0212803D02*
X0281194Y0212803D01*
X0280115Y0214402D02*
X0269475Y0214402D01*
X0269900Y0216001D02*
X0279600Y0216001D01*
X0279600Y0217599D02*
X0269900Y0217599D01*
X0269475Y0219198D02*
X0280115Y0219198D01*
X0281194Y0220796D02*
X0268762Y0220796D01*
X0268353Y0222395D02*
X0281603Y0222395D01*
X0280285Y0223993D02*
X0269306Y0223993D01*
X0269900Y0225592D02*
X0279623Y0225592D01*
X0279600Y0227190D02*
X0269900Y0227190D01*
X0269645Y0228789D02*
X0279946Y0228789D01*
X0280785Y0230387D02*
X0268983Y0230387D01*
X0267572Y0231986D02*
X0282012Y0231986D01*
X0280454Y0233584D02*
X0264652Y0233584D01*
X0269306Y0209606D02*
X0280285Y0209606D01*
X0279622Y0208008D02*
X0269900Y0208008D01*
X0269900Y0206409D02*
X0279600Y0206409D01*
X0279946Y0204811D02*
X0269645Y0204811D01*
X0268982Y0203212D02*
X0280785Y0203212D01*
X0282011Y0201614D02*
X0267944Y0201614D01*
X0269137Y0200015D02*
X0280454Y0200015D01*
X0279792Y0198417D02*
X0269799Y0198417D01*
X0269900Y0196818D02*
X0279600Y0196818D01*
X0279777Y0195220D02*
X0269814Y0195220D01*
X0269152Y0193621D02*
X0280439Y0193621D01*
X0281975Y0192023D02*
X0267981Y0192023D01*
X0268967Y0190424D02*
X0280822Y0190424D01*
X0279961Y0188826D02*
X0269629Y0188826D01*
X0269900Y0187227D02*
X0279600Y0187227D01*
X0279607Y0185629D02*
X0269900Y0185629D01*
X0269321Y0184030D02*
X0280269Y0184030D01*
X0281566Y0182432D02*
X0268390Y0182432D01*
X0268725Y0180833D02*
X0281231Y0180833D01*
X0280131Y0179235D02*
X0269460Y0179235D01*
X0269900Y0177636D02*
X0279600Y0177636D01*
X0279600Y0176038D02*
X0269900Y0176038D01*
X0269491Y0174439D02*
X0280100Y0174439D01*
X0281157Y0172841D02*
X0268799Y0172841D01*
X0268316Y0171242D02*
X0281640Y0171242D01*
X0280300Y0169644D02*
X0269291Y0169644D01*
X0269900Y0168045D02*
X0279638Y0168045D01*
X0279600Y0166447D02*
X0269900Y0166447D01*
X0269660Y0164848D02*
X0279931Y0164848D01*
X0280748Y0163250D02*
X0268998Y0163250D01*
X0267609Y0161651D02*
X0282049Y0161651D01*
X0280469Y0160053D02*
X0267950Y0160053D01*
X0268800Y0158454D02*
X0279807Y0158454D01*
X0279600Y0156856D02*
X0268800Y0156856D01*
X0268800Y0155257D02*
X0279761Y0155257D01*
X0280423Y0153659D02*
X0268061Y0153659D01*
X0266462Y0152060D02*
X0281937Y0152060D01*
X0282954Y0150462D02*
X0275970Y0150462D01*
X0277221Y0148863D02*
X0281513Y0148863D01*
X0281019Y0147265D02*
X0277689Y0147265D01*
X0277606Y0145666D02*
X0281142Y0145666D01*
X0281947Y0144068D02*
X0277000Y0144068D01*
X0277000Y0142469D02*
X0283930Y0142469D01*
X0281268Y0140870D02*
X0277000Y0140870D01*
X0277000Y0139272D02*
X0280146Y0139272D01*
X0279600Y0137673D02*
X0277000Y0137673D01*
X0277000Y0136075D02*
X0279600Y0136075D01*
X0280085Y0134476D02*
X0277000Y0134476D01*
X0277000Y0132878D02*
X0281120Y0132878D01*
X0281677Y0131279D02*
X0277000Y0131279D01*
X0277000Y0129681D02*
X0280315Y0129681D01*
X0279653Y0128082D02*
X0277000Y0128082D01*
X0277000Y0126484D02*
X0279600Y0126484D01*
X0279915Y0124885D02*
X0277000Y0124885D01*
X0277000Y0123287D02*
X0280711Y0123287D01*
X0282086Y0121688D02*
X0277000Y0121688D01*
X0277000Y0120090D02*
X0280487Y0120090D01*
X0279823Y0118491D02*
X0277000Y0118491D01*
X0277000Y0116893D02*
X0279600Y0116893D01*
X0279746Y0115294D02*
X0277000Y0115294D01*
X0277000Y0113696D02*
X0280408Y0113696D01*
X0281900Y0112097D02*
X0277000Y0112097D01*
X0277000Y0110499D02*
X0280896Y0110499D01*
X0279992Y0108900D02*
X0277205Y0108900D01*
X0277689Y0107302D02*
X0279600Y0107302D01*
X0279600Y0105703D02*
X0277621Y0105703D01*
X0276936Y0104105D02*
X0280239Y0104105D01*
X0281713Y0099309D02*
X0312307Y0099309D01*
X0312200Y0097711D02*
X0282400Y0097711D01*
X0282400Y0096112D02*
X0312200Y0096112D01*
X0312200Y0094514D02*
X0281936Y0094514D01*
X0280338Y0092915D02*
X0313682Y0092915D01*
X0313200Y0080127D02*
X0312800Y0080127D01*
X0312800Y0078529D02*
X0313200Y0078529D01*
X0313200Y0076930D02*
X0312800Y0076930D01*
X0312800Y0075332D02*
X0313200Y0075332D01*
X0313200Y0073733D02*
X0312800Y0073733D01*
X0312800Y0072134D02*
X0313200Y0072134D01*
X0313200Y0070536D02*
X0312800Y0070536D01*
X0312800Y0068937D02*
X0313200Y0068937D01*
X0313200Y0067339D02*
X0312800Y0067339D01*
X0312800Y0065740D02*
X0313200Y0065740D01*
X0313200Y0064142D02*
X0312800Y0064142D01*
X0312800Y0062543D02*
X0313200Y0062543D01*
X0313200Y0060945D02*
X0312800Y0060945D01*
X0312800Y0059346D02*
X0313200Y0059346D01*
X0313200Y0057748D02*
X0312800Y0057748D01*
X0312800Y0056149D02*
X0313200Y0056149D01*
X0313200Y0054551D02*
X0312800Y0054551D01*
X0312800Y0052952D02*
X0313200Y0052952D01*
X0313200Y0051354D02*
X0312800Y0051354D01*
X0312800Y0049755D02*
X0313200Y0049755D01*
X0313200Y0048157D02*
X0312800Y0048157D01*
X0312800Y0046558D02*
X0313200Y0046558D01*
X0313200Y0044960D02*
X0312800Y0044960D01*
X0312800Y0043361D02*
X0313200Y0043361D01*
X0312800Y0041763D02*
X0299900Y0041763D01*
X0299822Y0043361D02*
X0307724Y0043361D01*
X0308497Y0044960D02*
X0299160Y0044960D01*
X0298000Y0046558D02*
X0310224Y0046558D01*
X0308865Y0048157D02*
X0298959Y0048157D01*
X0299622Y0049755D02*
X0307881Y0049755D01*
X0307502Y0051354D02*
X0299900Y0051354D01*
X0299900Y0052952D02*
X0307614Y0052952D01*
X0308229Y0054551D02*
X0299329Y0054551D01*
X0298409Y0056149D02*
X0309629Y0056149D01*
X0309274Y0057748D02*
X0298706Y0057748D01*
X0299452Y0059346D02*
X0308077Y0059346D01*
X0307567Y0060945D02*
X0299900Y0060945D01*
X0299900Y0062543D02*
X0307549Y0062543D01*
X0308020Y0064142D02*
X0299498Y0064142D01*
X0298818Y0065740D02*
X0309162Y0065740D01*
X0309783Y0067339D02*
X0298297Y0067339D01*
X0299283Y0068937D02*
X0308286Y0068937D01*
X0307632Y0070536D02*
X0299900Y0070536D01*
X0299900Y0072134D02*
X0307500Y0072134D01*
X0307845Y0073733D02*
X0299668Y0073733D01*
X0299006Y0075332D02*
X0308767Y0075332D01*
X0310443Y0076930D02*
X0297888Y0076930D01*
X0299113Y0078529D02*
X0308578Y0078529D01*
X0293000Y0081800D02*
X0283000Y0081800D01*
X0273000Y0081800D01*
X0263000Y0081800D01*
X0253000Y0081800D01*
X0253000Y0071800D02*
X0263000Y0071800D01*
X0273000Y0071800D01*
X0283000Y0071800D01*
X0293000Y0071800D01*
X0293000Y0061800D02*
X0283000Y0061800D01*
X0273000Y0061800D01*
X0263000Y0061800D01*
X0253000Y0061800D01*
X0253000Y0051800D02*
X0263000Y0051800D01*
X0273000Y0051800D01*
X0283000Y0051800D01*
X0293000Y0051800D01*
X0293000Y0041800D02*
X0283000Y0041800D01*
X0273000Y0041800D01*
X0263000Y0041800D01*
X0253000Y0041800D01*
X0253000Y0031800D02*
X0263000Y0031800D01*
X0273000Y0031800D01*
X0283000Y0031800D01*
X0293000Y0031800D01*
X0299298Y0028975D02*
X0308267Y0028975D01*
X0307626Y0030573D02*
X0299900Y0030573D01*
X0299900Y0032172D02*
X0307500Y0032172D01*
X0307857Y0033770D02*
X0299652Y0033770D01*
X0298990Y0035369D02*
X0308794Y0035369D01*
X0310370Y0036967D02*
X0297925Y0036967D01*
X0299129Y0038566D02*
X0308551Y0038566D01*
X0307748Y0040164D02*
X0299791Y0040164D01*
X0298334Y0027376D02*
X0309732Y0027376D01*
X0309200Y0025778D02*
X0298780Y0025778D01*
X0299483Y0024179D02*
X0308039Y0024179D01*
X0307555Y0022581D02*
X0299900Y0022581D01*
X0299900Y0020982D02*
X0307561Y0020982D01*
X0308058Y0019384D02*
X0299468Y0019384D01*
X0298743Y0017785D02*
X0309237Y0017785D01*
X0309680Y0016187D02*
X0298371Y0016187D01*
X0299314Y0014588D02*
X0308248Y0014588D01*
X0307620Y0012990D02*
X0299900Y0012990D01*
X0299900Y0011391D02*
X0307500Y0011391D01*
X0312800Y0012990D02*
X0313200Y0012990D01*
X0313200Y0014588D02*
X0312800Y0014588D01*
X0312800Y0016187D02*
X0313200Y0016187D01*
X0313200Y0017785D02*
X0312800Y0017785D01*
X0312800Y0019384D02*
X0313200Y0019384D01*
X0313200Y0020982D02*
X0312800Y0020982D01*
X0312800Y0022581D02*
X0313200Y0022581D01*
X0313200Y0024179D02*
X0312800Y0024179D01*
X0312800Y0025778D02*
X0313200Y0025778D01*
X0313200Y0027376D02*
X0312800Y0027376D01*
X0312800Y0028975D02*
X0313200Y0028975D01*
X0313200Y0030573D02*
X0312800Y0030573D01*
X0312800Y0032172D02*
X0313200Y0032172D01*
X0313200Y0033770D02*
X0312800Y0033770D01*
X0312800Y0035369D02*
X0313200Y0035369D01*
X0313200Y0036967D02*
X0312800Y0036967D01*
X0312800Y0038566D02*
X0313200Y0038566D01*
X0313200Y0040164D02*
X0312800Y0040164D01*
X0293000Y0021800D02*
X0283000Y0021800D01*
X0273000Y0021800D01*
X0263000Y0021800D01*
X0253000Y0021800D01*
X0253000Y0011800D02*
X0263000Y0011800D01*
X0273000Y0011800D01*
X0283000Y0011800D01*
X0293000Y0011800D01*
X0332263Y0008194D02*
X0391901Y0008194D01*
X0339000Y0091317D02*
X0335719Y0091317D01*
X0337318Y0092915D02*
X0339000Y0092915D01*
X0339000Y0094514D02*
X0338800Y0094514D01*
X0338800Y0096112D02*
X0339000Y0096112D01*
X0339000Y0097711D02*
X0338800Y0097711D01*
X0338693Y0099309D02*
X0339000Y0099309D01*
X0339000Y0100908D02*
X0337095Y0100908D01*
X0335496Y0102506D02*
X0339000Y0102506D01*
X0290226Y0088120D02*
X0285774Y0088120D01*
X0280226Y0088120D02*
X0275774Y0088120D01*
X0273000Y0106800D02*
X0273000Y0146800D01*
X0268779Y0148863D02*
X0267159Y0148863D01*
X0267400Y0147265D02*
X0268311Y0147265D01*
X0268394Y0145666D02*
X0267400Y0145666D01*
X0266490Y0144068D02*
X0269000Y0144068D01*
X0269000Y0142469D02*
X0265533Y0142469D01*
X0267132Y0140870D02*
X0269000Y0140870D01*
X0269000Y0139272D02*
X0268730Y0139272D01*
X0268800Y0137673D02*
X0269000Y0137673D01*
X0269000Y0136075D02*
X0268800Y0136075D01*
X0268800Y0134476D02*
X0269000Y0134476D01*
X0269000Y0132878D02*
X0267280Y0132878D01*
X0265561Y0150462D02*
X0270030Y0150462D01*
X0245467Y0142469D02*
X0235533Y0142469D01*
X0237132Y0140870D02*
X0243868Y0140870D01*
X0242270Y0139272D02*
X0238730Y0139272D01*
X0238800Y0137673D02*
X0242200Y0137673D01*
X0242200Y0136075D02*
X0238800Y0136075D01*
X0238800Y0134476D02*
X0242200Y0134476D01*
X0243720Y0132878D02*
X0237280Y0132878D01*
X0235682Y0131279D02*
X0245318Y0131279D01*
X0245504Y0102506D02*
X0235496Y0102506D01*
X0237095Y0100908D02*
X0243905Y0100908D01*
X0230504Y0102506D02*
X0220496Y0102506D01*
X0222095Y0100908D02*
X0228905Y0100908D01*
X0233000Y0071800D02*
X0223000Y0071800D01*
X0213000Y0071800D01*
X0203000Y0071800D01*
X0203000Y0061800D02*
X0213000Y0061800D01*
X0223000Y0061800D01*
X0233000Y0061800D01*
X0243000Y0061800D01*
X0243000Y0051800D02*
X0233000Y0051800D01*
X0223000Y0051800D01*
X0213000Y0051800D01*
X0203000Y0051800D01*
X0203000Y0041800D02*
X0213000Y0041800D01*
X0223000Y0041800D01*
X0233000Y0041800D01*
X0243000Y0041800D01*
X0243000Y0031800D02*
X0233000Y0031800D01*
X0223000Y0031800D01*
X0213000Y0031800D01*
X0203000Y0031800D01*
X0196702Y0028975D02*
X0187733Y0028975D01*
X0187704Y0028917D02*
X0188097Y0029689D01*
X0188365Y0030512D01*
X0188500Y0031367D01*
X0188500Y0031600D01*
X0183200Y0031600D01*
X0183200Y0026300D01*
X0183200Y0022000D01*
X0188500Y0022000D01*
X0188500Y0022233D01*
X0188365Y0023088D01*
X0188097Y0023911D01*
X0187704Y0024683D01*
X0187195Y0025383D01*
X0186583Y0025995D01*
X0185883Y0026504D01*
X0185302Y0026800D01*
X0185883Y0027096D01*
X0186583Y0027605D01*
X0187195Y0028217D01*
X0187704Y0028917D01*
X0188374Y0030573D02*
X0196100Y0030573D01*
X0196100Y0032172D02*
X0188500Y0032172D01*
X0188143Y0033770D02*
X0196348Y0033770D01*
X0197010Y0035369D02*
X0187206Y0035369D01*
X0185630Y0036967D02*
X0198075Y0036967D01*
X0196871Y0038566D02*
X0187449Y0038566D01*
X0188252Y0040164D02*
X0196209Y0040164D01*
X0197666Y0027376D02*
X0186268Y0027376D01*
X0186800Y0025778D02*
X0197220Y0025778D01*
X0196517Y0024179D02*
X0187961Y0024179D01*
X0188445Y0022581D02*
X0196100Y0022581D01*
X0196100Y0020982D02*
X0188439Y0020982D01*
X0187942Y0019384D02*
X0196532Y0019384D01*
X0197257Y0017785D02*
X0186763Y0017785D01*
X0186320Y0016187D02*
X0197629Y0016187D01*
X0196686Y0014588D02*
X0187752Y0014588D01*
X0188380Y0012990D02*
X0196100Y0012990D01*
X0196100Y0011391D02*
X0188500Y0011391D01*
X0183200Y0012000D02*
X0183200Y0016300D01*
X0183200Y0021600D01*
X0182800Y0021600D01*
X0182800Y0012000D01*
X0183200Y0012000D01*
X0183200Y0012990D02*
X0182800Y0012990D01*
X0182800Y0014588D02*
X0183200Y0014588D01*
X0183200Y0016187D02*
X0182800Y0016187D01*
X0182800Y0017785D02*
X0183200Y0017785D01*
X0183200Y0019384D02*
X0182800Y0019384D01*
X0182800Y0020982D02*
X0183200Y0020982D01*
X0183200Y0022581D02*
X0182800Y0022581D01*
X0182800Y0024179D02*
X0183200Y0024179D01*
X0183200Y0025778D02*
X0182800Y0025778D01*
X0182800Y0027376D02*
X0183200Y0027376D01*
X0183200Y0028975D02*
X0182800Y0028975D01*
X0182800Y0030573D02*
X0183200Y0030573D01*
X0183200Y0032000D02*
X0182800Y0032000D01*
X0182800Y0041600D01*
X0183200Y0041600D01*
X0183200Y0036300D01*
X0183200Y0032000D01*
X0183200Y0032172D02*
X0182800Y0032172D01*
X0182800Y0033770D02*
X0183200Y0033770D01*
X0183200Y0035369D02*
X0182800Y0035369D01*
X0182800Y0036967D02*
X0183200Y0036967D01*
X0183200Y0038566D02*
X0182800Y0038566D01*
X0182800Y0040164D02*
X0183200Y0040164D01*
X0203000Y0021800D02*
X0213000Y0021800D01*
X0223000Y0021800D01*
X0233000Y0021800D01*
X0243000Y0021800D01*
X0243000Y0011800D02*
X0233000Y0011800D01*
X0223000Y0011800D01*
X0213000Y0011800D01*
X0203000Y0011800D01*
X0233000Y0071800D02*
X0243000Y0071800D01*
X0247400Y0190424D02*
X0257033Y0190424D01*
X0258019Y0192023D02*
X0247400Y0192023D01*
X0247400Y0193621D02*
X0256848Y0193621D01*
X0256186Y0195220D02*
X0245803Y0195220D01*
X0008638Y0387041D02*
X0007800Y0387041D01*
D21*
X0033000Y0256800D03*
X0048000Y0251800D03*
X0048000Y0181800D03*
X0053000Y0176800D03*
X0035800Y0172388D03*
X0033000Y0156800D03*
X0033000Y0141800D03*
X0048000Y0151800D03*
X0058000Y0156800D03*
X0073000Y0166800D03*
X0088000Y0176800D03*
X0108000Y0176800D03*
X0133000Y0206800D03*
X0198000Y0286800D03*
X0238000Y0236800D03*
X0263000Y0256800D03*
X0283000Y0251800D03*
X0273000Y0146800D03*
X0273000Y0106800D03*
X0168000Y0111800D03*
X0153000Y0106800D03*
X0148000Y0116800D03*
X0138000Y0096800D03*
X0118000Y0071800D03*
X0108000Y0066800D03*
X0103000Y0076800D03*
X0093000Y0056800D03*
X0113000Y0046800D03*
X0138000Y0046800D03*
X0138000Y0009489D03*
X0058000Y0036800D03*
X0048000Y0041800D03*
X0048000Y0056800D03*
X0058000Y0056800D03*
X0038000Y0056800D03*
X0043000Y0086800D03*
X0053000Y0106800D03*
X0048000Y0121800D03*
X0053000Y0136800D03*
X0088000Y0106800D03*
X0093000Y0116800D03*
X0007900Y0144488D03*
X0033000Y0026800D03*
X0043000Y0026800D03*
M02*
