%
M48
M72
T01C0.01378
T02C0.02362
T03C0.03200
T04C0.03543
T05C0.03937
T06C0.04000
T07C0.04921
T08C0.05906
T09C0.12500
%
T01
X33000Y26800
X43000Y26800
X48000Y41800
X58000Y36800
X58000Y56800
X48000Y56800
X38000Y56800
X43000Y86800
X53000Y106800
X48000Y121800
X53000Y136800
X48000Y151800
X58000Y156800
X73000Y166800
X88000Y176800
X108000Y176800
X133000Y206800
X53000Y176800
X48000Y181800
X35800Y172388
X33000Y156800
X33000Y141800
X7900Y144488
X88000Y106800
X93000Y116800
X103000Y76800
X108000Y66800
X118000Y71800
X93000Y56800
X113000Y46800
X138000Y46800
X138000Y9489
X138000Y96800
X153000Y106800
X148000Y116800
X168000Y111800
X273000Y106800
X273000Y146800
X238000Y236800
X263000Y256800
X283000Y251800
X198000Y286800
X48000Y251800
X33000Y256800
T02
X188000Y316800
X188000Y326800
X188000Y336800
X188000Y346800
X188000Y356800
X188000Y366800
X188000Y376800
X218000Y376800
X218000Y366800
X218000Y356800
X218000Y346800
X218000Y336800
X218000Y326800
X218000Y316800
T03
X243000Y331800
X283000Y331800
X223000Y251800
X213000Y251800
X198000Y246800
X198000Y236800
X198000Y226800
X198000Y216800
X198000Y206800
X198000Y196800
X198000Y186800
X198000Y176800
X198000Y166800
X198000Y156800
X198000Y146800
X198000Y136800
X198000Y126800
X218000Y136800
X233000Y136800
X248000Y136800
X263000Y136800
X263000Y146800
X263000Y156800
X288000Y156800
X288000Y166800
X288000Y176800
X288000Y186800
X288000Y196800
X288000Y206800
X288000Y216800
X288000Y226800
X288000Y236800
X318000Y236800
X318000Y226800
X318000Y216800
X318000Y206800
X318000Y196800
X318000Y186800
X318000Y176800
X318000Y166800
X318000Y156800
X318000Y146800
X318000Y136800
X318000Y126800
X318000Y116800
X318000Y106800
X318000Y96800
X323000Y96800
X333000Y96800
X288000Y106800
X288000Y116800
X288000Y126800
X288000Y136800
X288000Y146800
X278000Y96800
X263000Y96800
X248000Y96800
X233000Y96800
X218000Y96800
X168000Y126800
X168000Y136800
X168000Y146800
X168000Y156800
X168000Y166800
X168000Y176800
X168000Y186800
X168000Y196800
X168000Y206800
X168000Y216800
X168000Y226800
X168000Y236800
X168000Y246800
X168000Y256800
X198000Y256800
X223000Y191800
X243000Y191800
X148000Y126800
X138000Y126800
X73000Y271800
X83000Y281800
X73000Y311800
X48000Y301800
X48000Y291800
X123000Y281800
T04
X18000Y221643
X18000Y211800
X18000Y201957
T05
X163000Y271957
X163000Y291643
X253157Y306800
X272843Y306800
T06
X333000Y236800
X333000Y226800
X333000Y216800
X263000Y216800
X263000Y226800
X263000Y206800
X263000Y196800
X263000Y186800
X263000Y176800
X263000Y166800
X263000Y81800
X263000Y71800
X253000Y71800
X253000Y81800
X243000Y81800
X243000Y71800
X233000Y71800
X233000Y81800
X223000Y81800
X223000Y71800
X213000Y71800
X213000Y81800
X203000Y81800
X203000Y71800
X203000Y61800
X203000Y51800
X203000Y41800
X203000Y31800
X203000Y21800
X203000Y11800
X213000Y11800
X223000Y11800
X223000Y21800
X223000Y31800
X213000Y31800
X213000Y21800
X213000Y41800
X213000Y51800
X223000Y51800
X223000Y41800
X233000Y41800
X233000Y51800
X243000Y51800
X243000Y41800
X243000Y31800
X243000Y21800
X233000Y21800
X233000Y31800
X233000Y11800
X243000Y11800
X253000Y11800
X263000Y11800
X263000Y21800
X263000Y31800
X253000Y31800
X253000Y21800
X253000Y41800
X253000Y51800
X263000Y51800
X263000Y41800
X273000Y41800
X273000Y51800
X283000Y51800
X283000Y41800
X283000Y31800
X283000Y21800
X273000Y21800
X273000Y31800
X273000Y11800
X283000Y11800
X293000Y11800
X293000Y21800
X293000Y31800
X293000Y41800
X293000Y51800
X293000Y61800
X293000Y71800
X293000Y81800
X283000Y81800
X283000Y71800
X273000Y71800
X273000Y81800
X273000Y61800
X283000Y61800
X263000Y61800
X253000Y61800
X243000Y61800
X233000Y61800
X223000Y61800
X213000Y61800
X183000Y61800
X173000Y61800
X173000Y51800
X173000Y41800
X183000Y41800
X183000Y51800
X183000Y31800
X183000Y21800
X173000Y21800
X173000Y31800
X173000Y11800
X183000Y11800
X183000Y71800
X183000Y81800
X173000Y81800
X173000Y71800
X128000Y86800
X98000Y36800
X78000Y31800
X78000Y21800
X68000Y21800
X68000Y31800
X68000Y41800
X68000Y51800
X78000Y51800
X78000Y41800
X78000Y61800
X68000Y61800
X68000Y71800
X68000Y81800
X78000Y81800
X78000Y71800
X78000Y91800
X78000Y101800
X68000Y101800
X68000Y91800
X53000Y96800
X68000Y111800
X68000Y121800
X78000Y121800
X78000Y111800
X78000Y131800
X68000Y131800
X23000Y131800
X23000Y141800
X23000Y121800
X23000Y111800
X13000Y111800
X13000Y121800
X13000Y101800
X13000Y91800
X23000Y91800
X23000Y101800
X23000Y81800
X13000Y81800
X13000Y71800
X18000Y161800
X18000Y171800
X53000Y246800
X63000Y246800
X73000Y246800
X83000Y246800
X118000Y246800
X118000Y236800
X118000Y226800
X118000Y216800
X118000Y256800
X168000Y326800
X168000Y336800
X168000Y351800
X168000Y361800
X313000Y81800
X313000Y71800
X323000Y71800
X323000Y81800
X323000Y61800
X313000Y61800
X313000Y51800
X313000Y41800
X323000Y41800
X323000Y51800
X323000Y31800
X323000Y21800
X313000Y21800
X313000Y31800
X313000Y11800
X323000Y11800
T07
X24130Y254457
X24130Y274143
T08
X13500Y278080
X13500Y250520
T09
X13000Y311800
X13000Y376800
X383000Y376800
X383000Y311800
M30
